<?xml version="1.0" encoding="UTF-8"?>
<svg width="321.58" height="321.58" version="1.1" viewBox="0 0 321.58 321.58" xml:space="preserve" xmlns="http://www.w3.org/2000/svg">
<desc>Created with Fabric.js 3.6.6</desc>


<g transform="matrix(.91 0 0 .91 160.51 161.97)">

		<g transform="translate(.3 -1.3)">
<path transform="translate(-186.8,-185.7)" d="m360.91 185.7c0 96.154-77.945 174.1-174.1 174.1-96.156 0-174.1-77.949-174.1-174.1 0-96.156 77.949-174.1 174.1-174.1 96.159 0 174.1 77.949 174.1 174.1z" fill="#fff" stroke="#f8c22c" stroke-width="5.1735"/>

		
<path transform="translate(-186.8,-185.7)" d="m325.28 185.7c0 76.475-61.996 138.47-138.47 138.47-76.477 0-138.47-61.996-138.47-138.47 0-76.479 61.996-138.47 138.47-138.47 76.475 0 138.47 61.995 138.47 138.47z" fill="#e15617" fill-rule="evenodd" stroke-linecap="round"/>
</g>
		<g id="Hand" transform="translate(4.17,-8.88)">
<path transform="translate(-190.67,-178.12)" d="m222.29 191.35c17.699-0.693 30-3.602 42.6-9.6 3.857-1.836 7.469-5.244 11.4-6 18.941-3.648 33.107 7.318 39.602 19.799 1.938 3.73 5.777 8.771 4.199 13.801-1.902 6.057-13.818 4.869-20.4 5.4-39.604 3.203-64.201 21.531-92.4 36.6-10.74 5.74-23.211 13.021-34.801 16.201-31.318 8.588-63.525 0.842-78.6-15.602-16.502-18.002-22.451-47.492-27.6-76.801-1.711-9.736-5.033-20.115-5.4-29.398-0.26-6.592 2.086-17.701 7.801-18.602 8.168-1.283 23.305 13.908 28.799 17.402 14.918 9.484 40.15 20.809 52.201 2.398 0.672-7.273 1.232-17.424 2.4-27.6 1.512-13.186 0.48-32.75 13.199-32.4 12.104 0.332 6.613 16.559 10.199 26.398 4.168 0.205 2.197-5.059 2.402-7.199 0.734-7.734-0.445-18.818 8.398-19.199 9.195-0.395 7.982 8.514 8.4 18 0.072 1.646-1.486 6.213 1.799 6.6 4.188-0.273 2.738-5.863 3-8.398 0.738-7.141 2.078-18.051 9.6-18.002 4.625 0.033 8.783 3.553 10.201 7.801 3.496 10.471 1.799 31.84 1.799 49.199 1e-3 19.083 1.042 37.028 1.202 49.202zm-6.6-76.799c-0.389-8.814 2.545-25.973-6.602-24.602-7.666 1.15-3.07 19.516-6.6 26.4-3.875-0.326-9.096 0.695-11.998-0.6-0.686-8.516 1.432-19.834-3.002-24.602-7.916 2.883-3.824 17.775-5.398 27.002h-12c-2.309-7.818 2.881-24.783-4.201-26.4-9.189-2.102-7.426 17.318-8.4 25.799-1.316 11.482-3.303 23.443-3.6 31.201-5.852 8.891-15.412 14.164-28.799 12.6-23.117-2.701-37.641-22.463-55.801-29.4-3.844 3.271-3.949 10.105-3.6 15 1.205 16.955 7.75 36.688 10.199 52.199 30.064-16.451 88.459-34.359 130.2-16.799 4.57 1.922 8.133 5.215 11.4 4.799-0.424-19.316-0.824-50.503-1.797-72.597zm-36.599 89.398c6.994-1.68 8.066-13.955 5.398-22.801-8.561-1.24-20.846-1.949-30-0.6 3.268 9.593 11.463 26.558 24.602 23.401zm91.199-20.4c2.275 9.551-1.525 17.949-9 19.199-8.195 1.373-10.996-4.58-15.6-9.6-7.822 1.98-16.73 2.871-26.4 3-2.408 7.266-4.66 15.604-12 16.201-9.324 0.76-12.854-9.477-17.4-16.201-0.729 9.502-11.045 15.469-20.4 10.801v16.199h-6.598c-3.615 18.5-0.883 32.488 17.998 31.201 21.383-1.457 37.439-15.369 55.799-24.6 18.367-9.234 38.375-18.311 60.602-19.801 7.557-0.508 10.535 1.496 18.602-2.398-2.166-19.577-26.769-34.501-45.603-24.001zm-121.8-3c-21.295 3.061-39.518 8.635-56.398 16.201-5.137 2.301-12.143 3.635-15 8.998 28.504 0.143 58.938 0.088 88.199 0-3.91-5.527-8.949-9.24-12-15.598-1.57-3.275-1.611-6.693-4.199-9.602-0.201 1e-3 -0.401 1e-3 -0.602 1e-3zm58.801 27.002c5.566-0.859 6.182-9.404 8.4-15-7.502-4.5-15.766-8.234-25.801-10.201 3.141 8.013 7.823 26.675 17.401 25.201zm43.799-15.602c2.299 11.477 20.447 4.977 14.402-6-4.137 2.666-9.635 3.967-14.402 6zm-117.6 73.799v-42.6c-3.371-0.07-1.51-0.07-10.199 0v-12.6h-44.4c7.539 29.063 21.513 51.686 54.599 55.2zm-5.4-55.199v8.4c13.086 0.078 24.361-0.031 37.201 0v-8.4h-37.201zm22.201 55.199c10.783-1.215 22.047-1.951 29.4-6.6-20.578 1.859-26.143-17.738-21-36h-8.4v42.6zm-12-42.599v42.6h7.199v-42.6h-7.199z" fill="#231916" fill-rule="evenodd" stroke-linecap="round"/>
</g>
		<g transform="translate(-152.89,-20.32)">
<circle r="8.436"/>
</g>
		<g transform="translate(152.11,-20.32)">
<circle r="8.437"/>
</g>
		<g transform="translate(-147.73,40.59)">
<path transform="translate(-38.77,-227.59)" d="m30.401 236.97c-0.75-0.82-1.783-2.688-2.465-5.211-1.58-5.852 0.934-11.219 7.768-13.066 6.525-1.764 12.086 1.459 13.824 7.893 0.691 2.557 0.584 4.367 0.408 5.176l-2.369-0.088c0.227-1.119 0.205-2.664-0.26-4.387-1.316-4.867-5.297-7.26-10.746-5.787-5.111 1.381-7.553 5.178-6.199 10.197 0.449 1.664 1.238 3.232 2.053 4.168z" stroke-linecap="round"/>
</g>
		<g transform="translate(-142.22,57.95)">
<path transform="translate(-44.28,-244.95)" d="m52.222 236.05-8.305 3.43 3.967 9.604 8.305-3.434 1.07 2.594-19.848 8.199-1.072-2.59 9.307-3.848-3.967-9.6-9.307 3.846-1.07-2.59 19.85-8.203z" stroke-linecap="round"/>
</g>
		<g transform="translate(-135.22,79.1)">
<path transform="translate(-51.28,-266.1)" d="m47.712 261.52-6.975 1.428-1.428-2.49 22.291-4.332 1.65 2.875-14.99 17.055-1.477-2.57 4.721-5.355zm5.404 5.061 4.301-4.932c0.98-1.113 1.928-2.025 2.848-2.92l-0.031-0.057c-1.238 0.344-2.559 0.734-3.914 0.996l-6.441 1.27z" stroke-linecap="round"/>
</g>
		<g transform="translate(-122.28,92.67)">
<path transform="translate(-64.22,-279.67)" d="m50.792 279.76 17.098-13.012 1.852 2.434-4.498 12.037c-1.059 2.768-2.088 5.154-3.24 7.273l0.082 0.057c2.129-1.941 4.17-3.574 6.836-5.602l7.152-5.445 1.582 2.084-17.098 13.008-1.699-2.232 4.547-12.031c0.994-2.639 2.08-5.266 3.295-7.512l-0.084-0.059c-2.061 1.768-4.094 3.357-6.938 5.52l-7.305 5.559z" stroke-linecap="round"/>
</g>
		<g transform="translate(-109.97,106.88)">
<path transform="translate(-76.53,-293.88)" d="m79.599 282.27c1.398 0.992 2.953 2.279 4.51 3.834 2.816 2.818 4.148 5.5 4.26 8.049 0.137 2.615-0.834 5.162-3.291 7.621-2.48 2.48-5.297 3.719-8.094 3.719-2.863-0.023-5.975-1.602-8.928-4.555-1.42-1.422-2.502-2.637-3.381-3.742zm-11.475 15.398c0.428 0.564 1.127 1.309 1.895 2.076 4.215 4.217 8.814 4.125 12.916 0.021 3.607-3.562 3.855-7.869-0.293-12.016-1.014-1.014-1.871-1.691-2.502-2.098z" stroke-linecap="round"/>
</g>
		<g transform="translate(-97.9,118.08)">
<path transform="translate(-88.6,-305.08)" d="m96.548 297.71-13.73 16.533-2.158-1.793 13.73-16.531z" stroke-linecap="round"/>
</g>
		<g transform="translate(-85.57,127.98)">
<path transform="translate(-100.93,-314.98)" d="m101.24 326.43c-1.293-0.309-3.738-1.145-6.129-2.789-2.676-1.844-4.41-4.047-5.002-6.893-0.512-2.518 0.172-5.529 2.07-8.287 3.635-5.275 9.941-6.621 15.873-2.533 2.047 1.412 3.365 2.979 3.873 3.869l-1.861 1.465c-0.637-1.096-1.6-2.223-3.385-3.453-4.305-2.967-8.957-2.223-12.014 2.211-3.092 4.488-2.24 8.984 1.906 11.84 1.496 1.031 2.664 1.527 3.369 1.627l3.635-5.275-3.568-2.459 1.266-1.838 5.826 4.014z" stroke-linecap="round"/>
</g>
		<g transform="translate(-72.83,138.44)">
<path transform="translate(-113.67,-325.44)" d="m111.66 325.55-5.066 5-2.555-1.309 16.324-15.785 2.951 1.51-3.268 22.471-2.641-1.35 1.039-7.062zm7.289 1.297 0.92-6.48c0.213-1.467 0.51-2.748 0.793-3.998l-0.057-0.029c-0.85 0.961-1.744 2.006-2.738 2.969l-4.707 4.572z" stroke-linecap="round"/>
</g>
		<g transform="translate(-53.29,144.54)">
<path transform="translate(-133.21,-331.54)" d="m131.45 319.17c1.402 0.248 3.381 0.779 5.143 1.436 2.777 1.033 4.4 2.246 5.215 3.807 0.652 1.262 0.74 2.857 0.15 4.439-0.977 2.631-3.303 3.77-5.662 3.711l-0.033 0.09c1.324 1.102 1.717 2.883 1.418 5.15-0.387 3.053-0.631 5.17-0.502 6.104l-2.688-1c-0.105-0.719 0.078-2.59 0.475-5.297 0.434-3-0.283-4.457-2.609-5.422l-2.449-0.91-3.242 8.721-2.598-0.965zm-0.81 10.135 2.66 0.988c2.777 1.033 5.105 0.164 5.961-2.137 0.965-2.598-0.496-4.434-3.242-5.453-1.256-0.467-2.156-0.699-2.648-0.746z" stroke-linecap="round"/>
</g>
		<g transform="translate(-34.9,149.55)">
<path transform="translate(-151.6,-336.55)" d="m149.01 324.91-2.066 8.746 10.111 2.387 2.066-8.744 2.727 0.645-4.936 20.904-2.729-0.645 2.314-9.801-10.111-2.387-2.314 9.799-2.729-0.645 4.936-20.904z" stroke-linecap="round"/>
</g>
		<g transform="translate(-9.06,153.66)">
<path transform="translate(-177.44,-340.66)" d="m173.96 344.18-2.633 6.613-2.863-0.172 8.604-21.006 3.309 0.197 6.031 21.883-2.959-0.176-1.885-6.883zm7.191-1.741-1.762-6.299c-0.393-1.428-0.635-2.719-0.879-3.979l-0.062-6e-3c-0.395 1.221-0.791 2.539-1.314 3.816l-2.473 6.078z" stroke-linecap="round"/>
</g>
		<g transform="translate(11.99,153.58)">
<path transform="translate(-198.49,-340.58)" d="m189.32 330.5c1.668-0.402 3.658-0.73 5.854-0.883 3.977-0.27 6.875 0.492 8.869 2.082 2.061 1.615 3.342 4.02 3.578 7.488 0.24 3.5-0.678 6.439-2.514 8.547-1.9 2.143-5.135 3.451-9.303 3.736-2.004 0.137-3.635 0.152-5.043 0.088zm4.065 18.772c0.707 0.047 1.727 0.01 2.809-0.066 5.949-0.404 8.904-3.93 8.508-9.721-0.312-5.062-3.395-8.078-9.25-7.68-1.43 0.098-2.504 0.299-3.225 0.508z" stroke-linecap="round"/>
</g>
		<g transform="translate(35.47,150.14)">
<path transform="translate(-221.97,-337.14)" d="m229.05 336.59c-0.807-2.895-1.785-6.398-2.363-8.982l-0.061 0.012c-0.205 2.596-0.455 5.43-0.869 8.561l-1.434 11.006-2.055 0.455-5.652-9.227c-1.662-2.768-3.068-5.262-4.215-7.621l-0.062 0.016c0.52 2.627 1.143 6.148 1.664 9.365l1.447 9.121-2.586 0.576-3.215-21.307 3.455-0.771 5.844 9.352c1.447 2.387 2.646 4.537 3.691 6.594l0.062-0.016c0.09-2.24 0.32-4.711 0.664-7.566l1.473-10.98 3.455-0.771 5.986 20.691-2.676 0.596z" stroke-linecap="round"/>
</g>
		<g transform="translate(50.62,145.56)">
<path transform="translate(-237.12,-332.56)" d="m235 321.94 6.893 20.338-2.656 0.9-6.889-20.338z" stroke-linecap="round"/>
</g>
		<g transform="translate(63.86,140.37)">
<path transform="translate(-250.36,-327.37)" d="m247.37 340.46-8.742-19.617 2.795-1.246 10.682 7.137c2.451 1.666 4.535 3.213 6.332 4.816l0.074-0.064c-1.398-2.518-2.523-4.879-3.885-7.936l-3.658-8.207 2.389-1.062 8.742 19.617-2.562 1.143-10.664-7.182c-2.342-1.57-4.648-3.229-6.557-4.926l-0.074 0.068c1.246 2.41 2.328 4.754 3.781 8.014l3.734 8.383z" stroke-linecap="round"/>
</g>
		<g transform="translate(76.56,133.99)">
<path transform="translate(-263.06,-320.99)" d="m259.02 310.94 10.516 18.717-2.443 1.375-10.516-18.719z" stroke-linecap="round"/>
</g>
		<g transform="translate(86.52,128.05)">
<path transform="translate(-273.02,-315.05)" d="m272.17 324.28c1.477-0.025 3.299-0.51 4.893-1.57 2.363-1.572 2.912-3.738 1.711-5.541-1.094-1.648-2.703-1.996-5.721-1.289-3.627 0.881-6.457 0.541-8.117-1.953-1.854-2.789-0.92-6.398 2.557-8.711 1.807-1.203 3.441-1.676 4.512-1.736l0.617 2.307c-0.785 0.027-2.316 0.316-3.938 1.395-2.441 1.625-2.4 3.703-1.588 4.924 1.113 1.672 2.75 1.771 5.855 1.086 3.803-0.846 6.289-0.393 8.037 2.236 1.836 2.762 1.426 6.52-2.797 9.326-1.725 1.15-3.965 1.873-5.344 1.871z" stroke-linecap="round"/>
</g>
		<g transform="translate(96.5,116.53)">
<path transform="translate(-283,-303.53)" d="m279.13 300.02-5.053 4.145-1.496-1.822 12.297-10.088 1.498 1.824-5.076 4.164 12.129 14.785-2.168 1.779z" stroke-linecap="round"/>
</g>
		<g transform="translate(111.85,108.36)">
<path transform="translate(-298.35,-295.36)" d="m285.9 291.58c0.805-1.18 2.098-2.768 3.416-4.104 2.08-2.113 3.854-3.094 5.607-3.199 1.418-0.078 2.91 0.498 4.113 1.682 1.998 1.969 2.086 4.557 1.066 6.682l0.066 0.066c1.549-0.754 3.332-0.385 5.277 0.818 2.627 1.602 4.461 2.689 5.361 2.955l-2.012 2.043c-0.699-0.199-2.33-1.131-4.637-2.602-2.559-1.625-4.18-1.566-6.014 0.16l-1.832 1.859 6.625 6.529-1.943 1.973zm8.915 4.887 1.99-2.021c2.08-2.109 2.24-4.59 0.492-6.311-1.975-1.943-4.244-1.365-6.301 0.725-0.939 0.953-1.521 1.678-1.766 2.107z" stroke-linecap="round"/>
</g>
		<g transform="translate(125.5,96.6)">
<path transform="translate(-312,-283.6)" d="m310.52 286.21 3.971 5.902-1.758 2.266-12.479-18.953 2.031-2.617 21.463 7.371-1.816 2.342-6.744-2.326zm2.625-6.916-6.193-2.104c-1.402-0.482-2.604-1.01-3.781-1.52l-0.039 0.049c0.787 1.014 1.648 2.088 2.408 3.24l3.621 5.471z" stroke-linecap="round"/>
</g>
		<g transform="translate(130.16,78.57)">
<path transform="translate(-316.66,-265.57)" d="m310.56 265.08-3.479 5.527-1.996-1.256 8.471-13.459 1.998 1.258-3.5 5.553 16.182 10.186-1.494 2.373z" stroke-linecap="round"/>
</g>
		<g transform="translate(137.74,71.24)">
<path transform="translate(-324.24,-258.24)" d="m315.4 251.97 19.002 10.053-1.314 2.48-18.998-10.053z" stroke-linecap="round"/>
</g>
		<g transform="translate(143.98,57.9)">
<path transform="translate(-330.48,-244.9)" d="m334.02 235.74c6.811 2.803 8.758 8.465 6.67 13.535-2.17 5.279-7.773 7.248-13.789 4.775-6.311-2.598-8.838-8.188-6.652-13.496 2.241-5.453 7.843-7.253 13.771-4.814zm-6.063 15.572c4.275 1.76 9.025 1.025 10.701-3.045 1.672-4.07-1.125-7.91-5.637-9.766-3.982-1.639-8.957-1.271-10.719 3.002-1.757 4.278 1.319 8.026 5.655 9.809z" stroke-linecap="round"/>
</g>
		<g transform="translate(150.75,37.67)">
<path transform="translate(-337.25,-224.67)" d="m345.64 235.15-20.801-5.348 0.762-2.965 12.229-3.928c2.826-0.885 5.338-1.557 7.713-1.965l-8e-3 -0.1c-2.842-0.469-5.389-1.059-8.629-1.891l-8.703-2.238 0.652-2.529 20.801 5.346-0.699 2.719-12.252 3.889c-2.689 0.854-5.42 1.633-7.936 2.072l6e-3 0.102c2.662 0.52 5.17 1.133 8.627 2.02l8.891 2.285z" stroke-linecap="round"/>
</g>
		<g id="Devanagari_2_" transform="translate(-98.63,-121.17)">
<path transform="translate(-87.87,-65.83)" d="m76.011 73.111c-0.77-0.77-1.156-1.154-1.925-1.924 1.224-1.224 2.361-2.324 3.438-3.339 1.078-1.016 2.096-1.949 3.087-2.836s1.955-1.727 2.926-2.555 1.949-1.644 2.972-2.474 2.09-1.675 3.241-2.561 2.383-1.811 3.742-2.795c0.637 0.882 0.957 1.325 1.594 2.207-1.235 0.895-1.848 1.349-3.065 2.277 0.963 1.267 1.805 2.376 2.587 3.406s1.505 1.979 2.227 2.929 1.444 1.902 2.227 2.931c0.782 1.03 1.625 2.137 2.588 3.404-1.094 0.834-1.637 1.259-2.715 2.123-0.708-0.885-1.238-1.549-1.769-2.213s-1.062-1.329-1.77-2.214c-0.121 1.052-0.464 2.057-0.964 3.001-0.491 0.928-1.125 1.771-1.932 2.472-1.3 1.127-2.676 1.802-4.157 2.019s-2.635-0.086-3.455-0.954c-0.409-0.433-0.679-1.003-0.819-1.687-0.144-0.703-0.161-1.5-0.02-2.372-0.793 0.729-1.383 1.285-1.97 1.844s-1.172 1.122-1.945 1.884c-0.785-0.796-1.176-1.192-1.961-1.988 1.34-1.321 2.472-2.396 3.538-3.384s2.065-1.89 3.151-2.843 2.258-1.958 3.683-3.133c0.71 0.864 1.066 1.295 1.776 2.159-1.024 0.844-1.533 1.273-2.543 2.143-0.565 0.88-0.864 1.776-0.899 2.67-0.036 0.895 0.209 1.63 0.724 2.202 0.283 0.315 0.729 0.396 1.336 0.254s1.195-0.459 1.766-0.955c0.687-0.596 1.21-1.448 1.603-2.538 0.401-1.115 0.64-2.378 0.692-3.791-0.8-1.001-1.401-1.752-2.001-2.503s-1.201-1.504-2.001-2.506c-1.347 1.079-2.511 2.049-3.585 2.962s-2.056 1.773-3.031 2.646-1.941 1.759-2.979 2.737-2.143 2.047-3.392 3.295z" stroke-linecap="round"/>
</g>
		<g transform="translate(-84.66,-132.88)">
<path transform="translate(-101.84,-54.12)" d="m94.315 57.395c-0.643-0.879-0.963-1.319-1.606-2.198 1.559-1.144 2.938-2.113 4.228-2.996s2.49-1.677 3.697-2.456 2.422-1.54 3.748-2.343 2.764-1.648 4.42-2.58c0.56 0.935 0.84 1.401 1.399 2.336-1.341 0.753-2.007 1.138-3.333 1.926 0.693 1.167 1.211 2.044 1.73 2.919s1.039 1.749 1.731 2.916c0.71 1.197 0.836 2.522 0.396 3.938-0.447 1.438-1.338 2.58-2.659 3.438-1.369 0.889-2.79 1.25-4.303 1.088s-2.681-0.791-3.484-1.927c-0.784-1.108-1.371-1.939-1.958-2.77s-1.175-1.661-1.958-2.769c-0.821 0.584-1.232 0.879-2.048 1.478zm12.233 2.554c0.524-0.34 0.852-0.816 0.99-1.434 0.138-0.617 0.045-1.19-0.284-1.716-0.721-1.15-1.261-2.012-1.802-2.874s-1.08-1.724-1.8-2.874c-1.678 1.054-2.511 1.594-4.163 2.706 0.756 1.126 1.323 1.972 1.891 2.817s1.135 1.689 1.892 2.815c0.346 0.515 0.845 0.824 1.489 0.932 0.645 0.107 1.239-0.015 1.787-0.372z" stroke-linecap="round"/>
</g>
		<g transform="translate(-67.13,-140.1)">
<path transform="translate(-119.37,-46.9)" d="m109.07 47.8c-0.541-0.945-0.812-1.417-1.353-2.363 1.534-0.879 2.927-1.643 4.232-2.339s2.526-1.324 3.72-1.92 2.362-1.161 3.568-1.726 2.449-1.13 3.794-1.718 2.791-1.198 4.408-1.848c0.406 1.01 0.61 1.515 1.017 2.525-1.562 0.627-2.34 0.951-3.889 1.622 0.7 1.614 1.049 2.422 1.749 4.036-1.596 0.691-2.784 1.235-3.969 1.789s-2.366 1.119-3.928 1.905c-0.215 0.108-0.383 0.25-0.499 0.42s-0.141 0.323-0.073 0.456c0.169 0.332 0.667 0.606 1.443 0.856 0.756 0.243 1.312 0.303 1.659 0.133 0.423-0.208 0.972-0.651 1.649-1.293 0.65-0.616 1.21-1.021 1.643-1.219 1.351-0.619 2.677-0.75 3.929-0.436 1.238 0.31 2.082 0.982 2.512 2.015 0.592 1.423 0.414 2.905-0.473 4.455-0.453 0.792-1.016 1.488-1.69 2.094s-1.461 1.123-2.368 1.556c-0.867 0.415-1.756 0.713-2.674 0.896s-1.872 0.259-2.85 0.209c-0.982-0.049-1.934-0.219-2.838-0.497s-1.766-0.669-2.586-1.178c0.578-1.043 0.874-1.563 1.478-2.601 1.273 0.811 2.662 1.283 4.139 1.401 1.466 0.117 2.843-0.14 4.125-0.753 1.001-0.479 1.743-1.138 2.248-1.953 0.497-0.803 0.619-1.56 0.306-2.264-0.141-0.317-0.437-0.494-0.825-0.57-0.38-0.075-0.817-0.043-1.269 0.164-0.424 0.194-0.959 0.624-1.593 1.238-0.63 0.61-1.174 1.019-1.59 1.224-0.862 0.423-2.225 0.411-4.098-0.015-1.888-0.429-3.056-0.991-3.447-1.713-0.45-0.831-0.416-1.748 0.042-2.728 0.452-0.969 1.233-1.787 2.36-2.355 0.948-0.478 1.662-0.827 2.378-1.173s1.432-0.687 2.393-1.13c-0.269-0.582-0.402-0.873-0.671-1.455-1.643 0.758-3.001 1.417-4.264 2.047s-2.429 1.232-3.678 1.897-2.582 1.401-4.167 2.309z" stroke-linecap="round"/>
</g>
		<g transform="translate(-58.42,-146.69)">
<path transform="translate(-128.08,-40.31)" d="m136.72 52.271c-0.568-1.487-1.064-2.786-1.525-3.995s-0.888-2.325-1.314-3.44-0.851-2.23-1.312-3.438-0.958-2.51-1.525-3.997c-1.381 0.526-2.07 0.797-3.441 1.357-0.412-1.008-0.619-1.511-1.031-2.519 1.395-0.57 2.095-0.846 3.5-1.382-0.962-1.468-2.208-2.535-3.733-3.145-1.509-0.604-2.959-0.614-4.279-0.051-0.75 0.319-1.295 0.788-1.646 1.363-0.364 0.598-0.446 1.149-0.223 1.647 0.274 0.613 0.79 1.107 1.505 1.495 0.734 0.397 1.625 0.656 2.658 0.756-1.599 0.68-2.394 1.032-3.978 1.757-0.794 9e-3 -1.522-0.208-2.182-0.63-0.641-0.41-1.156-0.98-1.508-1.721-0.577-1.211-0.473-2.545 0.363-3.957 0.424-0.717 0.978-1.356 1.639-1.908s1.436-1.019 2.319-1.395c1.083-0.461 2.206-0.699 3.355-0.712s2.327 0.198 3.52 0.635c1.175 0.43 2.224 1.035 3.153 1.807s1.737 1.709 2.428 2.809c1.467-0.521 2.204-0.771 3.68-1.256 0.34 1.034 0.511 1.551 0.851 2.585-1.399 0.459-2.097 0.696-3.487 1.189 0.532 1.5 0.998 2.813 1.43 4.032s0.833 2.343 1.232 3.468 0.799 2.25 1.231 3.469 0.898 2.531 1.431 4.031c-1.247 0.444-1.87 0.672-3.111 1.146z" stroke-linecap="round"/>
</g>
		<g transform="translate(-39.84,-149.84)">
<path transform="translate(-146.66,-37.16)" d="m137.12 35.227c-0.346-1.032-0.519-1.548-0.865-2.581 1.6-0.535 3.044-0.99 4.398-1.4s2.615-0.773 3.846-1.112 2.435-0.654 3.673-0.964 2.511-0.612 3.886-0.92c1.375-0.307 2.85-0.619 4.494-0.937 0.208 1.068 0.313 1.602 0.521 2.67-1.437 0.278-2.153 0.426-3.584 0.738 0.34 1.555 0.638 2.915 0.914 4.178s0.531 2.429 0.787 3.595 0.51 2.333 0.787 3.596 0.575 2.622 0.915 4.177c-1.286 0.28-1.928 0.428-3.208 0.738-0.376-1.546-0.706-2.898-1.012-4.154s-0.589-2.417-0.871-3.577-0.565-2.319-0.871-3.576-0.634-2.61-1.011-4.157c-0.971 0.235-1.698 0.42-2.424 0.608s-1.451 0.381-2.416 0.647c0.514 1.854 0.899 3.243 1.285 4.633s0.771 2.78 1.285 4.633c0.1 0.358 0.075 0.703-0.07 1.026-0.146 0.325-0.37 0.527-0.671 0.613-0.603 0.172-1.821-0.125-3.707-0.842-1.884-0.717-2.93-1.284-3.085-1.756-0.085-0.26-0.046-0.521 0.075-0.769 0.112-0.229 0.3-0.411 0.583-0.501 0.609-0.195 0.914-0.29 1.525-0.479 0.226-0.069 0.413-0.205 0.527-0.396 0.123-0.206 0.147-0.435 0.083-0.648l-1.36-4.495c-1.779 0.539-2.665 0.821-4.429 1.412z" stroke-linecap="round"/>
</g>
		<g transform="translate(-19.55,-152.54)">
<path transform="translate(-166.95,-34.46)" d="m156.17 30.16c-0.214-1.067-0.321-1.6-0.535-2.667 1.782-0.356 3.391-0.647 4.895-0.899s2.903-0.465 4.268-0.656 2.696-0.36 4.065-0.516 2.775-0.299 4.291-0.431 3.142-0.252 4.95-0.353c0.061 1.087 0.093 1.63 0.154 2.717-1.056 0.059-1.849 0.111-2.64 0.169s-1.581 0.12-2.635 0.214c0.097 1.077 0.169 1.884 0.242 2.691s0.146 1.613 0.242 2.69c-1.545 0.138-2.702 0.263-3.858 0.396s-2.313 0.276-3.851 0.493c-0.9 0.127-1.62 0.501-2.145 1.111-0.551 0.64-0.761 1.33-0.641 2.064 0.193 1.178 0.883 2.172 1.995 3.007 1.097 0.823 3.339 1.032 3.339 1.032 0.03-0.088-1.03-1.328-1.131-2.067-0.155-1.132 0.204-2.178 1.105-3.115 0.904-0.939 2.093-1.493 3.541-1.639 1.454-0.147 2.742 0.179 3.803 0.971 1.074 0.802 1.644 1.851 1.727 3.091 0.092 1.389-0.575 2.623-1.946 3.73-0.688 0.555-1.451 0.997-2.292 1.33s-1.759 0.558-2.764 0.677c-1.22 0.145-2.396 0.097-3.541-0.147s-2.257-0.684-3.35-1.321-1.97-1.361-2.624-2.183-1.083-1.741-1.276-2.767c-0.28-1.489 0.118-2.912 1.244-4.202 0.559-0.64 1.231-1.157 1.994-1.548s1.621-0.656 2.568-0.79c1.708-0.241 2.564-0.35 4.277-0.543-0.118-1.037-0.176-1.556-0.293-2.593-1.766 0.199-3.235 0.394-4.604 0.589s-2.639 0.392-4.003 0.623-2.824 0.494-4.571 0.842zm15.759 10.633c0.433 0.051 1.031-0.326 1.443-0.742 0.413-0.417 0.642-0.858 0.6-1.327s-0.251-0.864-0.625-1.18c-0.342-0.292-0.757-0.414-1.244-0.365-0.481 0.049-0.864 0.258-1.136 0.606-0.3 0.384-0.427 0.812-0.374 1.281 0.045 0.396 0.19 0.743 0.413 1.041 0.237 0.319 0.613 0.649 0.923 0.686z" stroke-linecap="round"/>
</g>
		<g transform="translate(-23.31,-141.94)">
<path transform="translate(-163.19,-45.06)" d="m163.48 46.735c-0.913-0.524-1.375-0.784-2.306-1.294 0.682-0.825 1.029-1.233 1.732-2.05 0.936 0.536 1.398 0.809 2.315 1.36-0.707 0.791-1.055 1.187-1.741 1.984z" stroke-linecap="round"/>
</g>
		<g transform="translate(13.21,-152.77)">
<path transform="translate(-199.71,-34.23)" d="m189.2 27.121c0.015-1.088 0.021-1.632 0.036-2.72 1.684 0.022 3.199 0.07 4.612 0.129s2.726 0.133 4.003 0.219 2.52 0.184 3.795 0.3 2.585 0.25 3.992 0.414 2.913 0.355 4.583 0.599c-0.157 1.077-0.236 1.616-0.394 2.693-1.445-0.21-2.173-0.306-3.622-0.483-0.193 1.58-0.363 2.961-0.521 4.244s-0.302 2.468-0.447 3.653-0.29 2.37-0.448 3.653-0.33 2.666-0.524 4.245c-1.304-0.159-1.957-0.232-3.264-0.361 0.124-1.246 0.218-2.18 0.311-3.114s0.187-1.87 0.311-3.116c-0.521 0.373-1.143 0.666-1.833 0.84-0.686 0.173-1.412 0.219-2.144 0.166-1.807-0.13-3.323-0.676-4.556-1.674-1.242-1.006-1.866-2.189-1.829-3.53 0.034-1.222 0.061-2.137 0.086-3.053s0.05-1.833 0.084-3.056c-0.893-0.025-1.337-0.036-2.231-0.048zm8.65 8.574c0.689 0.05 1.399-0.071 2.11-0.319 0.701-0.245 1.376-0.612 1.983-1.126 0.127-1.276 0.224-2.233 0.318-3.19s0.189-1.914 0.315-3.189c-1.498-0.147-2.624-0.241-3.749-0.325s-2.252-0.158-3.754-0.234c-0.062 1.213-0.105 2.124-0.152 3.034s-0.095 1.822-0.156 3.035c-0.03 0.595 0.291 1.101 0.877 1.537 0.58 0.43 1.315 0.713 2.208 0.777z" stroke-linecap="round"/>
</g>
		<g transform="translate(12.25,-147.82)">
<path transform="translate(-198.75,-39.18)" d="m199.66 35.921c0.906-0.477 1.364-0.713 2.286-1.176 0.464 0.989 0.69 1.485 1.137 2.477-1.475 1.243-2.55 2.193-3.61 3.151s-2.107 1.927-3.461 3.238c-0.63-0.652-0.95-0.979-1.596-1.625 1.104-1.033 1.954-1.796 2.812-2.555s1.724-1.512 2.905-2.5c-0.188-0.404-0.282-0.606-0.473-1.01z" stroke-linecap="round"/>
</g>
		<g transform="translate(38.6,-150.58)">
<path transform="translate(-225.1,-36.42)" d="m208.92 28.627c0.151-1.078 0.227-1.617 0.378-2.695 1.859 0.26 3.582 0.533 5.207 0.815s3.153 0.572 4.621 0.871 2.878 0.608 4.264 0.93 2.749 0.657 4.127 1.016 2.77 0.741 4.214 1.16 2.94 0.874 4.521 1.384 3.246 1.074 5.031 1.716c-0.369 1.024-0.555 1.535-0.924 2.56-1.742-0.627-3.275-1.144-4.703-1.607s-2.749-0.872-4.076-1.262-2.657-0.764-4.104-1.147-3.01-0.776-4.801-1.191c-0.402 1.728-0.602 2.592-1.004 4.32-0.208 0.895-0.773 1.608-1.652 2.072-0.886 0.467-1.883 0.577-2.936 0.362-0.312-0.064-0.563-0.126-0.76-0.191-0.193-0.063-0.313-0.138-0.355-0.222 0.956 1.676 1.642 2.94 2.31 4.207s1.32 2.537 2.146 4.238c-1.164 0.365-1.742 0.553-2.887 0.942-0.722-1.454-1.38-2.72-2.009-3.893s-1.229-2.252-1.842-3.328-1.243-2.149-1.943-3.306-1.471-2.397-2.385-3.807c1.287-0.55 1.935-0.819 3.247-1.342 0.233 0.97 0.687 1.787 1.305 2.453 0.629 0.678 1.344 1.116 2.158 1.273 0.547 0.105 1.073 0.033 1.537-0.229 0.444-0.25 0.72-0.624 0.816-1.087 0.271-1.299 0.405-1.949 0.676-3.248-1.351-0.28-2.479-0.496-3.532-0.689s-2.034-0.365-3.091-0.538-2.191-0.347-3.554-0.537z" stroke-linecap="round"/>
</g>
		<g transform="translate(44.55,-146.07)">
<path transform="translate(-231.05,-40.93)" d="m234.66 43.401c0.786-0.443 1.464-0.978 2.015-1.615s0.979-1.377 1.275-2.221c0.325-0.926 0.481-1.808 0.458-2.645s-0.228-1.629-0.605-2.375c-0.382-0.754-0.91-1.405-1.581-1.935s-1.484-0.944-2.437-1.234c-1.582-0.482-3.089-0.449-4.443 0.107-1.368 0.561-2.212 1.489-2.536 2.713-0.312 1.177 0.024 2.326 0.925 3.452 0.911 1.14 2.154 1.964 3.757 2.457 0.87 0.267 1.693 0.295 2.479 0.081-0.44 0.771-1.232 1.27-2.376 1.512-1.144 0.243-2.374 0.168-3.711-0.212-0.521-0.706-0.783-1.059-1.317-1.76-1.16 0.595-1.733 0.899-2.869 1.517 0.977 1.255 1.765 2.308 2.487 3.296s1.378 1.911 2.067 2.909 1.415 2.073 2.254 3.37c1.083-0.51 1.629-0.759 2.732-1.248-0.696-1.058-1.232-1.847-1.777-2.634s-1.098-1.57-1.854-2.61c0.912 0.134 1.787 0.124 2.628-0.029s1.651-0.457 2.429-0.896zm-1.007-5.742c-0.471-0.018-0.933-0.096-1.391-0.236-0.658-0.202-1.186-0.536-1.581-0.983-0.373-0.422-0.503-0.845-0.378-1.274 0.139-0.477 0.458-0.837 0.975-1.075 0.539-0.203 1.105-0.218 1.692-0.039 0.76 0.231 1.324 0.682 1.688 1.346 0.362 0.664 0.43 1.34 0.207 2.025-0.363 0.143-0.767 0.221-1.212 0.236z" stroke-linecap="round"/>
</g>
		<g transform="translate(57.58,-143.53)">
<path transform="translate(-244.08,-43.47)" d="m237.28 52.216c0.566-1.488 1.062-2.789 1.521-3.998s0.885-2.325 1.31-3.441 0.85-2.231 1.31-3.44 0.954-2.511 1.52-3.999c-1.383-0.525-2.075-0.781-3.468-1.272 0.363-1.026 0.546-1.538 0.909-2.564 1.415 0.5 2.59 0.935 3.683 1.351s2.104 0.814 3.19 1.255 2.245 0.923 3.63 1.525c-0.435 0.998-0.652 1.499-1.087 2.497-1.36-0.592-2.045-0.881-3.416-1.439-0.601 1.474-1.126 2.764-1.614 3.961s-0.938 2.304-1.389 3.409-0.903 2.212-1.392 3.41-1.014 2.486-1.615 3.96c-1.232-0.5-1.85-0.743-3.092-1.215z" stroke-linecap="round"/>
</g>
		<g transform="translate(66.51,-139.79)">
<path transform="translate(-253.01,-47.21)" d="m245.73 55.744c0.661-1.448 1.238-2.715 1.775-3.891s1.034-2.263 1.53-3.349 0.993-2.172 1.53-3.349 1.115-2.442 1.776-3.89c-1.353-0.617-2.03-0.919-3.394-1.503 0.429-1.001 0.643-1.5 1.071-2.501 1.387 0.594 2.537 1.107 3.606 1.597s2.059 0.956 3.119 1.469 2.194 1.076 3.545 1.772c-0.499 0.968-0.748 1.452-1.247 2.419-1.327-0.685-1.996-1.019-3.336-1.669-0.695 1.432-1.301 2.684-1.866 3.848s-1.087 2.239-1.608 3.313-1.044 2.147-1.609 3.31c-0.565 1.164-1.174 2.417-1.869 3.848-1.204-0.585-1.809-0.869-3.023-1.424z" stroke-linecap="round"/>
</g>
		<g transform="translate(83.43,-131.66)">
<path transform="translate(-269.93,-55.34)" d="m258.21 44.093c0.493-0.971 0.738-1.455 1.231-2.426 1.607 0.817 3.071 1.594 4.438 2.344s2.638 1.473 3.856 2.187 2.387 1.418 3.548 2.14 2.316 1.459 3.505 2.241 2.41 1.609 3.707 2.516 2.669 1.893 4.148 3c-0.651 0.873-0.979 1.31-1.63 2.182-1.226-0.917-1.842-1.368-3.084-2.25-0.921 1.298-1.725 2.435-2.473 3.49s-1.438 2.029-2.129 3.003-1.383 1.947-2.131 3.002-1.552 2.19-2.473 3.488c-1.114-0.792-1.676-1.179-2.805-1.941 0.908-1.348 1.589-2.358 2.27-3.37s1.361-2.023 2.27-3.371c-1.36-0.918-2.044-1.367-3.424-2.244 0.115-1.252 0.164-1.88 0.258-3.139 0.954 0.593 1.668 1.047 2.377 1.507s1.411 0.923 2.348 1.555c1.116-1.657 1.676-2.484 2.792-4.142-1.085-0.732-1.903-1.27-2.726-1.8s-1.648-1.054-2.756-1.736c-0.874 1.422-1.312 2.134-2.186 3.557-0.547 0.889-1.292 1.469-2.154 1.785-0.865 0.317-1.665 0.301-2.383-0.121-0.308-0.181-0.535-0.331-0.674-0.437-0.165-0.127-0.264-0.226-0.29-0.298 0.271 1.8 0.443 3.146 0.604 4.49s0.307 2.687 0.467 4.47c-1.316-0.088-1.972-0.124-3.276-0.177-0.143-1.513-0.289-2.839-0.439-4.073s-0.305-2.378-0.472-3.521-0.347-2.287-0.558-3.529-0.452-2.581-0.755-4.114c1.429-0.034 2.148-0.042 3.592-0.039 0.133 1.232 0.305 2.125 0.437 2.624 0.17 0.641 0.368 1.104 0.685 1.285 0.396 0.225 0.812 0.289 1.229 0.23 0.402-0.057 0.713-0.232 0.9-0.555 0.817-1.404 1.228-2.106 2.045-3.511-1.559-0.908-2.738-1.565-3.922-2.21s-2.37-1.281-3.967-2.092z" stroke-linecap="round"/>
</g>
		<g transform="translate(102.44,-118.29)">
<path transform="translate(-288.94,-68.71)" d="m280.24 57.704c0.646-0.876 0.969-1.315 1.614-2.192 1.525 1.126 2.884 2.17 4.141 3.164s2.41 1.937 3.527 2.872 2.195 1.863 3.293 2.833c1.098 0.971 2.213 1.984 3.401 3.097s2.451 2.328 3.832 3.709c-0.77 0.77-1.153 1.154-1.923 1.924-1.113-1.114-1.677-1.662-2.811-2.742-1.097 1.153-2.057 2.161-2.947 3.098s-1.714 1.802-2.536 2.667-1.646 1.729-2.537 2.666-1.85 1.946-2.946 3.099c-1.019-0.97-1.533-1.448-2.569-2.388 1.275-1.409 2.235-2.464 3.191-3.521s1.911-2.114 3.187-3.523c-0.912-0.827-1.603-1.438-2.297-2.042s-1.393-1.202-2.33-1.985c-0.237-0.198-0.5-0.268-0.734-0.271-0.243-3e-3 -0.472 0.062-0.629 0.254-0.473 0.576-0.708 0.864-1.181 1.439-0.206 0.251-0.49 0.403-0.825 0.434-0.317 0.029-0.616-0.071-0.872-0.279-0.676-0.547-1.108-1.769-1.35-3.684-0.236-1.875-0.113-3.177 0.424-3.893 0.209-0.278 0.53-0.424 0.968-0.436 0.398-0.011 0.78 0.123 1.154 0.411 1.305 1.004 2.382 1.864 3.38 2.677s1.917 1.582 2.899 2.423 2.026 1.755 3.266 2.878c0.97-1.072 1.456-1.607 2.426-2.679-1.183-1.072-2.228-1.99-3.206-2.83s-1.887-1.603-2.804-2.354-1.841-1.49-2.848-2.276-2.098-1.62-3.358-2.55z" stroke-linecap="round"/>
</g>

</g>
</svg>
