<?xml version="1.0" encoding="utf-8"?>
<!-- Generator: Adobe Illustrator 15.0.3, SVG Export Plug-In . SVG Version: 6.00 Build 0)  -->
<!DOCTYPE svg PUBLIC "-//W3C//DTD SVG 1.1//EN" "http://www.w3.org/Graphics/SVG/1.1/DTD/svg11.dtd">
<svg xmlns="http://www.w3.org/2000/svg" xmlns:xlink="http://www.w3.org/1999/xlink" version="1.1" id="Ebene_1" x="0px" y="0px" width="457px" height="473px" viewBox="0 0 457 473" enable-background="new 0 0 457 473" xml:space="preserve">
<g>
	<polygon fill="#FFFFFF" points="416.898,163.98 418.578,166.62 419.299,167.34 419.299,168.541 417.859,171.421 410.178,172.861    408.497,172.621 408.978,175.741 408.978,178.862 409.698,178.862 410.418,179.342 410.898,181.502 409.698,181.982    405.377,184.382 404.178,185.342 400.576,187.263 399.616,189.183 399.616,192.783 401.297,199.264 402.737,205.504    404.897,210.545 402.737,212.225 396.977,214.865 397.217,217.506 397.696,218.706 399.137,219.186 400.816,222.066    405.857,228.067 406.817,228.547 407.777,231.427 412.099,237.908 414.738,236.468 416.179,236.708 423.619,239.828 425.3,240.788    425.78,242.229 426.26,244.148 428.42,245.588 430.82,246.309 434.421,244.628 436.821,244.148 438.981,244.628 441.382,246.309    444.502,250.148 443.781,250.869 439.701,252.549 437.062,253.029 439.222,256.63 443.062,267.189 445.462,272.23 441.382,275.352    434.901,279.191 429.86,283.032 430.101,284.232 430.101,287.354 428.42,288.073 427.22,289.514 429.381,294.554 430.82,295.514    435.381,292.873 441.142,290.232 443.302,290.475 444.263,292.152 441.862,294.794 438.502,297.914 439.941,299.354    441.382,302.715 439.701,306.555 436.341,309.195 437.781,311.835 436.102,314.956 430.82,319.518 429.619,322.637 425.06,327.438    420.02,330.316 414.979,333.197 411.138,335.838 405.616,339.438 401.297,342.559 400.337,345.919 398.656,349.039    391.216,353.359 390.016,355.279 390.495,356.96 391.216,359.602 390.016,360.08 385.454,366.801 381.854,371.842 379.694,374.962    375.854,380.242 373.934,385.283 375.373,387.684 378.493,389.604 376.573,391.764 371.532,393.204 369.133,396.564    372.733,399.925 375.373,398.725 379.453,402.564 384.735,409.285 384.735,411.445 380.654,415.286 380.895,416.246    381.373,418.646 379.694,420.087 377.294,417.927 374.413,416.486 369.372,419.848 359.771,427.047 356.892,430.168    354.731,431.607 353.29,434.968 353.051,438.328 352.33,439.769 349.449,441.688 346.09,444.569 343.449,446.729 340.569,448.89    335.529,452.49 332.648,454.17 328.088,454.17 325.928,455.13 318.967,459.69 313.687,463.291 308.646,462.331 306.485,461.851    305.284,463.771 298.323,464.251 289.684,463.771 283.202,463.051 281.042,461.851 280.562,461.611 278.162,459.69    274.081,455.851 273.361,454.41 268.561,452.25 249.358,443.369 222.715,428.487 203.513,417.206 197.512,413.126 194.151,410.484    191.271,406.165 187.19,400.645 187.19,396.805 185.75,396.564 181.43,396.324 179.99,393.443 178.31,392.725 174.949,392.964    172.789,393.924 168.228,393.684 165.108,394.884 161.027,394.884 159.587,395.604 152.866,397.044 150.946,397.766    148.786,398.725 146.625,399.686 146.386,397.284 146.386,396.564 145.905,395.364 144.945,392.482 144.225,390.084    142.305,384.083 139.905,384.562 137.504,385.764 136.304,386.482 135.344,383.843 134.384,378.562 131.504,368.961    131.744,366.081 132.464,363.921 130.784,362.961 125.263,365.841 118.782,368.241 114.702,369.441 111.341,369.682    109.901,368.723 111.101,355.52 111.821,349.279 114.222,346.159 111.101,344.719 110.141,341.357 113.262,335.838    113.742,331.997 112.301,331.997 110.861,331.758 110.621,325.997 110.861,323.598 109.661,323.116 103.66,321.916 98.86,321.438    94.059,320.477 88.298,319.518 84.698,318.557 83.738,317.355 84.458,307.995 83.978,305.114 83.738,303.193 87.338,300.555    88.298,298.634 85.898,293.594 83.018,288.793 83.258,286.633 87.578,285.191 89.499,283.032 88.539,280.393 88.059,275.111    88.059,268.391 88.778,262.87 89.739,260.23 89.019,258.79 85.178,259.75 81.098,252.309 78.697,247.989 73.896,244.389    71.736,241.268 70.536,240.788 67.416,241.268 63.575,236.948 59.255,232.627 56.375,227.106 53.014,221.346 50.614,215.826    48.454,213.425 46.533,209.825 42.933,203.824 41.732,199.504 40.052,195.903 37.412,194.223 31.651,197.583 27.091,199.024    25.411,199.744 23.25,199.984 20.13,196.863 14.849,191.823 13.649,190.143 14.369,188.943 19.65,184.622 21.09,182.462    20.37,178.622 18.45,174.541 17.97,171.421 20.61,170.941 22.29,168.061 23.49,165.18 25.17,156.06 23.01,151.259 19.89,150.299    18.93,144.538 24.451,139.498 28.051,135.897 31.411,133.497 34.052,132.537 39.572,127.256 45.813,123.416 50.854,120.536    53.494,119.335 55.895,118.375 58.775,118.375 65.496,120.536 68.376,118.615 68.856,116.695 71.256,114.775 75.097,114.295    77.977,109.495 82.058,109.734 82.538,112.375 88.539,115.495 94.299,116.215 101.02,115.975 106.781,111.895 112.062,110.455    116.622,107.814 121.183,106.134 126.703,103.494 130.784,103.014 136.304,103.254 136.784,99.894 136.544,97.253 137.745,94.373    139.185,92.933 141.825,89.092 142.065,85.972 140.145,83.092 137.745,80.211 137.265,79.011 139.665,76.851 142.545,76.851    145.905,76.851 148.066,76.131 149.746,74.691 153.346,69.891 156.227,66.05 158.627,65.33 159.107,63.65 159.587,61.729    159.587,59.329 159.827,56.689 160.067,55.009 157.187,47.808 158.867,47.568 160.307,46.848 163.428,46.128 166.308,44.688    170.389,43.728 174.229,42.288 180.229,39.887 180.229,37.727 180.47,35.327 182.15,34.127 183.59,32.446 185.03,30.526    188.151,29.086 192.951,25.486 195.111,24.286 198.712,21.646 201.353,20.686 203.993,19.245 206.393,18.045 210.233,16.845    213.114,18.285 214.314,17.565 215.274,16.605 218.395,14.445 220.795,13.245 221.035,15.645 223.195,22.125 227.996,28.366    231.356,30.526 234.716,32.207 238.797,32.687 241.197,33.407 243.838,34.607 245.518,34.847 249.838,35.567 253.198,36.527    257.759,44.688 261.6,54.289 268.32,72.531 269.521,73.251 271.441,73.011 274.081,72.531 276.962,71.09 278.162,70.61    279.842,71.09 279.362,73.491 277.922,75.891 276.481,77.571 275.521,81.651 272.881,81.892 267.601,81.651 265.44,82.612    262.8,82.612 262.32,83.332 261.359,84.052 260.64,84.292 259.439,85.972 257.999,87.892 256.319,88.853 254.639,90.292    253.438,91.973 252.479,93.413 251.278,97.973 253.438,101.094 254.159,100.614 257.279,100.134 260.399,99.894 264.96,100.134    268.561,99.894 272.881,100.134 273.841,102.294 276.241,105.414 277.682,107.094 284.643,103.494 288.723,101.813    290.884,101.574 294.724,102.294 297.124,102.294 298.564,101.813 298.084,99.894 297.124,97.013 300.484,95.813 304.565,94.133    304.805,89.572 306.005,88.372 307.445,87.892 310.086,85.972 313.205,84.532 314.887,82.372 315.606,81.651 318.727,82.132    320.166,82.132 320.887,80.932 323.047,81.651 324.968,80.452 326.168,78.531 328.808,77.811 330.488,76.131 331.688,74.451    332.407,73.491 335.529,73.491 340.09,73.731 342.01,73.491 346.329,73.491 349.69,72.291 351.37,73.971 352.811,76.611    354.731,79.251 355.45,83.572 357.132,86.212 358.331,86.212 360.972,86.452 362.652,86.452 363.612,88.853 364.812,91.013    364.331,94.133 363.853,96.533 363.132,97.013 360.972,98.934 359.771,99.653 358.812,100.854 357.611,101.574 356.651,102.294    354.251,103.254 352.33,104.694 350.171,106.374 348.011,107.814 345.85,108.774 343.93,110.214 340.81,111.415 338.649,112.135    335.529,112.855 332.648,115.495 324.008,116.695 317.285,121.976 318.486,123.896 320.887,129.417 324.008,135.417    326.647,140.218 330.729,145.979 334.809,151.019 337.929,155.339 342.729,161.1 343.21,163.74 343.93,163.5 346.329,163.26    348.25,163.5 353.051,165.18 354.251,164.94 355.932,162.78 357.852,162.06 358.812,159.42 358.812,157.979 358.331,155.819    358.092,152.939 357.37,150.539 357.132,149.339 355.691,147.418 356.172,140.218 360.252,139.498 362.411,137.817    365.531,137.337 370.093,136.377 373.693,135.897 377.533,134.217 380.895,133.737 383.295,130.137 388.335,134.217    397.217,145.018 406.098,152.699 410.178,157.739 411.858,159.66 416.179,163.5  "/>
	
		<polygon fill="none" stroke="#6E6E6E" stroke-width="0.4801" stroke-linecap="round" stroke-linejoin="round" stroke-miterlimit="10" points="   416.898,163.98 418.578,166.62 419.299,167.34 419.299,168.541 417.859,171.421 410.178,172.861 408.497,172.621 408.978,175.741    408.978,178.862 409.698,178.862 410.418,179.342 410.898,181.502 409.698,181.982 405.377,184.382 404.178,185.342    400.576,187.263 399.616,189.183 399.616,192.783 401.297,199.264 402.737,205.504 404.897,210.545 402.737,212.225    396.977,214.865 397.217,217.506 397.696,218.706 399.137,219.186 400.816,222.066 405.857,228.067 406.817,228.547    407.777,231.427 412.099,237.908 414.738,236.468 416.179,236.708 423.619,239.828 425.3,240.788 425.78,242.229 426.26,244.148    428.42,245.588 430.82,246.309 434.421,244.628 436.821,244.148 438.981,244.628 441.382,246.309 444.502,250.148 443.781,250.869    439.701,252.549 437.062,253.029 439.222,256.63 443.062,267.189 445.462,272.23 441.382,275.352 434.901,279.191 429.86,283.032    430.101,284.232 430.101,287.354 428.42,288.073 427.22,289.514 429.381,294.554 430.82,295.514 435.381,292.873 441.142,290.232    443.302,290.475 444.263,292.152 441.862,294.794 438.502,297.914 439.941,299.354 441.382,302.715 439.701,306.555    436.341,309.195 437.781,311.835 436.102,314.956 430.82,319.518 429.619,322.637 425.06,327.438 420.02,330.316 414.979,333.197    411.138,335.838 405.616,339.438 401.297,342.559 400.337,345.919 398.656,349.039 391.216,353.359 390.016,355.279    390.495,356.96 391.216,359.602 390.016,360.08 385.454,366.801 381.854,371.842 379.694,374.962 375.854,380.242 373.934,385.283    375.373,387.684 378.493,389.604 376.573,391.764 371.532,393.204 369.133,396.564 372.733,399.925 375.373,398.725    379.453,402.564 384.735,409.285 384.735,411.445 380.654,415.286 380.895,416.246 381.373,418.646 379.694,420.087    377.294,417.927 374.413,416.486 369.372,419.848 359.771,427.047 356.892,430.168 354.731,431.607 353.29,434.968    353.051,438.328 352.33,439.769 349.449,441.688 346.09,444.569 343.449,446.729 340.569,448.89 335.529,452.49 332.648,454.17    328.088,454.17 325.928,455.13 318.967,459.69 313.687,463.291 308.646,462.331 306.485,461.851 305.284,463.771 298.323,464.251    289.684,463.771 283.202,463.051 281.042,461.851 280.562,461.611 278.162,459.69 274.081,455.851 273.361,454.41 268.561,452.25    249.358,443.369 222.715,428.487 203.513,417.206 197.512,413.126 194.151,410.484 191.271,406.165 187.19,400.645 187.19,396.805    185.75,396.564 181.43,396.324 179.99,393.443 178.31,392.725 174.949,392.964 172.789,393.924 168.228,393.684 165.108,394.884    161.027,394.884 159.587,395.604 152.866,397.044 150.946,397.766 148.786,398.725 146.625,399.686 146.386,397.284    146.386,396.564 145.905,395.364 144.945,392.482 144.225,390.084 142.305,384.083 139.905,384.562 137.504,385.764    136.304,386.482 135.344,383.843 134.384,378.562 131.504,368.961 131.744,366.081 132.464,363.921 130.784,362.961    125.263,365.841 118.782,368.241 114.702,369.441 111.341,369.682 109.901,368.723 111.101,355.52 111.821,349.279    114.222,346.159 111.101,344.719 110.141,341.357 113.262,335.838 113.742,331.997 112.301,331.997 110.861,331.758    110.621,325.997 110.861,323.598 109.661,323.116 103.66,321.916 98.86,321.438 94.059,320.477 88.298,319.518 84.698,318.557    83.738,317.355 84.458,307.995 83.978,305.114 83.738,303.193 87.338,300.555 88.298,298.634 85.898,293.594 83.018,288.793    83.258,286.633 87.578,285.191 89.499,283.032 88.539,280.393 88.059,275.111 88.059,268.391 88.778,262.87 89.739,260.23    89.019,258.79 85.178,259.75 81.098,252.309 78.697,247.989 73.896,244.389 71.736,241.268 70.536,240.788 67.416,241.268    63.575,236.948 59.255,232.627 56.375,227.106 53.014,221.346 50.614,215.826 48.454,213.425 46.533,209.825 42.933,203.824    41.732,199.504 40.052,195.903 37.412,194.223 31.651,197.583 27.091,199.024 25.411,199.744 23.25,199.984 20.13,196.863    14.849,191.823 13.649,190.143 14.369,188.943 19.65,184.622 21.09,182.462 20.37,178.622 18.45,174.541 17.97,171.421    20.61,170.941 22.29,168.061 23.49,165.18 25.17,156.06 23.01,151.259 19.89,150.299 18.93,144.538 24.451,139.498 28.051,135.897    31.411,133.497 34.052,132.537 39.572,127.256 45.813,123.416 50.854,120.536 53.494,119.335 55.895,118.375 58.775,118.375    65.496,120.536 68.376,118.615 68.856,116.695 71.256,114.775 75.097,114.295 77.977,109.495 82.058,109.734 82.538,112.375    88.539,115.495 94.299,116.215 101.02,115.975 106.781,111.895 112.062,110.455 116.622,107.814 121.183,106.134 126.703,103.494    130.784,103.014 136.304,103.254 136.784,99.894 136.544,97.253 137.745,94.373 139.185,92.933 141.825,89.092 142.065,85.972    140.145,83.092 137.745,80.211 137.265,79.011 139.665,76.851 142.545,76.851 145.905,76.851 148.066,76.131 149.746,74.691    153.346,69.891 156.227,66.05 158.627,65.33 159.107,63.65 159.587,61.729 159.587,59.329 159.827,56.689 160.067,55.009    157.187,47.808 158.867,47.568 160.307,46.848 163.428,46.128 166.308,44.688 170.389,43.728 174.229,42.288 180.229,39.887    180.229,37.727 180.47,35.327 182.15,34.127 183.59,32.446 185.03,30.526 188.151,29.086 192.951,25.486 195.111,24.286    198.712,21.646 201.353,20.686 203.993,19.245 206.393,18.045 210.233,16.845 213.114,18.285 214.314,17.565 215.274,16.605    218.395,14.445 220.795,13.245 221.035,15.645 223.195,22.125 227.996,28.366 231.356,30.526 234.716,32.207 238.797,32.687    241.197,33.407 243.838,34.607 245.518,34.847 249.838,35.567 253.198,36.527 257.759,44.688 261.6,54.289 268.32,72.531    269.521,73.251 271.441,73.011 274.081,72.531 276.962,71.09 278.162,70.61 279.842,71.09 279.362,73.491 277.922,75.891    276.481,77.571 275.521,81.651 272.881,81.892 267.601,81.651 265.44,82.612 262.8,82.612 262.32,83.332 261.359,84.052    260.64,84.292 259.439,85.972 257.999,87.892 256.319,88.853 254.639,90.292 253.438,91.973 252.479,93.413 251.278,97.973    253.438,101.094 254.159,100.614 257.279,100.134 260.399,99.894 264.96,100.134 268.561,99.894 272.881,100.134 273.841,102.294    276.241,105.414 277.682,107.094 284.643,103.494 288.723,101.813 290.884,101.574 294.724,102.294 297.124,102.294    298.564,101.813 298.084,99.894 297.124,97.013 300.484,95.813 304.565,94.133 304.805,89.572 306.005,88.372 307.445,87.892    310.086,85.972 313.205,84.532 314.887,82.372 315.606,81.651 318.727,82.132 320.166,82.132 320.887,80.932 323.047,81.651    324.968,80.452 326.168,78.531 328.808,77.811 330.488,76.131 331.688,74.451 332.407,73.491 335.529,73.491 340.09,73.731    342.01,73.491 346.329,73.491 349.69,72.291 351.37,73.971 352.811,76.611 354.731,79.251 355.45,83.572 357.132,86.212    358.331,86.212 360.972,86.452 362.652,86.452 363.612,88.853 364.812,91.013 364.331,94.133 363.853,96.533 363.132,97.013    360.972,98.934 359.771,99.653 358.812,100.854 357.611,101.574 356.651,102.294 354.251,103.254 352.33,104.694 350.171,106.374    348.011,107.814 345.85,108.774 343.93,110.214 340.81,111.415 338.649,112.135 335.529,112.855 332.648,115.495 324.008,116.695    317.285,121.976 318.486,123.896 320.887,129.417 324.008,135.417 326.647,140.218 330.729,145.979 334.809,151.019    337.929,155.339 342.729,161.1 343.21,163.74 343.93,163.5 346.329,163.26 348.25,163.5 353.051,165.18 354.251,164.94    355.932,162.78 357.852,162.06 358.812,159.42 358.812,157.979 358.331,155.819 358.092,152.939 357.37,150.539 357.132,149.339    355.691,147.418 356.172,140.218 360.252,139.498 362.411,137.817 365.531,137.337 370.093,136.377 373.693,135.897    377.533,134.217 380.895,133.737 383.295,130.137 388.335,134.217 397.217,145.018 406.098,152.699 410.178,157.739    411.858,159.66 416.179,163.5  "/>
</g>
<g>
	
		<polyline fill="none" stroke="#005CE6" stroke-width="0.9601" stroke-linecap="round" stroke-linejoin="round" stroke-miterlimit="10" points="   416.898,163.98 418.578,166.62 419.299,167.34 419.299,168.541 417.859,171.421 410.178,172.861 408.497,172.621 408.978,175.741    408.978,178.862 409.698,178.862 410.418,179.342 410.898,181.502 409.698,181.982 405.377,184.382 404.178,185.342    400.576,187.263 399.616,189.183 399.616,192.783 401.297,199.264 402.737,205.504 404.897,210.545 402.737,212.225    396.977,214.865 397.217,217.506 397.696,218.706 399.137,219.186 400.816,222.066 405.857,228.067 406.817,228.547    407.777,231.427 412.099,237.908 414.738,236.468 416.179,236.708 423.619,239.828 425.3,240.788 425.78,242.229 426.26,244.148    428.42,245.588 430.82,246.309 434.421,244.628 436.821,244.148 438.981,244.628 441.382,246.309 444.502,250.148 443.781,250.869    439.701,252.549 437.062,253.029 439.222,256.63 443.062,267.189 445.462,272.23 441.382,275.352 434.901,279.191 429.86,283.032    430.101,284.232 430.101,287.354 428.42,288.073 427.22,289.514 429.381,294.554 430.82,295.514 435.381,292.873 441.142,290.232    443.302,290.475 444.263,292.152 441.862,294.794 438.502,297.914 439.941,299.354 441.382,302.715 439.701,306.555    436.341,309.195 437.781,311.835 436.102,314.956 430.82,319.518 429.619,322.637 425.06,327.438 420.02,330.316 414.979,333.197    411.138,335.838 405.616,339.438 401.297,342.559 400.337,345.919 398.656,349.039 391.216,353.359 390.016,355.279    390.495,356.96 391.216,359.602 390.016,360.08 385.454,366.801 381.854,371.842 379.694,374.962 375.854,380.242 373.934,385.283    375.373,387.684 378.493,389.604 376.573,391.764 371.532,393.204 369.133,396.564 372.733,399.925 375.373,398.725    379.453,402.564 384.735,409.285 384.735,411.445 380.654,415.286 380.895,416.246 381.373,418.646 379.694,420.087    377.294,417.927 374.413,416.486 369.372,419.848 359.771,427.047 356.892,430.168 354.731,431.607 353.29,434.968    353.051,438.328 352.33,439.769 349.449,441.688 346.09,444.569 343.449,446.729 340.569,448.89 335.529,452.49 332.648,454.17    328.088,454.17 325.928,455.13 318.967,459.69 313.687,463.291 308.646,462.331 306.485,461.851 305.284,463.771 298.323,464.251    289.684,463.771 283.202,463.051 281.042,461.851 280.562,461.611 278.162,459.69 274.081,455.851 273.361,454.41 268.561,452.25    249.358,443.369 222.715,428.487 203.513,417.206 197.512,413.126 194.151,410.484 191.271,406.165 187.19,400.645 187.19,396.805    185.75,396.564 181.43,396.324 179.99,393.443 178.31,392.725 174.949,392.964 172.789,393.924 168.228,393.684 165.108,394.884    161.027,394.884 159.587,395.604 152.866,397.044 150.946,397.766 148.786,398.725 146.625,399.686 146.386,397.284    146.386,396.564 145.905,395.364 144.945,392.482 144.225,390.084 142.305,384.083 139.905,384.562 137.504,385.764    136.304,386.482 135.344,383.843 134.384,378.562 131.504,368.961 131.744,366.081 132.464,363.921 130.784,362.961    125.263,365.841 118.782,368.241 114.702,369.441 111.341,369.682 109.901,368.723 111.101,355.52 111.821,349.279    114.222,346.159 111.101,344.719 110.141,341.357 113.262,335.838 113.742,331.997 112.301,331.997 110.861,331.758    110.621,325.997 110.861,323.598 109.661,323.116 103.66,321.916 98.86,321.438 94.059,320.477 88.298,319.518 84.698,318.557    83.738,317.355 84.458,307.995 83.978,305.114 83.738,303.193 87.338,300.555 88.298,298.634 85.898,293.594 83.018,288.793    83.258,286.633 87.578,285.191 89.499,283.032 88.539,280.393 88.059,275.111 88.059,268.391 88.778,262.87 89.739,260.23    89.019,258.79 85.178,259.75 81.098,252.309 78.697,247.989 73.896,244.389 71.736,241.268 70.536,240.788 67.416,241.268    63.575,236.948 59.255,232.627 56.375,227.106 53.014,221.346 50.614,215.826 48.454,213.425 46.533,209.825 42.933,203.824    41.732,199.504 40.052,195.903 37.412,194.223 31.651,197.583 27.091,199.024 25.411,199.744 23.25,199.984 20.13,196.863    14.849,191.823 13.649,190.143 14.369,188.943 19.65,184.622 21.09,182.462 20.37,178.622 18.45,174.541 17.97,171.421    20.61,170.941 22.29,168.061 23.49,165.18 25.17,156.06 23.01,151.259 19.89,150.299 18.93,144.538 24.451,139.498 28.051,135.897    31.411,133.497 34.052,132.537 39.572,127.256 45.813,123.416 50.854,120.536 53.494,119.335 55.895,118.375 58.775,118.375    65.496,120.536 68.376,118.615 68.856,116.695 71.256,114.775 75.097,114.295 77.977,109.495 82.058,109.734 82.538,112.375    88.539,115.495 94.299,116.215 101.02,115.975 106.781,111.895 112.062,110.455 116.622,107.814 121.183,106.134 126.703,103.494    130.784,103.014 136.304,103.254 136.784,99.894 136.544,97.253 137.745,94.373 139.185,92.933 141.825,89.092 142.065,85.972    140.145,83.092 137.745,80.211 137.265,79.011 139.665,76.851 142.545,76.851 145.905,76.851 148.066,76.131 149.746,74.691    153.346,69.891 156.227,66.05 158.627,65.33 159.107,63.65 159.587,61.729 159.587,59.329 159.827,56.689 160.067,55.009    157.187,47.808 158.867,47.568 160.307,46.848 163.428,46.128 166.308,44.688 170.389,43.728 174.229,42.288 180.229,39.887    180.229,37.727 180.47,35.327 182.15,34.127 183.59,32.446 185.03,30.526 188.151,29.086 192.951,25.486 195.111,24.286    198.712,21.646 201.353,20.686 203.993,19.245 206.393,18.045 210.233,16.845 213.114,18.285 214.314,17.565 215.274,16.605    218.395,14.445 220.795,13.245 221.035,15.645 223.195,22.125 227.996,28.366 231.356,30.526 234.716,32.207 238.797,32.687    241.197,33.407 243.838,34.607 245.518,34.847 249.838,35.567 253.198,36.527 257.759,44.688 261.6,54.289 268.32,72.531    269.521,73.251 271.441,73.011 274.081,72.531 276.962,71.09 278.162,70.61 279.842,71.09 279.362,73.491 277.922,75.891    276.481,77.571 275.521,81.651 272.881,81.892 267.601,81.651 265.44,82.612 262.8,82.612 262.32,83.332 261.359,84.052    260.64,84.292 259.439,85.972 257.999,87.892 256.319,88.853 254.639,90.292 253.438,91.973 252.479,93.413 251.278,97.973    253.438,101.094 254.159,100.614 257.279,100.134 260.399,99.894 264.96,100.134 268.561,99.894 272.881,100.134 273.841,102.294    276.241,105.414 277.682,107.094 284.643,103.494 288.723,101.813 290.884,101.574 294.724,102.294 297.124,102.294    298.564,101.813 298.084,99.894 297.124,97.013 300.484,95.813 304.565,94.133 304.805,89.572 306.005,88.372 307.445,87.892    310.086,85.972 313.205,84.532 314.887,82.372 315.606,81.651 318.727,82.132 320.166,82.132 320.887,80.932 323.047,81.651    324.968,80.452 326.168,78.531 328.808,77.811 330.488,76.131 331.688,74.451 332.407,73.491 335.529,73.491 340.09,73.731    342.01,73.491 346.329,73.491 349.69,72.291 351.37,73.971 352.811,76.611 354.731,79.251 355.45,83.572 357.132,86.212    358.331,86.212 360.972,86.452 362.652,86.452 363.612,88.853 364.812,91.013 364.331,94.133 363.853,96.533 363.132,97.013    360.972,98.934 359.771,99.653 358.812,100.854 357.611,101.574 356.651,102.294 354.251,103.254 352.33,104.694 350.171,106.374    348.011,107.814 345.85,108.774 343.93,110.214 340.81,111.415 338.649,112.135 335.529,112.855 332.648,115.495 324.008,116.695    317.285,121.976 318.486,123.896 320.887,129.417 324.008,135.417 326.647,140.218 330.729,145.979 334.809,151.019    337.929,155.339 342.729,161.1 343.21,163.74 343.93,163.5 346.329,163.26 348.25,163.5 353.051,165.18 354.251,164.94    355.932,162.78 357.852,162.06 358.812,159.42 358.812,157.979 358.331,155.819 358.092,152.939 357.37,150.539 357.132,149.339    355.691,147.418 356.172,140.218 360.252,139.498 362.411,137.817 365.531,137.337 370.093,136.377 373.693,135.897    377.533,134.217 380.895,133.737 383.295,130.137 388.335,134.217 397.217,145.018 406.098,152.699 410.178,157.739    411.858,159.66 416.179,163.5 416.898,163.98  "/>
</g>
<g>
	
		<polyline fill="none" stroke="#A80000" stroke-width="1.2002" stroke-linecap="round" stroke-linejoin="round" stroke-miterlimit="10" points="   221.035,15.645 223.195,22.125 227.996,28.366 231.356,30.526 234.716,32.207 238.797,32.687 241.197,33.407 243.838,34.607    245.518,34.847 249.838,35.567 253.198,36.527 257.759,44.688 261.6,54.289 268.32,72.531 269.521,73.251 271.441,73.011    274.081,72.531 276.962,71.09 278.162,70.61 279.842,71.09 279.362,73.491 277.922,75.891 276.481,77.571 275.521,81.651    272.881,81.892 267.601,81.651 265.44,82.612 262.8,82.612 262.32,83.332 261.359,84.052 260.64,84.292 259.439,85.972    257.999,87.892 256.319,88.853 254.639,90.292 253.438,91.973 252.479,93.413 251.278,97.973 253.438,101.094 254.159,100.614    257.279,100.134 260.399,99.894 264.96,100.134 268.561,99.894 272.881,100.134 273.841,102.294 276.241,105.414 277.682,107.094    284.643,103.494 288.723,101.813 290.884,101.574 294.724,102.294 297.124,102.294 298.564,101.813 298.084,99.894 297.124,97.013    300.484,95.813 304.565,94.133 304.805,89.572 306.005,88.372 307.445,87.892 310.086,85.972 313.205,84.532 314.887,82.372    315.606,81.651 318.727,82.132 320.166,82.132 320.887,80.932 323.047,81.651 324.968,80.452 326.168,78.531 328.808,77.811    330.488,76.131 331.688,74.451 332.407,73.491 335.529,73.491 340.09,73.731 342.01,73.491 346.329,73.491 349.69,72.291    351.37,73.971 352.811,76.611 354.731,79.251 355.45,83.572 357.132,86.212 358.331,86.212 360.972,86.452 362.652,86.452    363.612,88.853 364.812,91.013 364.331,94.133 363.853,96.533 363.132,97.013 360.972,98.934 359.771,99.653 358.812,100.854    357.611,101.574 356.651,102.294 354.251,103.254 352.33,104.694 350.171,106.374 348.011,107.814 345.85,108.774 343.93,110.214    340.81,111.415 338.649,112.135 335.529,112.855 332.648,115.495 324.008,116.695 317.285,121.976 318.486,123.896    320.887,129.417 324.008,135.417 326.647,140.218 330.729,145.979 334.809,151.019 337.929,155.339 342.729,161.1 343.21,163.74    343.93,163.5 346.329,163.26 348.25,163.5 353.051,165.18 354.251,164.94 355.932,162.78 357.852,162.06 358.812,159.42    358.812,157.979 358.331,155.819 358.092,152.939 357.37,150.539 357.132,149.339 355.691,147.418 356.172,140.218    360.252,139.498 362.411,137.817 365.531,137.337 370.093,136.377 373.693,135.897 377.533,134.217 380.895,133.737    383.295,130.137 388.335,134.217 397.217,145.018 406.098,152.699 410.178,157.739 411.858,159.66 416.179,163.5 416.898,163.98    418.578,166.62 419.299,167.34 419.299,168.541 417.859,171.421 410.178,172.861 408.497,172.621 408.978,175.741 408.978,178.862    409.698,178.862 410.418,179.342 410.898,181.502 409.698,181.982 405.377,184.382 404.178,185.342 400.576,187.263    399.616,189.183 399.616,192.783 401.297,199.264 402.737,205.504 404.897,210.545 402.737,212.225 396.977,214.865    397.217,217.506 397.696,218.706 399.137,219.186 400.816,222.066 405.857,228.067 406.817,228.547 407.777,231.427    412.099,237.908 414.738,236.468 416.179,236.708 423.619,239.828 425.3,240.788 425.78,242.229 426.26,244.148 428.42,245.588    430.82,246.309 434.421,244.628 436.821,244.148 438.981,244.628 441.382,246.309 444.502,250.148 443.781,250.869    439.701,252.549 437.062,253.029 439.222,256.63 443.062,267.189 445.462,272.23 441.382,275.352 434.901,279.191 429.86,283.032    430.101,284.232 430.101,287.354 428.42,288.073 427.22,289.514 429.381,294.554 430.82,295.514 435.381,292.873 441.142,290.232    443.302,290.475 444.263,292.152 441.862,294.794 438.502,297.914 439.941,299.354 441.382,302.715 439.701,306.555    436.341,309.195 437.781,311.835 436.102,314.956 430.82,319.518 429.619,322.637 425.06,327.438 420.02,330.316 414.979,333.197    411.138,335.838 405.616,339.438 401.297,342.559 400.337,345.919 398.656,349.039 391.216,353.359 390.016,355.279    390.495,356.96 391.216,359.602 390.016,360.08 385.454,366.801 381.854,371.842 379.694,374.962 375.854,380.242 373.934,385.283    375.373,387.684 378.493,389.604 376.573,391.764 371.532,393.204 369.133,396.564 372.733,399.925 375.373,398.725    379.453,402.564 384.735,409.285 384.735,411.445 380.654,415.286 380.895,416.246 381.373,418.646 379.694,420.087    377.294,417.927 374.413,416.486 369.372,419.848 359.771,427.047 356.892,430.168 354.731,431.607 353.29,434.968    353.051,438.328 352.33,439.769 349.449,441.688 346.09,444.569 343.449,446.729 340.569,448.89 335.529,452.49 332.648,454.17    328.088,454.17 325.928,455.13 318.967,459.69 313.687,463.291 308.646,462.331 306.485,461.851 305.284,463.771 298.323,464.251    289.684,463.771 283.202,463.051 281.042,461.851 280.562,461.611 278.162,459.69 274.081,455.851 273.361,454.41 268.561,452.25    249.358,443.369 222.715,428.487 203.513,417.206 197.512,413.126 194.151,410.484 191.271,406.165 187.19,400.645 187.19,396.805    185.75,396.564 181.43,396.324 179.99,393.443 178.31,392.725 174.949,392.964 172.789,393.924 168.228,393.684 165.108,394.884    161.027,394.884 159.587,395.604 152.866,397.044 150.946,397.766 148.786,398.725 146.625,399.686 146.386,397.284    146.386,396.564 145.905,395.364 144.945,392.482 144.225,390.084 142.305,384.083 139.905,384.562 137.504,385.764    136.304,386.482 135.344,383.843 134.384,378.562 131.504,368.961 131.744,366.081 132.464,363.921 130.784,362.961    125.263,365.841 118.782,368.241 114.702,369.441 111.341,369.682 109.901,368.723 111.101,355.52 111.821,349.279    114.222,346.159 111.101,344.719 110.141,341.357 113.262,335.838 113.742,331.997 112.301,331.997 110.861,331.758    110.621,325.997 110.861,323.598 109.661,323.116 103.66,321.916 98.86,321.438 94.059,320.477 88.298,319.518 84.698,318.557    83.738,317.355 84.458,307.995 83.978,305.114 83.738,303.193 87.338,300.555 88.298,298.634 85.898,293.594 83.018,288.793    83.258,286.633 87.578,285.191 89.499,283.032 88.539,280.393 88.059,275.111 88.059,268.391 88.778,262.87 89.739,260.23    89.019,258.79 85.178,259.75 81.098,252.309 78.697,247.989 73.896,244.389 71.736,241.268 70.536,240.788 67.416,241.268    63.575,236.948 59.255,232.627 56.375,227.106 53.014,221.346 50.614,215.826 48.454,213.425 46.533,209.825 42.933,203.824    41.732,199.504 40.052,195.903 37.412,194.223 31.651,197.583 27.091,199.024 25.411,199.744 23.25,199.984 20.13,196.863    14.849,191.823 13.649,190.143 14.369,188.943 19.65,184.622 21.09,182.462 20.37,178.622 18.45,174.541 17.97,171.421    20.61,170.941 22.29,168.061 23.49,165.18 25.17,156.06 23.01,151.259 19.89,150.299 18.93,144.538 24.451,139.498 28.051,135.897    31.411,133.497 34.052,132.537 39.572,127.256 45.813,123.416 50.854,120.536 53.494,119.335 55.895,118.375 58.775,118.375    65.496,120.536 68.376,118.615 68.856,116.695 71.256,114.775 75.097,114.295 77.977,109.495 82.058,109.734 82.538,112.375    88.539,115.495 94.299,116.215 101.02,115.975 106.781,111.895 112.062,110.455 116.622,107.814 121.183,106.134 126.703,103.494    130.784,103.014 136.304,103.254 136.784,99.894 136.544,97.253 137.745,94.373 139.185,92.933 141.825,89.092 142.065,85.972    140.145,83.092 137.745,80.211 137.265,79.011 139.665,76.851 142.545,76.851 145.905,76.851 148.066,76.131 149.746,74.691    153.346,69.891 156.227,66.05 158.627,65.33 159.107,63.65 159.587,61.729 159.587,59.329 159.827,56.689 160.067,55.009    157.187,47.808 158.867,47.568 160.307,46.848 163.428,46.128 166.308,44.688 170.389,43.728 174.229,42.288 180.229,39.887    180.229,37.727 180.47,35.327 182.15,34.127 183.59,32.446 185.03,30.526 188.151,29.086 192.951,25.486 195.111,24.286    198.712,21.646 201.353,20.686 203.993,19.245 206.393,18.045 210.233,16.845 213.114,18.285 214.314,17.565 215.274,16.605    218.395,14.445 220.795,13.245 221.035,15.645  "/>
</g>
<switch><text transform="matrix(1 0 0 1 235.5042 243.9219)" font-family="'ArialMT'" font-size="12" id="trsvg2-mag" systemLanguage="mag"><tspan id="trsvg1-mag">१</tspan></text><text transform="matrix(1 0 0 1 235.5042 243.9219)" font-family="'ArialMT'" font-size="12" id="trsvg2"><tspan id="trsvg1">1</tspan></text></switch>
</svg>
