<?xml version="1.0" encoding="utf-8"?>
<!-- Generator: Adobe Illustrator 15.0.3, SVG Export Plug-In . SVG Version: 6.00 Build 0)  -->
<!DOCTYPE svg PUBLIC "-//W3C//DTD SVG 1.1//EN" "http://www.w3.org/Graphics/SVG/1.1/DTD/svg11.dtd">
<svg xmlns="http://www.w3.org/2000/svg" xmlns:xlink="http://www.w3.org/1999/xlink" version="1.1" id="Ebene_1" x="0px" y="0px" width="538px" height="600px" viewBox="0 0 538 600" enable-background="new 0 0 538 600" xml:space="preserve">
<path fill-rule="evenodd" clip-rule="evenodd" fill="#FFCCAB" d="M134.96,252.303l3.121,0.24h2.16l1.92-0.24l1.68-0.48l0.96-0.24  l1.2-0.24l0.24-0.48l0.24-0.72l0.24-0.24h1.68l3.84,0.72l4.321,0.96h1.68h0.48h0.48h0.24v-0.24l0.96-3.121l1.92-6l0.24-0.96  l0.24-0.24l0.48-0.24l3.84-3.12l0.72-0.72l0.72-1.44l2.64-4.801l1.2-2.88l-4.321-5.761l-2.4-1.68l-2.88-2.64l-2.161-1.68l-1.68-1.2  l-1.2-0.96l-0.96-0.24l-4.32-1.44l-4.321-1.44l-2.4-0.96l-1.92-0.24h-0.96l-1.44,0.72l-2.64,0.96l-4.801,2.16l-6.721,2.641  l-1.2,0.96l-0.72,0.72l-1.44,3.36l-3.601,5.521l-1.44,2.4l-0.24,0.72l-0.48,1.2l-0.24,2.4l0.24,5.041v1.2l-0.24,0.48l0.24,0.72  l0.24,0.72l1.68,1.44l4.081,4.08l3.36,2.641l2.4,1.44l0.96,0.48l1.2,0.48L134.96,252.303z M324.823,15.158l3.841,5.041v0.48  l0.24,1.44l-0.24,4.321l4.801,0.24l1.2,3.84l0.96,1.68l0.24,0.48l0.479,0.72l1.2,1.2l0.48,0.72l0.24,0.72l0.239,0.48v0.24  l-0.239,0.48l-0.24,0.48l-0.24,0.48l-0.72,0.48l-0.24,0.24h-0.24l0.24,1.2l0.479,1.2l0.721,0.96l0.72,0.72l0.72,0.72l0.961,0.48  l0.72,0.48l0.24,0.72v0.72l-0.24,0.48v0.48v0.24l0.48,0.96l0.479,1.2v0.96v0.72l0.24,0.72l-0.24,1.92l1.92,0.24l2.881,1.92  l-0.48,1.44l-0.96,2.4l-1.68,1.68l-0.96,0.96l-0.24,0.96l-0.96,1.44l-0.721,2.4l-0.72,2.88v1.92l0.24,1.2l0.479,1.44v0.96v2.16  l-0.479,1.44l-1.2,1.92l-2.16,3.84l-2.641,3.84l-1.2,1.68l-0.48,0.96l-0.72,1.44l-0.48,0.96l-0.239,0.72l-0.24,1.2l-0.24,2.16v1.2  l-0.72,1.68l-0.96,1.92l-1.2,2.4v1.2l-0.48,0.96l-0.24,1.2l-0.72,1.44l-0.24,0.48l2.881,5.04l0.479,0.48l2.881-1.44l3.6-2.4  l2.161-1.68h2.64v1.2l2.881,1.2l2.16-0.48l6.001-2.64l2.88,1.44l2.881,1.44l1.439-0.24l0.96,1.44l0.48-0.24l0.96-0.48l0.48,0.24  h0.479l0.721,0.24l1.68-0.24h0.48l0.24-0.24l0.239-0.48l0.24-0.72l2.4,0.24l0.48-2.4v-0.96l-0.48-0.96l-0.479-1.2l1.439-3.12  l1.2-2.64v-1.92l0.24-1.2l2.16-4.8l0.48-2.4l2.4,0.24h2.16l0.96,0.24l2.88,1.2l0.96,0.24l4.081,0.24h2.16l1.2-0.24l0.96-0.96  l1.921,0.48l2.88,0.24l4.801,0.48h1.92l1.681,0.72l0.96,0.48l1.2,1.44l0.72,0.96l0.72,0.48l1.2,1.44l1.681,0.72l0.96,0.24l1.44,2.88  l2.4,3.121l1.44,1.68l2.16,1.92l1.2,0.96l4.32-2.4l0.96-0.24h3.12l1.2,0.24l0.24,3.121l0.24,2.16l-0.24,2.16l-0.24,1.68l-0.72,1.68  l-0.721,1.68l-1.439,3.12l-0.96,1.2l-0.24,0.48l-0.48,0.96l-0.24,0.72v1.2v0.72l0.24,0.72l0.24,0.24l0.24,0.48l0.96,1.92l0.96,1.92  l0.24,1.68l0.479,2.16l0.24,1.92v0.72v0.48l0.24,0.48l-0.24,0.96l-0.24,1.92l-0.479,2.16v0.96l-0.48,0.96l-0.479,0.72l-0.24,0.48  l-0.48,1.2l-0.479,1.44l-0.96,0.24l-1.44,0.48l-2.16,1.2l-3.121,0.96l-0.96,0.24h-0.479l-1.681,0.24l-0.96-0.24l-1.2-0.48  l-0.72-0.48l-1.921-1.44l-0.239-0.72l-0.48-1.2l-0.48-0.96l-0.96-1.2l-0.479-0.96l-0.24-1.2v-0.72l-0.48-3.36l-0.239-3.601v-0.48  l-0.24-0.24l-0.24-0.48h-0.24l-0.479-0.24l-0.48-0.24l-0.48,0.24h-0.239l-2.641,1.68l-3.841,1.92l-1.92,1.68l-0.96,0.72l-0.721,0.96  l-0.72,0.72l-0.24,0.96l-0.479,2.4l-0.721,2.16l-0.479,1.2l-0.24,0.96l-0.96,0.72l-0.721,0.96l-0.239,0.48l-0.24,5.521l-0.24,2.16  l-1.2,1.68l-3.841,3.6l-0.96-0.24l-1.68-0.24l-1.921-0.48l-1.68-0.72l-2.881-1.44l-3.12-0.96l-0.24,1.68l-0.479,1.44l-0.96,1.68  v3.84l-0.24,0.96l-0.48,0.96l-0.479,0.72l-0.721,0.48l-0.479,0.48l-0.48,2.4l-0.479,0.48l-0.48,0.96l-1.681,3.84l-1.68,2.88  l-0.48,0.48l-0.72,0.24h-0.72l-0.721,0.24h-1.68l-1.2,0.24h-0.721l-1.439,0.72l-1.921,1.2l-0.96,0.24h-0.96l-0.96,0.24h-2.881  l-3.12-0.24l-1.2-0.24l-0.72,0.24l-0.48,0.24l-1.44,2.161l-2.399,3.6l-0.48,0.48l-0.72,0.48l-1.921,1.92l-0.72,0.72h-0.48h-0.479  l-0.48,0.24v0.48l-0.24,0.48l-0.239,0.24l-0.24,0.24l-0.24,0.24l-0.96,0.48v0.24v0.24v0.48l0.24,0.48v0.24v0.72v0.96l-0.24,0.96  l-0.24,0.72l-0.48,0.72l-0.239,0.48l-0.721,0.96l-0.96,0.96l-0.479,0.48l-0.24,0.24h-0.24l-0.48,0.24l-1.2,0.24l-0.72,0.24  l-0.24,0.24l-0.479,0.24l-0.721,0.48l-0.239,0.48l-0.48,0.48l-0.48,0.96l-0.72,1.2l-0.72,1.2l-0.721,0.96l-0.479,0.48l-0.48,0.72  h-0.24l-0.479,0.24l-0.24,0.24h-0.24h-0.72l-1.44,0.24l-0.24,0.24l-0.24,0.24l-1.439,1.68l-0.24,0.96l-0.24,1.68v0.72v0.24v0.24  l0.24,0.24v0.48l0.479,0.48l0.48,0.48l0.24,0.24l0.24,0.24v0.48l-0.24,0.24l-0.48,0.24l-0.24,0.48v0.24v0.48l0.24,0.24l0.24,0.24  l0.48,0.48h0.239l0.24,0.24l0.48,0.48l0.24,0.48v0.48v0.24l-0.24,0.72l-0.24,0.24h-0.24l-0.479,1.2l-0.24,0.48l-0.721,0.72  l-0.239,0.48l-0.721,0.24l-0.479,0.24h-0.96h-0.48h-0.96h-0.96h-0.48h-0.96h-0.48l-0.72,0.24l-1.2,0.24l-1.44,0.24l-0.72,0.24  l-0.72,0.24l-0.24,0.48l-0.721,0.48l-0.479,0.24l-0.24,0.24h-0.48h-0.72h-1.2h-1.2l-0.479-0.24h-0.24l-0.24-0.24l-0.24-0.24  l-0.479-0.24h-0.24l-0.48-0.24h-0.479l-0.721-0.24l-0.239-0.48l-0.24-0.48l-0.24-0.24l-0.24-0.48l-0.24-1.2v-0.72l-0.239-0.48  l-0.48-0.24l-0.96-0.72l-0.721-0.24l-1.2-0.72h-0.479l-0.96-0.24l-1.2-0.24h-1.2l-1.44-0.48l-4.08-0.72l-1.681-0.24l-1.68-0.24  l-3.361-0.48h-0.72h-0.96l-0.72,0.24l-0.72,0.24l-2.161,1.68l-0.72,0.72l-1.44,1.2l-0.96,0.48l-0.96,0.48l-0.72,0.24h-0.96  l-0.72,0.24l-0.72,0.24l-0.72,0.48l-0.48,0.48l-0.24,0.72l-0.48,1.44l-0.24,0.48v0.72v0.48l-0.24,0.72v0.48l-0.24,0.48l-0.24,0.48  h-0.48l-0.72,0.24l-0.72-0.24h-0.96l-0.72,0.24l-0.24,0.24l-0.48,0.48l-0.24,0.48l-0.24,0.72l-0.48,1.2l-0.96,2.16l-0.48,1.44  l-1.92,4.321l-2.4,4.08l-1.2,1.92l-0.48,0.48v0.48l-0.48,2.16l-0.24,0.96v0.96v1.2l-0.24,1.2l-0.48,1.44l-0.72,1.2l-0.72,1.44  l-0.72,0.96l-0.96,1.2l-0.48,0.72l-2.88,2.88l-1.44,1.92l-0.24,0.24h-0.24h-0.24l-0.48-0.24h-0.24l-0.48,0.24l-0.24,0.24v0.24  l0.24,0.48l0.48,1.44l0.72,1.2l0.96,1.68l0.96,1.2l0.96,0.96l1.44,1.68l1.92,1.44l1.2,0.72l1.44,0.72l1.68,0.48l1.2,0.24l0.96,0.24  l0.96,0.239h0.72h0.24l0.24,0.24v0.48l0.72,2.64v0.48l0.48,2.4l0.72,3.36v1.439v0.721l0.24,0.72v0.721l0.24,1.439l0.24,0.96  l0.24,0.96l0.24,1.681l-0.24,3.12v2.16l0.24,1.921v0.72v0.96v0.72v0.961l-0.72,2.399l-0.48,1.681l-0.24,1.68v0.48v1.2v0.72  l0.24,0.721l0.24,0.72v1.2l-0.24,0.72v0.48l-0.48,0.96l-0.96,0.96l-0.72,0.96l-0.72,0.48l-0.24,0.479l-0.24,0.48l-0.24,0.48  l-0.24,3.12l-0.24,3.84v1.2v0.24l0.24,0.24l0.24,0.479l1.2,1.2l1.92,1.681l0.48,0.24l0.48,0.239l0.24,0.24l0.24,0.48l0.48,0.239  l0.24,0.48h0.24l0.48,0.24l0.48,0.24l0.48,0.239l0.48,0.24l0.72,0.24l1.2,0.72l1.92,1.2l3.36,2.16l1.92,1.2h0.72l0.72,0.24  l0.48-0.24h0.24l0.48-0.24l0.48-0.239l0.24-0.24l0.48-0.96l0.24-0.24v-0.24l0.24-0.479v-0.48l0.24-0.479v-1.44l0.24-1.2l0.24-1.2  v-0.48l0.24-0.479l0.24-0.721l0.24-0.239l0.48-0.24l0.24-0.48h0.24l0.24-0.479l0.24-0.24l0.24-0.48l0.24-0.479l0.24-0.48l0.24-0.96  l0.24-0.72l0.24-1.921v-0.72l0.24-0.479v-0.24l0.24-0.48l0.24-0.24l0.48-0.479l0.48-0.24l0.24-0.48l0.239-0.239v-0.96l0.24-2.4  v-0.48v-0.24l0.24-0.479l0.24-0.24l0.24-0.72l1.2-2.641v-0.72l0.479-0.48l0.24-0.24l0.24-0.24l0.479-0.239l0.24,0.239h0.24  l0.72,0.24l2.16,0.721l1.681,0.72h0.479l0.24,0.24l0.721,0.24l1.68,0.72l1.2,0.72l1.2,0.96h0.24l0.479,0.48l0.48,0.48l0.24,1.199  l0.479,1.44l0.961,2.4l1.2,3.601l0.72,1.68l0.24,0.48v0.479v0.48v0.24v0.479l-0.24,0.48l-0.24,0.48v0.479v0.48v0.479v0.721  l0.24,0.72l0.24,0.479l0.239,0.24l0.24,0.24l0.48,0.24h0.479l0.24,0.24h0.48l0.479,0.239l0.24,0.24l0.24,0.24h0.48l0.96,0.48  l2.16,0.72l0.72,0.48h0.48l0.479,0.479l0.721,0.96l1.2,0.96l0.239,0.24h0.48l0.48,0.24l1.2,1.2l0.72,0.24l1.44,0.479l3.12-0.24  l3.12-0.479l0.48-0.24h0.72l0.721-0.48h0.479l0.48-0.239l0.72-0.24l0.72-0.24h0.721h0.72l0.48,0.24l0.479,0.24l0.961,0.239  l0.479,0.48l1.2,0.96l0.96,0.96l0.24,0.24l0.48,0.48l0.239,0.479l0.48,0.721l0.24,0.96l0.72,1.2l0.48,0.479l0.72,1.2l0.48,0.48  l0.239,0.479l0.721,0.24l0.72,0.24h0.48l0.72,0.24h0.48l0.24-0.24l0.239-0.48l0.24-0.479v-0.48l0.24-0.479l0.24-0.48l0.239-0.48  l0.48-0.72v-0.479v-0.48l0.24-0.48v-0.479l-0.24-0.48l-0.24-0.72l-0.24-0.48l-0.239-0.72l-0.48-0.72l-0.479-0.961v-0.479l-0.24-0.48  v-0.479v-0.48l0.24-0.96l0.239-0.24l0.721-2.64l0.239-0.721l0.24-0.479l0.721-0.24l0.479-0.48h0.24l0.48-0.239l0.239-0.48l0.24-0.24  l0.24-0.479l0.24-0.24l0.24-0.24h0.479h0.48h0.479h0.48h0.24h0.239l0.48-0.24v-0.479v-0.24v-0.24v-0.479l-0.24-0.24l-0.24-0.721  l-0.239-0.239v-0.48v-0.479v-0.721l0.239-0.479l0.24-0.721v-0.24l0.24-0.72l0.48-0.479l0.72-0.721l0.72-0.72l2.16-1.681l0.961-0.239  h0.479h0.24l0.72,0.239l0.24,0.24l0.72,0.24h0.24l0.48-0.24l0.96-0.479l3.12-2.641l1.921-1.44h0.479l0.48-0.24h0.24l0.239,0.24  l0.721,1.2l0.24,0.24l0.239,0.72l1.44,1.921l1.681,1.68l0.96,0.72l0.96,0.24h0.24h0.72h0.72h0.721h0.479l0.721-0.24l0.96-0.239  l0.24-0.24l0.479-0.24h0.24l0.72-0.72l0.48-0.721l0.24-0.239l0.96-1.921v-0.479l0.24-0.48l0.479-0.72l0.24-0.48l0.24-0.479  l0.24-0.48l0.479-0.72l0.48-0.24l0.479-0.48l0.961-0.96l1.92-1.2l1.44-0.479l0.239-0.24v-0.24v-0.24l-0.239-0.239l-1.2-2.881  l-0.721-1.92l-0.72-1.44l-0.24-0.479l-0.479-0.721l-0.24-2.4v-0.96v-0.479l-0.48-0.48l-0.96-0.24l-3.36-0.479l-0.48-0.24l-0.96-0.24  h-0.479l-0.24-0.479l-0.24-0.961l-0.96-4.561l-0.72-2.64l-0.48-2.4l-0.24-0.72v-0.961v-0.72v-1.2l0.24-1.2v-1.439v-2.641l0.24-3.841  v-0.239v-0.961l0.24-1.68l0.479-2.64l0.721-3.36v-1.44l0.239-0.72l0.24-0.24l0.48-0.24l0.479-0.24l0.721-0.24l0.72-0.24l0.72-0.24  l2.881-0.96l0.479-0.24l0.24,0.24l0.24,0.24v0.24l0.24,0.24l0.479,1.92v0.48l0.24,0.48v0.24l0.24,0.48l0.48,0.72l0.72,0.48  l3.601,2.16l0.96,0.48l1.2,0.48l1.44,0.24l0.96,0.24l0.24,0.24l0.96,0.24l2.16,1.2l1.44,0.72h0.479l0.96-0.48l2.4-1.439l3.601-2.161  h0.24h0.24l0.72,0.96l0.24,0.24l0.24,0.48l2.16,3.601l2.4,3.36l0.479,0.48h0.48l0.24,0.239l0.239-0.239l0.24-0.24l0.48-0.48  l0.72-0.72l1.2-0.96l1.681-1.44l1.92-1.681l3.841-3.12l2.16-1.92l2.4-1.92l2.16-1.68l0.24-0.48l0.239-0.24l0.24-0.24h0.24h0.24  l0.479,0.72l0.24,0.48v0.48v0.48l0.24,0.24v0.48v0.48v0.72l-0.24,0.72v0.96l-0.24,1.2v1.2v0.72l0.48,1.681l0.24,0.239l0.239,0.48  l0.24,0.48l0.24,1.2l0.24,0.72l0.24,0.479l0.479,0.48l0.48,0.48l0.479,0.72v0.24h0.48h0.48h0.479h0.24h0.479l0.961-0.24l1.92-0.48  h1.68h0.48l0.48,0.24h0.479h0.48l0.24,0.24l0.479,0.24l0.48,0.239l0.96,0.961l0.96,1.2l0.48,0.72v0.48v0.239v0.48v0.479v0.48v0.48  l-0.24,0.72l-0.24,0.72l-0.96,1.681l-0.48,1.44l-0.239,0.479l0.239,0.24l0.721,0.479h0.479l0.721,0.24h0.479h0.24h0.24h0.24  l0.479-0.24l0.24-0.479l0.24-0.48l0.72-1.2l0.48-0.479l0.239-0.24l0.24-0.24h0.721l0.239,0.24h0.24h0.48l0.24,0.24h0.239l0.24,0.24  l0.48,0.239h0.24l0.479-0.479l1.2-0.24l0.72-0.48h0.961h0.479l0.48-0.239l0.479,0.239h0.48h1.2l0.96,0.24h0.48h0.479l0.721-0.24  h0.479l0.48-0.239l0.24-0.24h0.239l0.48-0.48l0.96-0.96l0.96-1.68l1.921,1.439h0.239l0.48,0.24l0.48,0.24l0.479,0.479l0.48,0.24  h0.479h0.24h0.48l0.479,0.24h0.48l0.72,0.48l1.681,0.72l0.96,0.48l0.96,0.72l0.48,0.24l0.479,0.72l0.96,0.72l0.48,0.48l0.72,0.72  l0.48,0.721l0.24,0.239l0.479,0.24l0.48,0.721l1.2,1.92l0.72,0.96l0.721,0.48l1.68,1.439l1.44,0.721l0.479,0.239l0.48,0.24  l0.48,0.24h0.239h0.24h0.48l0.239-0.24l0.48-0.24l0.24-0.239l0.72-0.96h0.24l0.48,0.239l0.479,0.24l0.48,0.48l1.44,0.72l1.199,0.72  l0.48,0.24l0.48,0.24h0.479l1.2,0.24l0.96,0.24l0.721,0.239l0.96,0.24h0.479l0.48,0.24l0.72,0.24l0.48,0.239l0.96,0.721l0.96,0.479  l0.24,0.48l0.48,0.24l0.239,0.479v0.24l0.24,1.2l0.24,4.32v0.24v0.24v0.479v0.24l-0.24,0.24v0.24l-0.24,0.239l-0.239,0.48  l-0.24,0.24v0.479l-0.24,0.48l-0.24,1.2v0.479l-0.24,0.961l-0.96,2.16l-0.72,1.68l-1.681,3.12l-1.2,2.4l-0.72,1.2l-0.96,1.2  l-1.92,1.681l-2.4,1.68l-4.321,3.601l-3.36,2.641l-1.2,0.96l-0.72,0.72l-0.479-0.24l-0.48-0.24l-0.72-0.479l-2.161-0.48l-2.399-0.72  l-1.921-0.24l-2.16-0.24l-1.92,0.24l-2.4,0.24l-2.16,0.24H457.8l-2.88,0.24h-2.16h-0.24h-0.24l-0.24,0.239l-0.24,0.24l-0.239,0.48  l-0.961,2.64l-0.72,2.641l-0.48,1.68l-0.239,1.44l-0.48,0.96l-0.48,0.721l-0.479,0.239l-0.96,0.24l-1.2,0.96l-0.48,0.48l-0.479,0.72  l-0.24,0.48v1.2l-0.48,2.4l-0.72,4.8l-0.48,2.881l-0.479,1.92l-0.24,0.48v1.2l0.24,1.68v2.16v5.28l0.239,4.321l0.24,2.16l0.721,2.64  l0.72,1.921l0.48,1.199v0.721v0.479v0.48l-0.24,0.479l-0.24,0.48l-0.24,0.48v0.96v1.44l0.24,1.68l0.24,0.72l1.68,1.921l0.961,0.96  l0.239,0.24l0.24,0.239h0.48h0.479h0.48h0.24h0.479h0.24l0.48-0.239h0.72h0.72h0.961h0.479l1.92,0.479l0.721,0.24l1.44,0.48  l1.68,1.199h0.48l0.479,0.24l0.48,0.24l0.24,0.48l0.239,0.239l0.24,0.48v0.24l0.24,0.72l0.24,0.24l0.24,0.479l0.479,0.24l0.24,0.48  l0.479,0.24h0.48l0.24,0.239l0.479,0.24v0.24l0.48,0.48l0.48,0.96v0.479l0.239,0.721v0.72l0.48,0.72l0.24,0.721l0.479,0.72  l0.721,0.96l0.239,0.24h0.48l0.24,0.24l0.479,0.239l0.961,0.24h0.479l0.24,0.24h0.24h0.479l1.681-0.48l1.92-0.239h0.96h1.44h0.24  l0.96-0.721l0.48-0.239h0.239l0.48,0.239h0.96l0.24-0.239l0.72,0.72l0.48,0.479l0.479,0.24l0.48,0.24l0.48,0.24l0.479,0.24  l2.881,0.72l0.479,0.24v0.479v0.48l-0.479,2.16l-0.721,5.521v0.96v0.721l-1.439,5.521l-0.961,6.96v1.2l-0.239,0.721l-0.961,2.88  l-0.96,3.841l-0.239,0.479v0.721v0.72l0.239,0.48v0.72v0.96v1.2l-0.239,4.801v4.561v0.479l-0.48,0.72l-0.24,0.721l-0.479,0.96  l-0.721,1.2l-1.44,2.88l-0.72,1.44l-0.479,0.72l-1.2,1.44l-1.44,1.2l-0.721,0.48l-0.479,0.479l-1.92,2.881l-2.641,3.12l-0.721,0.479  l-0.479,0.48l-0.72,0.48l-0.48,0.239l-0.48,0.24h-0.72l-0.96,0.24h-0.96l-0.721,0.24h-0.96h-0.479l-0.721,0.239h-0.72l-0.721,0.24  l-0.479,0.24l-0.48,0.24l-0.479,0.479l-1.2,1.2l-0.48,0.721l-0.24,0.239h-0.479h-0.721h-0.72l-1.68-0.239l-0.48-0.24l-0.24-0.48  l-0.96-0.96l-0.72-0.96l-0.721-0.24l-0.96-0.24l-0.72-0.479h-0.721h-1.2l-1.2,0.24h-0.72l-0.72,0.239v0.721v0.96v0.96l0.239,2.641  v0.72l0.48,1.44v0.72l-0.48,0.48l-0.479,0.24l-0.72,0.72l-0.24,0.479l-0.48,0.48v0.72l-0.24,0.721v0.479v0.721l0.24,0.72l0.24,0.48  l0.24,0.239v0.721l-0.48,1.2l-0.24,0.72l-0.72,1.2l-0.24,0.48l-0.24,1.199v0.48v0.72v0.48l0.24,0.48v0.72l-0.24,0.72l-0.239,0.721  l-1.681,4.8l-0.24,0.721v0.479l0.24,0.721l0.48,1.68l0.239,0.48l0.24,0.479l0.24,0.24h0.48v0.48l-0.24,0.479l0.479,0.24l0.721-0.24  h0.479l0.48,0.24h0.48l0.479,0.24l0.24,0.24l0.479,0.239l1.2,1.44l0.48,0.48l0.72,0.72l0.24,0.479v0.961l0.24,3.12l-0.24,0.479  v1.681l-0.24,0.479l-0.239,0.24l-0.24,0.48h-0.48h-0.479l-0.24-0.24l-0.24-0.24l-0.24-0.24l-0.24-0.479l-0.239-0.24l-0.24-0.24  l-0.96,0.48h-0.48l-0.96-0.72l-0.48-0.24l-0.479-0.24h-0.48h-0.479h-0.48l-0.479,0.24h-0.48h-0.24h-0.96h-0.24l-0.72,0.72  l-0.24,0.24l-0.48,0.24h-0.479l-0.72-0.24l-0.721-0.48l-0.479-0.239h-0.48l-0.48,0.239l-0.72,0.24l-0.72,0.24l-0.721,0.24  l-0.239,0.239l-0.48,0.24h-0.72h-0.24l-0.721,0.48h-0.239l-0.721,0.479l-0.24,0.24l-0.239,0.24l-0.48,0.72l-0.479,0.721l-0.24-0.24  l-0.24-0.24v-0.479l-0.72-2.161l-0.48-1.439l-0.24-1.681v-0.24l-0.24-0.239l-0.479-0.24l-0.48-0.24h-0.479h-1.2h-0.48l-0.479,0.24  h-0.48l-0.72-0.24l-0.961-0.24l-0.96-0.239l-1.44-0.48l-0.96-0.24l-0.479-0.24l-0.721-0.239l-0.239-0.24l-0.24-0.48l-0.24-0.479  l-0.96-1.921l-1.2-2.399l-0.24-0.24h-0.479l-0.48,0.24h-0.48h-0.479l-0.721,0.239l-0.479,0.24h-0.48h-0.479l-0.48-0.24l-0.24-0.72  l-0.239-0.48l-0.48-0.72v-0.24v-0.479l-0.24-0.721l-0.24-1.2v-0.96l-0.239-2.4v-0.239v-0.48l0.239-0.72l-0.239-0.24l-0.721-0.48  l-0.72-0.479l-0.48-0.721l-0.72-0.72l-0.48-0.24h-0.239l-0.48-0.239l-0.48-0.48l-0.479-0.96l-0.24-0.24l-0.72-0.24l-0.721-0.24  h-0.24l-1.439,0.721l-1.2,0.72h-0.24h-0.48l-0.479-0.24l-0.24-0.239l-0.24-0.48v-0.96v-0.96l0.24-0.24l0.24-0.24l0.479-0.479v-0.24  l0.24-0.48l-0.24-0.479l-0.72-0.24h-0.24h-0.72h-0.48h-0.24l-0.239-0.48v-0.72l0.239-0.24l-0.239-0.479l-0.48-0.721l-0.24-0.479  l-0.239-0.24l-0.24-0.72v-0.48v-0.48v-0.239l0.24-0.721v-0.24v-0.479l-0.24-0.48l-0.24-0.239l-0.48-0.24l-0.239-0.48l-0.48-0.479  l-0.48-0.721l-0.479-0.96l-0.24-1.2v-0.479l0.24-0.48l0.24-0.48l2.4-2.399l0.72-0.721v-0.479l-0.24-0.48l-0.24-0.24l-1.2-0.72  l-0.72-0.72l-0.48-0.24l-0.239-0.24l-2.4-0.96l-1.681-0.96l-0.24-0.24l-0.479-0.48l-0.24-0.239h-0.48l-0.479,0.96v0.479l-0.24,0.48  v0.72v0.721l0.24,0.239v1.681v0.72v0.24l-0.721,0.48l-0.479,0.239l-1.681,0.961h-0.72h-0.48l-0.239-0.24l-0.48-0.24l-1.44-0.96  l-1.439-1.44l-0.961-0.96l-0.239-0.24l-0.24-0.479l-0.24-0.721l-0.24-0.479v-0.721v-0.479v-0.721v-0.479v-0.48l-0.24-0.479  l-0.239-0.721l-0.48-0.72l-0.24-0.24l-0.479-0.24h-0.48l-0.479,0.24l-0.721,0.48l-0.96,1.2l-0.72,0.479l-0.48,0.24l-0.72,0.24  l-0.48-0.24l-0.72-0.24l-0.48-0.24l-0.479-0.479l-0.48-0.48l-0.48-0.479l-0.239-0.96v-0.721v-0.479v-0.48v-0.479l0.479-0.48  l0.24-0.24l0.24-0.479l0.24-0.48l0.239-0.48l0.24-0.479l0.24-0.48v-0.479v-0.24l0.24-0.24v-0.479v-0.721l-0.24-0.479v-0.24v-0.24  l-0.24-0.72l-0.24-0.24l-0.239-0.24l-0.24-0.479l-0.24-0.24l-0.72-0.48h-0.48l-0.479-0.24h-0.48h-0.72h-0.48l-0.48,0.24l-0.479,0.24  l-0.48,0.24l-0.24,0.24l-0.479,0.72l-0.24,0.48l-0.96,1.68l-1.92,3.12v0.24l-0.48,0.24l-0.48,0.24h-0.479h-0.24h-0.48l-0.479-0.24  h-0.48l-0.479-0.24l-0.48-0.24l-0.24-0.24l-0.239-0.239l-0.24-0.24l-0.721-0.24l-0.96-0.479l-0.72-0.48h-0.48l-0.24-0.24h-0.479  l-0.48,0.24l-0.479,0.48l-0.24,0.239l-0.24,0.48v0.479l-0.24,0.24l-0.239,0.48v0.479l-0.24,0.48l-0.24,0.96v0.48v0.479v1.44  l-0.24,0.48l-0.24,0.239l-0.479,0.24h-0.24h-0.48l-0.72-0.24l-0.24-0.239l-0.479-0.24l-0.48-0.24l-0.96-0.48l-0.96-0.479l-0.24-0.24  h-0.48l-0.479-0.24h-0.48h-0.479h-0.24l-0.48,0.24l-0.239,0.24l-0.24,0.479v0.24l-0.24,0.48l0.24,0.24v0.239v1.2l0.24,1.681v0.24  l-0.24,0.479v0.24l-0.48,0.479h-0.479h-0.24h-0.48h-0.24l-0.96-0.239l-0.72-0.24l-0.48-0.24l-0.72-0.24l-1.92-1.2h-0.48h-0.72  l-0.48,0.48l-0.479,0.24l-0.48,0.24l-0.24,0.479l-0.479,0.24l-0.48,0.24l-0.24,0.479l-0.24,0.24l-0.96,0.24h-0.72l-0.48-0.24  l-0.72-0.24l-0.96-0.479l-0.721-0.721l-0.72-0.479l-0.96-1.44l-0.96-0.96l-0.48-0.72l-0.24-0.48l-0.96-1.2l-0.24-0.96l-0.479-1.681  l-0.24-0.72v-0.96v-0.48l0.24-1.2l0.24-0.479l0.239-0.24l0.48-0.96v-0.48l0.24-1.2v-1.2v-0.72v-0.479l-0.24-0.721l-0.96-1.68  l-1.2-2.881l-1.44-2.16l-0.479-0.24l-0.48-0.239h-0.72h-1.2l-1.44-0.24h-0.96h-1.2l-2.641,0.479h-0.24h-0.479h-0.96h-0.721h-0.96  l-0.72-0.239l-1.921-0.48l-1.2-0.48l-0.96-0.479l-1.2-0.48l-0.479-0.239l-0.48-0.24h-0.72h-1.44l-2.4-0.48h-1.2l-1.68-0.24  l-1.44-0.479l-2.641-0.72l-3.36-1.681l-1.44-1.2l-2.4-1.92l-1.44-0.96l-0.96-0.721l-1.68-0.72l-2.16-0.48l-0.72-0.239l-0.48-0.24  l-0.72-0.24h-0.72h-0.96l-2.88-0.48l-0.72-0.239l-1.2-0.24l-1.2-0.24l-1.92-0.479l-0.48-0.24l-0.24-0.24l-0.48-0.24l-0.48-0.479  l-0.72-0.721l-0.48-0.479l-0.96-0.48l-1.2-0.72l-0.24-0.24l-0.72-0.24l-0.72-0.24h-1.2l-2.641-0.479l-2.16-0.24l-6.48-0.72h-0.72  l-0.24,0.239l-0.24,0.721l-1.44,3.12l-2.4,5.28l-0.48,1.2l-0.96,2.641v0.72l-0.24,0.48v0.72v0.48v0.72l0.24,1.92l0.24,0.48v0.479  v0.48v0.72v0.48l-0.48,1.92v0.48l-0.24,0.479v0.48v0.24v0.72v0.48v0.72v2.641l-0.24,1.439v0.721l-0.24,0.479v0.24l0.24,0.72  l0.24,0.721v0.24v0.479v0.96v0.721l-0.24,1.2l-0.72,2.88l-0.72,5.041l-0.72,5.04v0.72v1.681v2.4l0.24,2.16l-0.24,0.479l-0.48,0.721  l-0.24,0.479l-0.72-0.239l-0.24-0.24l-0.24-0.48l-0.48-0.479l-0.48-0.24l-0.24-0.24l-0.24-0.24h-0.48l-0.48-0.24l-0.24-0.239h-0.72  l-0.24-0.48l-1.2-1.68h-0.24l-0.24-0.24h-0.48h-0.24h-0.48h-0.24l-0.72,0.479l-1.2,0.961h-0.24l-0.72,0.239l-0.48-0.239l-0.48-0.24  l-0.48-0.48l-0.48-0.24l-0.48-0.239l-0.72-0.24l-0.48-0.24l-0.96-0.48l-2.16-0.72l-1.2-0.479l-0.72-0.48l-0.24-0.24l-0.96-1.2  l-0.48-0.72l-1.2-1.92l-1.44-3.36l-1.68-2.641l-1.2-2.4l-1.68-2.88l-1.2-1.44l-1.92-3.12l-2.16-3.12l-1.44-1.681l-0.24-0.24  l-0.48-0.24l-0.24-0.239h-0.72h-0.48l-0.24-0.24h-0.48l-0.96-1.2l-0.72-0.24l-0.48-0.24l-0.48-0.239l-0.72-0.721l-1.2-1.92  l-0.48-0.48v-0.239v-0.48v-0.24l0.24-0.479v-0.721v-0.239l-0.48-1.921l-1.2-3.84v-0.721l-0.24-0.239l-0.96-1.2l-0.96-1.44  l-1.44-1.44l-0.72-0.479l-0.48-0.24l-0.96-1.2l-1.2-1.2l-1.2-1.2l-0.96-0.479l-2.4-1.681l-0.24-0.48v-0.239v-0.721l-0.24-0.239  l-0.24-1.44v-0.721l-0.24-0.72l-0.24-2.16v-0.24l-0.24-1.439l-0.72-2.4l-0.72-1.921l-1.44-2.64l-1.2-1.921l-1.2-2.16l-0.96-1.439  l-0.48-0.48l-0.96-0.72l-0.48-0.721l-1.44-1.2l-0.96-0.72l-0.48-0.479l-0.96-0.48l-2.16-0.72l-1.68-0.721l-1.2-0.239l-0.48-0.24  v-0.24l-0.48-0.24v-1.44l-0.48-3.84v-2.4l-0.24-0.24l-0.48-0.72l-0.24-0.721l-0.72-1.199v-0.24l-0.24-0.24l-0.24-0.96v-0.48v-0.479  v-0.48v-0.479l0.24-0.24l0.24-0.721v-0.239l0.48-0.961l0.48-1.68l0.48-0.24l0.48-0.479l0.48-0.24l0.48-0.24l0.48-0.479l0.24-0.48  l0.48-0.48l0.48-0.239l0.48-0.24l0.24-0.24l0.48-0.24l0.48-0.24h0.72h0.48h0.72h0.48h0.48h0.48l0.96-0.72l0.72-0.479l0.48-0.24  l0.48-0.24l0.48-0.24l0.72-0.24l0.72-0.239l2.88-1.44l2.64-1.44l0.24-0.24l0.48-0.479l0.48-0.24h0.48v-0.72v-0.24v-0.48l-0.24-0.479  l-0.24-0.24v-0.24l-0.24-0.72v-0.24l0.48-0.48l0.48-0.479v-0.24v-0.479v-0.24l-0.24-1.44v-0.24v-0.479l-0.24-0.48v-0.479l-0.24-0.48  l-0.24-0.24h-0.24l-0.48-0.24h-0.48h-0.48l-0.72,0.24h-0.24l-0.48,0.24l-0.24,0.24h-0.48h-0.24h-0.48l-0.48-0.48l-0.24-0.24  l-0.24-0.239l-0.48-0.24l-0.48-0.24l-0.48-0.24l-0.24-0.24h-0.24l-0.48-0.239l-0.24-0.24l-0.48-0.24l-0.48-0.24l-0.24-0.239  l-0.48-0.721l-0.48-0.479l-0.24-0.24l-0.24-0.721v-0.239l-0.24-0.48l-0.24-0.72v-0.24l-0.24-0.48l0.24-0.72v-0.72v-0.24l-0.24-0.48  v-0.479l-0.24-0.48l-1.2-0.72l-0.72-0.721l-0.72-0.479l-3.601-2.4l-1.44-0.48h-0.48l-0.48,0.721l-0.48,0.72l-1.2,1.92l-1.44,1.44  l-0.72,0.96l-0.96,1.44l-0.24,0.96v0.96l-0.24,0.721l0.24,0.72l0.48,0.72l0.48,0.961l0.48,0.479v0.24v0.479v0.721l-0.24,1.68v1.681  l-0.24,0.479l-0.48,0.48l-0.48,0.72l-0.48,1.2l-0.96,2.641l-0.24,0.96l-0.24,0.96l-0.24,1.2l-0.48,3.601l-0.96,4.32l-0.96,3.12  l-0.96,3.12l-0.48,1.44l-1.2,0.72l-1.2,0.48h-0.48l-0.48-0.24l-0.48-0.479l-0.24-0.24h-0.48l-1.68,0.479l-3.36,0.24h-1.2l-1.68-0.24  h-0.96h-1.2l-1.2-0.239l-0.48,0.72h-0.96l-1.2,0.24h-0.72l-1.44,0.24h-0.48l-0.72,0.239l-0.72,0.721l-1.44,1.92l-0.72,1.2  l-0.24,0.24h-1.2l-0.96-0.721l-0.48-0.479l-0.48-0.48l-0.48-0.239l-1.2-0.48l-0.48-0.24h-0.72h-0.48l-0.72-0.24l-0.48-0.479  l-0.96-1.2l-1.44-1.92l-0.72-1.921l-0.24-0.96l-0.24-1.2l-0.24-1.44l-0.24-4.32l0.24-2.64l-0.24-0.96l-0.24-0.24l-2.16-0.96  l-0.24-0.24h-0.96l-0.96-0.24l-0.96-0.24l-0.48-0.479l-0.72-0.721l-0.48-1.2l-0.24-0.96v-0.479v-0.96v-0.721v-0.24l-0.24-0.479  l-0.72-0.72l-0.48-0.721l-0.96-1.2l-0.48-1.2l-0.24-0.96l-0.24-1.2l-0.48-1.2v-1.2l-0.24-0.96l0.24-1.68l0.48-2.641l0.24-0.72  l0.24-0.48l0.72-0.479l0.48-0.48l1.44-3.12l2.4-4.08l3.12-5.521l3.121-3.84l4.081-6.48l3.601-5.041l3.12-5.521l0.96-1.92l0.24-0.721  v-0.72v-0.479l-0.72-1.2l-0.24-0.961v-0.96l0.24-2.4v-1.68v-0.96l-0.24-0.721v-0.239v-0.721v-0.72v-1.681l0.24-4.56l0.24-1.44  l0.48-2.16l0.96-2.4l1.92-2.641l3.36-3.601l0.48-0.96l0.24-0.479v-0.721l-0.24-0.479l-0.72-1.2l-0.72-0.24l-1.92-0.96l-0.48-0.24  h-0.72l-0.48,0.24l-1.68,0.24h-0.72l-0.48-0.48l-0.72-0.479l-2.16-0.961l-3.12-1.439l-0.72-0.24h-0.72h-0.48l-0.96,0.48l-4.561,0.96  l-1.2-0.24l-0.48-0.24l-0.48-0.96l-0.72-1.44l-0.24-1.439l-0.24-1.44v-3.36v-2.881l0.48-1.439l0.96-2.161v-0.96v-0.72l-0.24-0.48  l-0.48-0.72l-0.24-0.96l-0.24-1.44l-0.72-3.601l-0.24-4.32v-2.4v-3.12v-0.96v-0.48l0.24-0.48l0.48-0.48l0.72-0.48v-0.48v-0.96  l0.24-1.44l0.48-0.96l0.48-1.92l1.2-2.16l0.72-1.92l0.72,0.24l0.48-0.96l1.44-2.4l0.96-1.92l0.48-1.2l0.24-1.2l-0.24-0.72v-1.92  v-0.72l0.24-0.96l0.48-1.44l0.48-1.44l0.48-2.641l0.48-2.64l0.48-2.88v-0.72l0.24-0.72v-0.96l-0.24-0.48l-1.2-2.16l-2.64-2.64  l-2.88-2.64l-1.44-1.44l-0.72-1.68l-0.72-1.68l-0.24-3.12v-0.48l-0.24-0.72l-0.48-0.24l-0.72-0.48l-1.68-0.96l-1.44-0.48l-0.72-0.48  l-0.72-0.72l-0.72-1.2l-0.48-0.72l-0.48-0.48l-0.96-0.48l-3.36-1.92l-4.081-1.92l-0.96-0.96l-1.68-0.72l-5.041-2.4l-6.481-3.12  l-1.2-0.48l-0.48-0.48l-1.2-0.24h-0.48h-0.96l-1.44,0.24h-0.48l-0.72,0.24l-0.96,0.24h-1.68h-1.44l-2.16-0.48l-0.24-0.48l0.24-0.48  h-0.48v-0.48l0.24-0.48l0.24-0.24l-0.24-0.48l-0.72-0.96h-0.48l-0.24,0.24h-0.24l-0.72-0.48v-1.92l-0.24-1.92l-0.24-1.2l-0.72-0.72  l-1.44-0.96l-0.24-0.24l-0.48-0.24l-0.24-0.24v-0.48v-0.24l-0.24-0.48l-0.24-0.24v-0.48v-0.24l-0.24-0.24l-0.24-0.24l-0.48-0.24  l-0.24-0.24l-0.24-0.24l-0.24-0.24v-0.24v-0.24l-0.24-0.24v-0.24v-0.24l-0.24-0.24v-0.24v-0.24v-0.48v-0.24l-0.24-0.48v-0.24  l-0.24-0.48l-0.48-0.72l-1.2-1.68l-0.24-0.48h-0.48l-0.72-0.24l-0.48,0.48l-0.48-0.24l-0.24-0.24l-0.24-0.72l-0.48-0.24l-0.72-0.24  h-1.92l-0.24-0.24l-0.24-0.24l-0.48-0.24l-0.24-0.24l-0.24-0.24v-0.24l-0.24-0.48v-0.24l-0.24-0.24v-0.48l-0.24-0.24v-0.24v-0.24  l0.24-0.48v-0.24v-0.24l0.24-0.48v-0.48v-0.48l-0.24-0.24l-0.24-0.48v-0.24l-0.24-0.24v-0.24v-0.48v-0.24v-0.24v-0.24l-0.24-0.24  l-0.24-0.48l-0.48-0.24l-0.24-0.24h-0.48l-0.24-0.24h-0.48l-0.48-0.48v-0.48l-0.24-0.72v-0.72v-0.48l-0.24-0.24l-0.24-0.24  l-0.48-0.24l-0.24,0.24v0.24l-0.48,0.24v-0.48v-0.24v-0.24l-0.24-0.24v-0.24v-0.24l-0.24-0.24v-0.24h-0.24l-0.24-0.24v-0.24  l-0.24-0.24l-0.24-0.24l-0.24-0.24v-0.48v-0.48l0.24-0.72v-0.24l-0.24-0.48v-0.48l-0.48-0.24l-0.24-0.24l-0.48-0.48l-0.48-0.24  l-0.24-0.24h-0.24l0.24-3.36l-0.72-0.24l0.96-0.96l0.24-0.24v-0.24l0.24-0.24l0.24-0.24v-0.48v-0.48l-0.24-0.24l-0.24-0.24  l0.72-1.44l2.64-0.24h0.24h0.48h0.24l0.24,0.24h0.24h0.48h0.24l0.24-0.24l0.24-0.24h0.24h0.24l0.24-0.24l0.24-0.24v-0.24v-0.48  l0.24-0.48l0.24-0.72l0.24-1.2l0.96-0.24l0.24-2.16v-2.16h0.24h0.48l0.24,0.24h0.24h0.24h0.48h0.24h0.24h0.48h0.48h0.24l0.48-0.24  l0.48-0.24h0.24l0.24-0.48l0.24-3.36l1.68-0.48l0.48,0.24l0.24,0.24h0.24l0.24,0.24l0.24-0.24h0.48v-0.48h0.24h0.72l0.48-0.24h0.72  h0.48l0.48-0.24l1.92-0.72l0.72-0.24l0.24-0.96l0.48,0.72l0.96-0.48l0.96-0.48l0.72-0.24l0.24-0.48l0.24-0.24l0.24-0.24l0.24-0.24  l0.48-0.72l0.24-0.72l0.72-1.2l0.48-1.2l0.48-0.96l0.24-0.72l0.24-0.72l0.24-0.48l0.24-0.96l0.24-0.48l0.24-0.72v-0.48l0.24-0.24  l0.24-0.24l0.24-0.48l1.2-0.72l0.72-0.48h0.48h0.96l1.2-0.24h0.96l0.72-0.24h0.24h0.24h0.48h0.48h0.48h0.48h0.24l0.48-0.24  l0.24,0.24h0.48l0.48,0.24l0.24,0.24l0.24,0.24l0.24,0.24l0.24,0.24h0.48l0.48,0.24h0.24l0.24,0.24l0.48,0.24l0.96,0.24h0.96  l0.48,0.24l0.24,0.24l0.24,0.24v0.48v0.48v0.24l0.24,0.24v0.24l0.24,0.24l0.24,0.24l0.24,0.24l0.24,0.24v0.48v0.24l0.24,0.24  l0.24,0.24l0.48,0.24l0.72,0.24l0.24,0.24v0.24l0.24,0.48v0.24l0.24,0.24h0.24l0.24,0.24l0.24,0.48l0.24,0.48v0.24v0.24l0.48,0.24  l0.72,0.24h0.48v0.48l0.24,0.24v0.24v0.48l0.24,0.24v0.48h0.48l0.48,0.24l0.24-0.24l0.48-0.24v-0.24l0.48-0.24l0.24-0.24h0.24  l0.24,0.24l0.48,0.48l0.24,0.24v0.24v0.48v0.24v0.48v0.24v0.24l0.24,0.24h0.48l0.24,0.24l0.24,0.24l0.24,0.24h0.24l0.24,0.24h0.48  h0.24l0.48,0.24l0.24,0.24l0.24,0.24l0.24,0.24l0.24,0.24l0.24,0.48v0.24v0.48v0.48l0.48,0.24h0.24h0.48h0.48l0.24-0.24h0.48  l0.24-0.24l0.72,0.24h0.72l0.24-0.24h0.48l0.48-0.24l0.24,0.72v0.24l0.24,0.24v0.24l-0.24,0.24v0.24v0.24v0.24v0.24v0.24l-0.24,0.96  l-0.24,0.96v0.96v1.2v1.44l0.24,0.24v0.24l0.24,0.24l0.24,0.24v0.48v0.24l0.24,0.48v0.24l0.24,0.24l0.24,0.24h0.24l0.48,0.24  l0.48,0.48l0.48,0.24l0.24,0.24h0.48l0.24-0.24v-0.24v-0.24l0.24-0.24l0.24-0.24h0.24h0.48l0.24,0.24l0.24,0.24v0.24l-0.24,0.24  v0.48v0.24l0.48,0.24l0.24,0.24l0.24,0.24l0.24,0.48l0.24,0.24v0.48l0.24,0.24l0.24,0.24v0.48l0.24,0.24h0.24h1.2l0.24,0.24h0.24  v0.24l0.24,0.48l-0.24,0.24v0.24v0.24v0.24v0.24v0.24v0.24v0.24v0.24l0.24,0.24v0.48v0.48v0.24v0.48v0.48v0.48v0.24l0.24,0.48  l0.24,0.24l0.24,0.24h0.24l0.96,0.24h0.24h0.24l0.24,0.24h0.24l0.24,0.24l0.24,0.24l0.24,0.24l0.24,0.24v0.24h0.24l0.24,0.24  l0.24,0.24l0.24,0.24l0.48,0.24h0.24l0.24,0.24h0.24h0.24l0.24,0.24h0.24h0.24h0.24h0.72l2.4,0.48l3.121,0.72h0.48h0.24l0.24-0.24  l0.48-0.24l1.2-0.48l0.72-0.48l0.24-0.24l0.24-0.48l0.48-0.72l0.24-0.24l0.24-0.24l0.24-0.24h0.24l0.96-0.24l1.2-0.48l0.96-0.24  l0.96-0.24l0.96-0.24l1.44-0.24l0.72-0.24h1.2l0.96-1.44v-0.48l0.24-0.24l0.24-0.24l0.24-0.24l0.24-0.24l0.24-0.24l0.48-0.24h0.24  l0.24-0.24l1.44-0.72l-0.48-2.16l-0.24-0.48v-0.72l-0.24-0.48v-0.72l-0.24-0.72v-0.48v-0.72v-0.48v-0.72v-0.48v-0.48v-0.48v-0.48  v-0.48v-0.48v-0.48v-0.48v-0.48l0.72-3.36l0.48-3.121l0.24-2.88l0.24-1.68l0.24-0.72h0.24l2.16,0.24l0.24,0.24h0.48l0.24,0.24h0.24  l0.48,0.24l0.24,0.24l0.24,0.24l0.24,0.24l0.24,0.24l0.96,0.72l0.72-0.96l0.48-0.96l1.2-1.44l0.48-0.72l0.72-0.48l0.48-0.24  l0.96-0.24l2.641-0.72l2.4-0.24l2.16-0.48l2.16-0.24h0.24h0.48h0.24l0.48,0.24h0.24l0.24,0.24l0.48,0.24h0.24l0.24,0.24l1.44,0.96  l0.24,0.24h0.24l0.48,0.24h0.24h0.48h0.24h0.48h0.48h0.24l2.88-0.96l0.24-0.24v-0.24h0.24l0.96-0.48h0.24l0.48,0.24l0.72,0.24  l0.48,0.24l0.24,0.24l0.48,0.24l0.24,0.24v0.24l0.24,0.48l0.24,0.24l0.24,0.24l0.48,0.24l0.72,0.48l0.48,0.48l0.48,0.24l0.24,0.24  l0.24,0.24l0.24,0.24l0.24,0.24l0.24,0.24v0.24l1.44-0.48l1.2-0.24l3.6-0.96l0.96-0.48l0.96-0.72l0.24-0.24v-0.48l0.24-0.48  l0.24-0.72l0.24-0.48l0.24-0.24l0.24-0.24l0.24-0.48l0.24-0.48v-0.24v-0.48l-0.24-0.72l-0.24-0.24v-0.48v-0.24l0.24-0.24v-0.48  v-0.24v-0.24v-0.96v-0.72l-0.24-0.24v-0.72v-0.72v-0.72l0.24-0.48v-0.24l0.48-0.72l0.24-0.24l0.24-0.24h0.24l0.48-0.24l0.24-0.48  v-0.48v-0.24l0.24-0.48v-0.24v-0.48v-0.48v-0.24l-0.24-0.24l-0.48,0.24h-0.24l-0.48-0.24l-0.24-0.72l-0.24-1.92l-0.48-2.4  l-0.48-1.44v-0.72v-0.72l0.48-3.6v-1.68v-0.72l-0.24-0.48v-0.24l-0.48-0.48l-0.24-0.48l-0.24-0.24l-0.48-0.48l-0.72-0.24l-0.72-0.48  l-0.72-0.24l-0.24-0.24l-0.24-0.24l-0.48-0.72l-0.24-0.48l-0.24-0.24l0.24-0.48l1.44,0.48h0.72h1.2h0.72l1.92,0.24l0.48,0.24  l-0.24,0.48h0.96l0.24,0.24l0.24,0.96l1.2-0.48l0.72,0.24l0.24,0.48l-0.24,0.24v0.24l-0.24,0.24l-0.48,0.48l-0.24,0.48l-0.24,0.24  v0.24l0.24,0.24v0.48l0.72,0.24l0.24,0.24h0.48h0.48h0.24h0.48v-0.24l0.24-0.24l0.48-0.48l0.24-0.24h0.24h0.24h0.48h0.24h0.24h0.48  l0.48-0.24h0.48l0.48-0.24h0.48l0.24,0.24l0.24,0.24h0.24v0.24l0.24,0.48v0.24l-0.24,0.48v0.48v0.24l-0.24,0.48v0.24l-0.48,0.48  l-0.24,0.48v0.24l0.24,0.24v0.48l-0.48,4.32l-0.24,1.2l-0.24,2.88l-0.96,3.84l-0.24,1.92l-0.24,1.44l-0.72,4.32l-0.48,2.16v0.48  l2.4,0.96h1.44l0.72,0.24l1.681,0.48l1.44,0.24l1.68,0.24l0.72,0.24l0.48,0.48l0.96,1.68l0.96,0.72l0.96,0.48l2.64,0.72l2.88,0.24  l3.36,0.48l1.2-0.24l5.761-0.72l0.96-0.48l0.72-0.48l1.2-2.16v-1.44l-0.24-1.2l-0.24-0.96v-0.96l1.44-6l0.24-2.16l0.72-5.041  l0.24-2.4l0.48-1.92l0.48-1.68l0.72-1.2l0.72-2.88l1.2-7.201l0.24-2.16l-0.24-2.88l0.24-1.2l0.24-1.2l0.96-2.161l0.72-1.68l0.96-1.2  l1.2-1.92l3.12-4.561l1.68,0.48l4.321,1.68l1.68,0.96h0.48l1.2,0.24h1.44l1.92-0.24l4.32-0.72l6.481-2.16l2.64-0.72l4.321-2.16  l1.92-0.72l0.96-0.24h0.72l0.96-0.24h0.72l0.96-0.24l0.96-0.24l0.721-0.24h0.72h0.479h0.721l0.479,0.24h0.24l0.24,0.48l0.48,0.48  l0.479,0.96l0.96,2.4l0.48,0.48l0.72,0.72l0.48,0.72l0.24,0.48v0.24l-0.24,0.72l2.641,1.2l8.16,2.88l1.681-3.84l3.12-2.16  l4.32-3.121l1.921-1.92l1.44-1.92l0.72-2.4l1.44-2.641l0.239-1.92l0.721-1.68l1.92-3.601l1.2-1.68v-1.68l2.881-3.36l0.479-0.48  l0.72-0.24l0.48-4.561l-1.68-2.4l-0.48-2.64l-0.48-1.44l1.44-2.64l0.48-1.44v-1.44l0.479-2.4l0.24-2.4l-0.48-1.2l-0.239-1.44  l-0.24-0.48l0.24-0.24v-0.48l0.72-0.72l2.16-0.96l1.44-0.24h0.72h0.48l0.72,0.24l0.721,0.48h0.479h0.721l0.72-0.72L324.823,15.158z   M114.078,51.402l4.8,0.24h0.72l0.48-0.24h0.48h0.24l1.44,0.48l1.92,0.48l1.2,0.24l1.2,0.24h0.48l0.24,0.24h0.24h0.24h0.48h0.24  h0.24h0.24h0.48h0.24h0.48h0.24h0.48h0.24h0.48h0.24h0.48h0.24h0.48l0.96-0.24h1.44v4.321v3.12v0.48l0.24,0.72v0.48l0.48,0.72  l0.24,0.72l0.24,0.72l0.24,1.2l0.48,1.68l0.96,2.4l0.96,2.64v0.24l0.24,0.24v0.24v0.24v0.48v0.24v0.24v0.24v0.24l-0.24,0.48v0.48  v0.48l-0.24,0.24v0.48l-0.24,0.24v0.24l-0.24,0.24l-1.2,0.96l-1.2,0.72l-1.2,0.96l-1.2,0.96l-0.48,0.48l-0.24,0.24l-0.24,0.48  l-0.48,0.48l-0.72,0.96l-0.72,1.44l-0.72,1.44l-0.24,0.72l-0.96,0.24l-0.96,0.48l-0.96,0.72l-1.2,0.48l-0.72,0.24l-0.48,0.48  l-0.48,0.24l-0.24,0.24l-0.24,0.48l-0.48,0.96l-0.24,0.48v0.24v0.72v0.96l0.24,1.44l0.24,0.72v0.48l0.24,0.24l-0.24,0.48v0.24  l-0.24,0.24l-0.24,0.24l-0.24,0.24l-0.24,0.24v0.24l-0.24,0.24v0.24l-0.24,0.24v0.24l-0.24,0.24v0.24l-0.24,0.48v0.48v0.24  l-0.24,0.72v0.48v0.48l-0.24,0.48v0.48v0.48l-0.24,0.48l-0.24,0.48v0.24l-0.24,0.48v0.48l-0.24,0.48v0.24l-0.24,0.48l-0.24,0.24  l-0.24,0.48l-0.24,0.48l-0.24,0.24v0.24l-0.24,0.48v0.24v0.24l-0.24,0.24v0.48v0.24v0.24l-0.24,0.24l-1.2-0.24h-0.24l-0.24-0.24  h-0.24l-0.24-0.24h-0.24l-0.24-0.24l-0.24-0.24l-0.24-0.24l-0.24-0.24l-0.24-0.24l-0.24-0.48l-0.24-0.24l-0.24-0.48l-0.24-0.24  l-0.24-0.48l-0.24-0.24v-0.48l-0.24-0.24l-0.24-0.48l-0.24-0.48v-0.48l-0.24-0.24l-0.24-0.48v-0.48l-0.24-0.48v-0.48l-0.24-0.48  l-0.24-0.48v-0.48l-0.24-0.48l-0.24-0.48l-0.24-0.72l-0.24-0.48l-0.24-0.48l-0.24-0.48l-0.48-0.48l-0.48-0.72l-0.24-0.48l-0.48-0.48  l-0.72-0.72l-1.2-0.72l-1.2-1.2l-1.2-0.96l-1.68-1.2l-0.24-0.24l-0.24-0.24h-0.24l-0.48-0.24l-0.24-0.24l-0.24-0.24h-0.24  l-0.48-0.24h-0.24l-0.48-0.24l-0.24-0.24l-0.48-0.24l-0.48-0.48l-0.24-0.24l-0.48-0.24l-0.24-0.24l-0.48-0.24l-0.24-0.48l-0.48-0.48  l-0.48-0.48l-0.48-0.48l-0.48-0.48l-0.48-0.48l-0.24-0.72l-0.48-0.48l-0.24-0.72l-0.24-0.72l-0.72-1.92l0.72-0.96l1.44-1.44  l0.48-0.48l0.24-0.24l0.24-0.48l0.48-0.48l0.24-0.48l0.24-0.24l0.24-0.48l0.48-0.48l0.24-0.48l0.24-0.48l0.24-0.48l0.24-0.48  l0.24-0.72l0.24-0.48l0.24-0.48l0.24-0.48v-0.72l0.24-0.48v-0.48l0.24-0.48v-0.72v-0.48l0.24-0.48v-0.48v-0.48l0.24-0.48v-0.48  l1.68-1.2l0.96-0.96h0.24l0.24-0.24l0.24-0.24l0.24-0.24l0.24-0.24l0.24-0.24l0.24-0.24v-0.48l0.24-0.24l0.24-0.24v-0.24l0.24-0.48  v-0.24l0.24-0.24v-0.24l0.24-0.24v-0.48v-0.24l0.24-0.24l0.24-0.48v-0.24l0.24-0.48l0.24-0.24v-0.48v-0.48l0.24-0.24v-0.48v-0.48  l0.24-0.24v-0.48v-0.48l0.24-0.24v-0.48v-0.48v-0.24l0.24-0.48l0.24-0.72l2.4,0.24L114.078,51.402z"/>
<g>
	
		<polyline fill="none" stroke="#A80000" stroke-width="1.2002" stroke-linecap="round" stroke-linejoin="round" stroke-miterlimit="10" points="   114.078,51.402 118.878,51.642 119.598,51.642 120.078,51.402 120.559,51.402 120.798,51.402 122.239,51.882 124.159,52.362    125.359,52.602 126.559,52.842 127.039,52.842 127.279,53.082 127.519,53.082 127.759,53.082 128.239,53.082 128.479,53.082    128.719,53.082 128.959,53.082 129.439,53.082 129.68,53.082 130.16,53.082 130.399,53.082 130.879,53.082 131.12,53.082    131.6,53.082 131.84,53.082 132.32,53.082 132.56,53.082 133.04,53.082 134,52.842 135.44,52.842 135.44,57.163 135.44,60.283    135.44,60.763 135.68,61.483 135.68,61.963 136.16,62.683 136.4,63.403 136.64,64.123 136.88,65.323 137.36,67.003 138.32,69.404    139.281,72.044 139.281,72.284 139.521,72.524 139.521,72.764 139.521,73.004 139.521,73.484 139.521,73.724 139.521,73.964    139.521,74.204 139.521,74.444 139.281,74.924 139.281,75.404 139.281,75.884 139.041,76.125 139.041,76.604 138.801,76.845    138.801,77.084 138.561,77.325 137.36,78.285 136.16,79.005 134.96,79.965 133.76,80.925 133.28,81.405 133.04,81.645    132.8,82.125 132.32,82.605 131.6,83.565 130.879,85.005 130.16,86.445 129.919,87.166 128.959,87.406 127.999,87.886    127.039,88.605 125.839,89.086 125.119,89.326 124.639,89.806 124.159,90.046 123.919,90.286 123.679,90.766 123.199,91.726    122.958,92.206 122.958,92.446 122.958,93.166 122.958,94.126 123.199,95.566 123.438,96.287 123.438,96.767 123.679,97.007    123.438,97.487 123.438,97.727 123.199,97.967 122.958,98.207 122.719,98.447 122.479,98.687 122.479,98.927 122.239,99.167    122.239,99.407 121.999,99.647 121.999,99.887 121.758,100.127 121.758,100.367 121.519,100.847 121.519,101.327 121.519,101.567    121.278,102.287 121.278,102.767 121.278,103.247 121.039,103.728 121.039,104.208 121.039,104.688 120.798,105.167    120.559,105.647 120.559,105.888 120.318,106.368 120.318,106.848 120.078,107.328 120.078,107.568 119.838,108.048    119.598,108.288 119.358,108.768 119.118,109.248 118.878,109.488 118.878,109.728 118.638,110.208 118.638,110.448    118.638,110.688 118.398,110.928 118.398,111.408 118.398,111.648 118.398,111.888 118.158,112.128 116.958,111.888    116.718,111.888 116.478,111.648 116.238,111.648 115.998,111.408 115.758,111.408 115.518,111.168 115.278,110.928    115.038,110.688 114.798,110.448 114.558,110.208 114.317,109.728 114.078,109.488 113.837,109.008 113.598,108.768    113.357,108.288 113.117,108.048 113.117,107.568 112.877,107.328 112.637,106.848 112.397,106.368 112.397,105.888    112.157,105.647 111.917,105.167 111.917,104.688 111.677,104.208 111.677,103.728 111.437,103.247 111.197,102.767    111.197,102.287 110.957,101.807 110.717,101.327 110.477,100.607 110.237,100.127 109.997,99.647 109.757,99.167 109.277,98.687    108.797,97.967 108.557,97.487 108.077,97.007 107.357,96.287 106.157,95.566 104.957,94.366 103.756,93.406 102.076,92.206    101.836,91.966 101.596,91.726 101.356,91.726 100.876,91.486 100.636,91.246 100.396,91.006 100.156,91.006 99.676,90.766    99.436,90.766 98.956,90.526 98.716,90.286 98.235,90.046 97.755,89.566 97.516,89.326 97.036,89.086 96.795,88.846 96.315,88.605    96.075,88.125 95.595,87.646 95.115,87.166 94.635,86.686 94.155,86.206 93.675,85.726 93.435,85.005 92.955,84.525 92.715,83.805    92.475,83.085 91.755,81.165 92.475,80.205 93.915,78.765 94.395,78.285 94.635,78.044 94.875,77.564 95.355,77.084 95.595,76.604    95.835,76.364 96.075,75.884 96.555,75.404 96.795,74.924 97.036,74.444 97.275,73.964 97.516,73.484 97.755,72.764 97.996,72.284    98.235,71.804 98.476,71.324 98.476,70.604 98.716,70.124 98.716,69.644 98.956,69.164 98.956,68.444 98.956,67.963 99.196,67.483    99.196,67.003 99.196,66.523 99.436,66.043 99.436,65.563 101.116,64.363 102.076,63.403 102.316,63.403 102.556,63.163    102.796,62.923 103.036,62.683 103.276,62.443 103.516,62.203 103.756,61.963 103.756,61.483 103.996,61.243 104.236,61.003    104.236,60.763 104.477,60.283 104.477,60.043 104.716,59.803 104.716,59.562 104.957,59.323 104.957,58.843 104.957,58.603    105.196,58.363 105.437,57.883 105.437,57.643 105.677,57.163 105.917,56.922 105.917,56.442 105.917,55.962 106.157,55.722    106.157,55.242 106.157,54.762 106.396,54.522 106.396,54.042 106.396,53.562 106.637,53.322 106.637,52.842 106.637,52.362    106.637,52.122 106.876,51.642 107.117,50.922 109.517,51.162 114.078,51.402  "/>
	
		<polyline fill="none" stroke="#A80000" stroke-width="1.2002" stroke-linecap="round" stroke-linejoin="round" stroke-miterlimit="10" points="   324.823,15.158 328.664,20.199 328.664,20.679 328.904,22.119 328.664,26.439 333.465,26.679 334.665,30.52 335.625,32.2    335.865,32.68 336.345,33.4 337.545,34.6 338.025,35.32 338.266,36.04 338.505,36.521 338.505,36.76 338.266,37.24 338.025,37.721    337.785,38.201 337.065,38.681 336.825,38.92 336.585,38.92 336.825,40.121 337.305,41.321 338.025,42.281 338.745,43.001    339.465,43.721 340.426,44.201 341.146,44.681 341.386,45.401 341.386,46.121 341.146,46.602 341.146,47.082 341.146,47.321    341.626,48.282 342.105,49.481 342.105,50.442 342.105,51.162 342.346,51.882 342.105,53.802 344.025,54.042 346.906,55.962    346.426,57.402 345.466,59.803 343.786,61.483 342.826,62.443 342.586,63.403 341.626,64.843 340.905,67.244 340.186,70.124    340.186,72.044 340.426,73.244 340.905,74.684 340.905,75.645 340.905,77.805 340.426,79.245 339.226,81.165 337.065,85.005    334.425,88.846 333.225,90.526 332.744,91.486 332.024,92.926 331.544,93.886 331.305,94.606 331.064,95.807 330.824,97.967    330.824,99.167 330.104,100.847 329.145,102.767 327.944,105.167 327.944,106.368 327.464,107.328 327.224,108.528    326.504,109.968 326.264,110.448 329.145,115.488 329.624,115.969 332.505,114.528 336.104,112.128 338.266,110.448    340.905,110.448 340.905,111.648 343.786,112.848 345.946,112.368 351.947,109.728 354.827,111.168 357.708,112.608    359.147,112.368 360.107,113.809 360.588,113.568 361.548,113.088 362.028,113.328 362.508,113.328 363.229,113.568    364.908,113.328 365.389,113.328 365.629,113.088 365.868,112.608 366.108,111.888 368.509,112.128 368.989,109.728    368.989,108.768 368.509,107.808 368.029,106.607 369.469,103.487 370.669,100.847 370.669,98.927 370.909,97.727 373.069,92.926    373.55,90.526 375.95,90.766 378.11,90.766 379.07,91.006 381.95,92.206 382.91,92.446 386.991,92.686 389.151,92.686    390.352,92.446 391.312,91.486 393.232,91.966 396.112,92.206 400.913,92.686 402.833,92.686 404.514,93.406 405.474,93.886    406.674,95.326 407.394,96.287 408.113,96.767 409.313,98.207 410.994,98.927 411.954,99.167 413.395,102.047 415.795,105.167    417.235,106.848 419.396,108.768 420.596,109.728 424.916,107.328 425.876,107.088 428.996,107.088 430.196,107.328    430.437,110.448 430.677,112.608 430.437,114.769 430.196,116.449 429.477,118.129 428.756,119.809 427.316,122.929    426.356,124.129 426.116,124.609 425.636,125.569 425.396,126.29 425.396,127.49 425.396,128.21 425.636,128.93 425.876,129.17    426.116,129.65 427.076,131.57 428.036,133.49 428.276,135.17 428.756,137.331 428.996,139.251 428.996,139.971 428.996,140.451    429.236,140.931 428.996,141.891 428.756,143.812 428.276,145.972 428.276,146.932 427.796,147.892 427.316,148.612    427.076,149.092 426.596,150.292 426.116,151.732 425.156,151.972 423.716,152.452 421.556,153.652 418.435,154.612    417.475,154.853 416.995,154.853 415.314,155.093 414.354,154.853 413.154,154.373 412.435,153.893 410.514,152.452    410.274,151.732 409.794,150.532 409.313,149.572 408.354,148.372 407.874,147.412 407.634,146.212 407.634,145.492    407.153,142.131 406.914,138.531 406.914,138.051 406.674,137.811 406.434,137.331 406.193,137.331 405.714,137.091    405.233,136.851 404.753,137.091 404.514,137.091 401.873,138.771 398.032,140.691 396.112,142.371 395.152,143.091    394.432,144.051 393.712,144.771 393.472,145.731 392.992,148.132 392.271,150.292 391.792,151.492 391.552,152.452    390.592,153.172 389.871,154.132 389.632,154.612 389.392,160.133 389.151,162.293 387.951,163.974 384.11,167.574 383.15,167.334    381.471,167.094 379.55,166.614 377.87,165.894 374.989,164.454 371.869,163.494 371.629,165.174 371.149,166.614 370.189,168.294    370.189,172.134 369.949,173.095 369.469,174.055 368.989,174.774 368.269,175.255 367.789,175.735 367.309,178.135    366.829,178.615 366.349,179.575 364.668,183.416 362.988,186.296 362.508,186.776 361.788,187.016 361.068,187.016    360.348,187.256 358.668,187.256 357.468,187.496 356.747,187.496 355.308,188.216 353.387,189.416 352.427,189.656    351.467,189.656 350.507,189.896 347.626,189.896 344.506,189.656 343.306,189.416 342.586,189.656 342.105,189.896    340.665,192.057 338.266,195.657 337.785,196.137 337.065,196.617 335.145,198.537 334.425,199.257 333.944,199.257    333.465,199.257 332.984,199.497 332.984,199.977 332.744,200.457 332.505,200.697 332.265,200.938 332.024,201.177    331.064,201.657 331.064,201.897 331.064,202.138 331.064,202.618 331.305,203.098 331.305,203.337 331.305,204.058    331.305,205.018 331.064,205.978 330.824,206.698 330.344,207.418 330.104,207.898 329.384,208.858 328.424,209.818    327.944,210.298 327.704,210.538 327.464,210.538 326.983,210.778 325.783,211.019 325.063,211.258 324.823,211.499    324.344,211.738 323.623,212.219 323.384,212.699 322.903,213.179 322.423,214.139 321.703,215.339 320.983,216.539    320.263,217.499 319.783,217.979 319.303,218.699 319.062,218.699 318.583,218.939 318.343,219.179 318.103,219.179    317.383,219.179 315.942,219.419 315.702,219.659 315.462,219.899 314.022,221.58 313.782,222.54 313.542,224.22 313.542,224.94    313.542,225.18 313.542,225.42 313.782,225.66 313.782,226.14 314.262,226.62 314.742,227.1 314.982,227.34 315.223,227.58    315.223,228.06 314.982,228.3 314.502,228.54 314.262,229.02 314.262,229.26 314.262,229.74 314.502,229.98 314.742,230.22    315.223,230.7 315.462,230.7 315.702,230.94 316.183,231.42 316.423,231.9 316.423,232.38 316.423,232.621 316.183,233.341    315.942,233.581 315.702,233.581 315.223,234.781 314.982,235.261 314.262,235.981 314.022,236.461 313.302,236.701    312.822,236.941 311.862,236.941 311.382,236.941 310.422,236.941 309.462,236.941 308.981,236.941 308.021,236.941    307.541,236.941 306.821,237.181 305.621,237.421 304.181,237.661 303.461,237.901 302.741,238.141 302.501,238.621    301.78,239.101 301.301,239.341 301.061,239.582 300.58,239.582 299.86,239.582 298.66,239.582 297.46,239.582 296.98,239.341    296.74,239.341 296.5,239.101 296.26,238.861 295.78,238.621 295.54,238.621 295.06,238.381 294.58,238.381 293.859,238.141    293.62,237.661 293.38,237.181 293.14,236.941 292.899,236.461 292.659,235.261 292.659,234.541 292.42,234.061 291.939,233.821    290.979,233.101 290.259,232.861 289.059,232.141 288.579,232.141 287.619,231.9 286.419,231.661 285.219,231.661 283.778,231.181    279.698,230.46 278.018,230.22 276.338,229.98 272.977,229.5 272.257,229.5 271.297,229.5 270.577,229.74 269.857,229.98    267.696,231.661 266.977,232.38 265.536,233.581 264.576,234.061 263.616,234.541 262.896,234.781 261.936,234.781    261.216,235.021 260.496,235.261 259.775,235.741 259.295,236.221 259.056,236.941 258.575,238.381 258.335,238.861    258.335,239.582 258.335,240.062 258.095,240.781 258.095,241.262 257.855,241.742 257.615,242.222 257.135,242.222    256.415,242.461 255.695,242.222 254.735,242.222 254.015,242.461 253.775,242.702 253.295,243.182 253.055,243.662    252.814,244.382 252.334,245.582 251.375,247.742 250.895,249.182 248.974,253.503 246.574,257.583 245.374,259.503    244.894,259.983 244.894,260.463 244.414,262.624 244.174,263.584 244.174,264.544 244.174,265.744 243.934,266.944    243.454,268.384 242.733,269.584 242.013,271.024 241.293,271.985 240.333,273.185 239.853,273.905 236.973,276.785    235.533,278.706 235.292,278.945 235.052,278.945 234.812,278.945 234.333,278.706 234.092,278.706 233.612,278.945    233.372,279.186 233.372,279.425 233.612,279.905 234.092,281.346 234.812,282.546 235.772,284.226 236.732,285.426    237.693,286.386 239.133,288.066 241.053,289.507 242.253,290.227 243.693,290.946 245.374,291.427 246.574,291.667    247.534,291.907 248.494,292.146 249.214,292.146 249.454,292.146 249.694,292.387 249.694,292.867 250.415,295.507    250.415,295.987 250.895,298.388 251.614,301.748 251.614,303.188 251.614,303.908 251.854,304.628 251.854,305.349    252.095,306.788 252.334,307.748 252.575,308.708 252.814,310.389 252.575,313.509 252.575,315.669 252.814,317.59 252.814,318.31    252.814,319.27 252.814,319.989 252.814,320.95 252.095,323.35 251.614,325.03 251.375,326.71 251.375,327.19 251.375,328.391    251.375,329.11 251.614,329.831 251.854,330.551 251.854,331.751 251.614,332.471 251.614,332.951 251.134,333.911    250.174,334.871 249.454,335.831 248.734,336.312 248.494,336.791 248.254,337.271 248.014,337.752 247.774,340.872    247.534,344.712 247.534,345.912 247.534,346.152 247.774,346.393 248.014,346.872 249.214,348.072 251.134,349.753    251.614,349.993 252.095,350.232 252.334,350.473 252.575,350.953 253.055,351.192 253.295,351.673 253.535,351.673    254.015,351.913 254.495,352.153 254.975,352.393 255.455,352.633 256.175,352.873 257.375,353.593 259.295,354.793    262.656,356.953 264.576,358.153 265.296,358.153 266.016,358.394 266.496,358.153 266.736,358.153 267.216,357.913    267.696,357.674 267.937,357.434 268.417,356.474 268.657,356.233 268.657,355.993 268.896,355.514 268.896,355.033    269.137,354.554 269.137,353.113 269.376,351.913 269.617,350.713 269.617,350.232 269.857,349.753 270.097,349.032    270.337,348.793 270.817,348.553 271.057,348.072 271.297,348.072 271.537,347.593 271.777,347.353 272.017,346.872    272.257,346.393 272.497,345.912 272.737,344.952 272.977,344.232 273.217,342.312 273.217,341.592 273.457,341.112    273.457,340.872 273.697,340.392 273.937,340.151 274.417,339.672 274.897,339.432 275.138,338.951 275.377,338.712    275.377,337.752 275.617,335.352 275.617,334.871 275.617,334.631 275.857,334.151 276.098,333.911 276.338,333.191    277.538,330.551 277.538,329.831 278.018,329.351 278.258,329.11 278.498,328.87 278.978,328.631 279.218,328.87 279.458,328.87    280.178,329.11 282.338,329.831 284.019,330.551 284.498,330.551 284.738,330.791 285.459,331.031 287.139,331.751    288.339,332.471 289.539,333.431 289.779,333.431 290.259,333.911 290.739,334.392 290.979,335.591 291.459,337.031    292.42,339.432 293.62,343.032 294.34,344.712 294.58,345.192 294.58,345.672 294.58,346.152 294.58,346.393 294.58,346.872    294.34,347.353 294.1,347.833 294.1,348.312 294.1,348.793 294.1,349.272 294.1,349.993 294.34,350.713 294.58,351.192    294.819,351.433 295.06,351.673 295.54,351.913 296.02,351.913 296.26,352.153 296.74,352.153 297.22,352.393 297.46,352.633    297.7,352.873 298.181,352.873 299.141,353.354 301.301,354.073 302.021,354.554 302.501,354.554 302.98,355.033 303.701,355.993    304.901,356.953 305.141,357.193 305.621,357.193 306.102,357.434 307.302,358.634 308.021,358.874 309.462,359.354    312.582,359.113 315.702,358.634 316.183,358.394 316.902,358.394 317.623,357.913 318.103,357.913 318.583,357.674    319.303,357.434 320.022,357.193 320.743,357.193 321.463,357.193 321.943,357.434 322.423,357.674 323.384,357.913    323.863,358.394 325.063,359.354 326.023,360.313 326.264,360.554 326.744,361.034 326.983,361.514 327.464,362.234    327.704,363.194 328.424,364.395 328.904,364.874 329.624,366.074 330.104,366.555 330.344,367.034 331.064,367.274    331.784,367.515 332.265,367.515 332.984,367.755 333.465,367.755 333.705,367.515 333.944,367.034 334.185,366.555    334.185,366.074 334.425,365.595 334.665,365.114 334.904,364.634 335.385,363.914 335.385,363.435 335.385,362.954    335.625,362.474 335.625,361.994 335.385,361.514 335.145,360.794 334.904,360.313 334.665,359.594 334.185,358.874    333.705,357.913 333.705,357.434 333.465,356.953 333.465,356.474 333.465,355.993 333.705,355.033 333.944,354.793    334.665,352.153 334.904,351.433 335.145,350.953 335.865,350.713 336.345,350.232 336.585,350.232 337.065,349.993    337.305,349.513 337.545,349.272 337.785,348.793 338.025,348.553 338.266,348.312 338.745,348.312 339.226,348.312    339.705,348.312 340.186,348.312 340.426,348.312 340.665,348.312 341.146,348.072 341.146,347.593 341.146,347.353    341.146,347.112 341.146,346.633 340.905,346.393 340.665,345.672 340.426,345.433 340.426,344.952 340.426,344.473    340.426,343.752 340.665,343.272 340.905,342.552 340.905,342.312 341.146,341.592 341.626,341.112 342.346,340.392    343.065,339.672 345.226,337.991 346.187,337.752 346.666,337.752 346.906,337.752 347.626,337.991 347.866,338.231    348.586,338.472 348.826,338.472 349.307,338.231 350.267,337.752 353.387,335.111 355.308,333.671 355.787,333.671    356.268,333.431 356.508,333.431 356.747,333.671 357.468,334.871 357.708,335.111 357.947,335.831 359.388,337.752    361.068,339.432 362.028,340.151 362.988,340.392 363.229,340.392 363.948,340.392 364.668,340.392 365.389,340.392    365.868,340.392 366.589,340.151 367.549,339.912 367.789,339.672 368.269,339.432 368.509,339.432 369.229,338.712    369.709,337.991 369.949,337.752 370.909,335.831 370.909,335.352 371.149,334.871 371.629,334.151 371.869,333.671    372.109,333.191 372.35,332.711 372.829,331.991 373.31,331.751 373.789,331.271 374.75,330.311 376.67,329.11 378.11,328.631    378.35,328.391 378.35,328.15 378.35,327.91 378.11,327.671 376.91,324.79 376.189,322.87 375.47,321.43 375.229,320.95    374.75,320.229 374.51,317.829 374.51,316.869 374.51,316.39 374.029,315.909 373.069,315.669 369.709,315.189 369.229,314.949    368.269,314.709 367.789,314.709 367.549,314.229 367.309,313.269 366.349,308.708 365.629,306.068 365.148,303.668    364.908,302.948 364.908,301.987 364.908,301.268 364.908,300.067 365.148,298.867 365.148,297.428 365.148,294.787    365.389,290.946 365.389,290.707 365.389,289.746 365.629,288.066 366.108,285.426 366.829,282.066 366.829,280.625    367.068,279.905 367.309,279.666 367.789,279.425 368.269,279.186 368.989,278.945 369.709,278.706 370.429,278.465    373.31,277.505 373.789,277.265 374.029,277.505 374.27,277.745 374.27,277.985 374.51,278.226 374.989,280.146 374.989,280.625    375.229,281.105 375.229,281.346 375.47,281.826 375.95,282.546 376.67,283.026 380.271,285.186 381.23,285.666 382.431,286.146    383.871,286.386 384.831,286.626 385.071,286.866 386.031,287.106 388.191,288.307 389.632,289.026 390.111,289.026    391.071,288.546 393.472,287.106 397.072,284.946 397.312,284.946 397.553,284.946 398.272,285.906 398.513,286.146    398.753,286.626 400.913,290.227 403.313,293.587 403.793,294.067 404.273,294.067 404.514,294.307 404.753,294.067    404.993,293.827 405.474,293.347 406.193,292.627 407.394,291.667 409.074,290.227 410.994,288.546 414.835,285.426    416.995,283.506 419.396,281.585 421.556,279.905 421.796,279.425 422.035,279.186 422.275,278.945 422.516,278.945    422.756,278.945 423.235,279.666 423.476,280.146 423.476,280.625 423.476,281.105 423.716,281.346 423.716,281.826    423.716,282.306 423.716,283.026 423.476,283.746 423.476,284.706 423.235,285.906 423.235,287.106 423.235,287.826    423.716,289.507 423.956,289.746 424.195,290.227 424.436,290.707 424.676,291.907 424.916,292.627 425.156,293.106    425.636,293.587 426.116,294.067 426.596,294.787 426.596,295.027 427.076,295.027 427.557,295.027 428.036,295.027    428.276,295.027 428.756,295.027 429.717,294.787 431.637,294.307 433.316,294.307 433.797,294.307 434.277,294.547    434.757,294.547 435.237,294.547 435.478,294.787 435.957,295.027 436.438,295.267 437.397,296.228 438.357,297.428    438.838,298.147 438.838,298.628 438.838,298.867 438.838,299.348 438.838,299.827 438.838,300.308 438.838,300.788    438.598,301.508 438.357,302.228 437.397,303.908 436.917,305.349 436.678,305.828 436.917,306.068 437.638,306.548    438.117,306.548 438.838,306.788 439.317,306.788 439.558,306.788 439.798,306.788 440.038,306.788 440.518,306.548    440.758,306.068 440.998,305.588 441.718,304.388 442.198,303.908 442.438,303.668 442.678,303.428 443.398,303.428    443.638,303.668 443.878,303.668 444.358,303.668 444.599,303.908 444.838,303.908 445.078,304.148 445.559,304.388    445.799,304.388 446.278,303.908 447.479,303.668 448.198,303.188 449.159,303.188 449.639,303.188 450.119,302.948    450.599,303.188 451.079,303.188 452.279,303.188 453.239,303.428 453.72,303.428 454.199,303.428 454.92,303.188 455.399,303.188    455.88,302.948 456.12,302.708 456.359,302.708 456.84,302.228 457.8,301.268 458.76,299.588 460.681,301.027 460.92,301.027    461.4,301.268 461.881,301.508 462.36,301.987 462.841,302.228 463.32,302.228 463.561,302.228 464.041,302.228 464.521,302.468    465.001,302.468 465.721,302.948 467.401,303.668 468.361,304.148 469.321,304.868 469.802,305.108 470.281,305.828    471.241,306.548 471.722,307.028 472.441,307.748 472.922,308.469 473.162,308.708 473.642,308.948 474.122,309.669    475.322,311.589 476.042,312.549 476.763,313.029 478.442,314.469 479.883,315.189 480.362,315.429 480.843,315.669    481.323,315.909 481.562,315.909 481.803,315.909 482.283,315.909 482.522,315.669 483.003,315.429 483.243,315.189    483.963,314.229 484.203,314.229 484.684,314.469 485.163,314.709 485.644,315.189 487.084,315.909 488.283,316.629    488.764,316.869 489.244,317.109 489.724,317.109  "/>
	
		<polyline fill="none" stroke="#A80000" stroke-width="1.2002" stroke-linecap="round" stroke-linejoin="round" stroke-miterlimit="10" points="   489.724,317.109 490.924,317.35 491.884,317.59 492.604,317.829 493.564,318.069 494.044,318.069 494.524,318.31 495.244,318.55    495.725,318.789 496.685,319.51 497.645,319.989 497.885,320.47 498.365,320.71 498.604,321.189 498.604,321.43 498.845,322.63    499.085,326.95 499.085,327.19 499.085,327.431 499.085,327.91 499.085,328.15 498.845,328.391 498.845,328.631 498.604,328.87    498.365,329.351 498.125,329.591 498.125,330.07 497.885,330.551 497.645,331.751 497.645,332.23 497.404,333.191 496.444,335.352    495.725,337.031 494.044,340.151 492.844,342.552 492.124,343.752 491.164,344.952 489.244,346.633 486.844,348.312    482.522,351.913 479.162,354.554 477.962,355.514 477.242,356.233 476.763,355.993 476.282,355.753 475.562,355.273    473.401,354.793 471.002,354.073 469.081,353.833 466.921,353.593 465.001,353.833 462.601,354.073 460.44,354.313 457.8,354.313    454.92,354.554 452.76,354.554 452.52,354.554 452.279,354.554 452.039,354.793 451.799,355.033 451.56,355.514 450.599,358.153    449.879,360.794 449.398,362.474 449.159,363.914 448.679,364.874 448.198,365.595 447.719,365.834 446.759,366.074    445.559,367.034 445.078,367.515 444.599,368.234 444.358,368.715 444.358,369.915 443.878,372.315 443.158,377.115    442.678,379.996 442.198,381.916 441.958,382.396 441.958,383.597 442.198,385.276 442.198,387.437 442.198,392.717    442.438,397.038 442.678,399.198 443.398,401.838 444.118,403.759 444.599,404.958 444.599,405.679 444.599,406.158    444.599,406.639 444.358,407.118 444.118,407.599 443.878,408.079 443.878,409.039 443.878,410.479 444.118,412.159    444.358,412.879 446.038,414.8 446.999,415.76 447.238,416 447.479,416.239 447.959,416.239 448.438,416.239 448.919,416.239    449.159,416.239 449.639,416.239 449.879,416.239 450.359,416 451.079,416 451.799,416 452.76,416 453.239,416 455.159,416.479    455.88,416.72 457.32,417.2 459,418.399 459.48,418.399 459.96,418.64 460.44,418.88 460.681,419.36 460.92,419.6 461.16,420.08    461.16,420.32 461.4,421.04 461.641,421.28 461.881,421.76 462.36,422 462.601,422.48 463.08,422.721 463.561,422.721    463.801,422.96 464.28,423.2 464.28,423.44 464.761,423.921 465.241,424.881 465.241,425.36 465.48,426.081 465.48,426.801    465.961,427.521 466.201,428.241 466.681,428.961 467.401,429.921 467.641,430.161 468.121,430.161 468.361,430.401    468.841,430.641 469.802,430.881 470.281,430.881 470.521,431.121 470.762,431.121 471.241,431.121 472.922,430.641    474.842,430.401 475.802,430.401 477.242,430.401 477.482,430.401 478.442,429.681 478.923,429.441 479.162,429.441    479.643,429.681 480.603,429.681 480.843,429.441 481.562,430.161 482.043,430.641 482.522,430.881 483.003,431.121    483.483,431.361 483.963,431.602 486.844,432.321 487.323,432.562 487.323,433.041 487.323,433.521 486.844,435.682    486.123,441.202 486.123,442.162 486.123,442.883 484.684,448.403 483.723,455.363 483.723,456.563 483.483,457.284    482.522,460.164 481.562,464.005 481.323,464.484 481.323,465.205 481.323,465.925 481.562,466.405 481.562,467.125    481.562,468.085 481.562,469.285 481.323,474.086 481.323,478.646 481.323,479.126 480.843,479.846 480.603,480.566    480.123,481.526 479.402,482.727 477.962,485.606 477.242,487.047 476.763,487.767 475.562,489.207 474.122,490.407    473.401,490.888 472.922,491.367 471.002,494.248 468.361,497.368 467.641,497.848 467.161,498.328 466.441,498.809    465.961,499.048 465.48,499.288 464.761,499.288 463.801,499.528 462.841,499.528 462.12,499.769 461.16,499.769 460.681,499.769    459.96,500.008 459.24,500.008 458.52,500.248 458.04,500.488 457.56,500.729 457.08,501.208 455.88,502.408 455.399,503.129    455.159,503.368 454.68,503.368 453.959,503.368 453.239,503.368 451.56,503.129 451.079,502.889 450.839,502.408 449.879,501.448    449.159,500.488 448.438,500.248 447.479,500.008 446.759,499.528 446.038,499.528 444.838,499.528 443.638,499.769    442.918,499.769 442.198,500.008 442.198,500.729 442.198,501.688 442.198,502.648 442.438,505.289 442.438,506.009    442.918,507.449 442.918,508.169 442.438,508.649 441.958,508.89 441.238,509.609 440.998,510.089 440.518,510.569    440.518,511.289 440.277,512.01 440.277,512.489 440.277,513.21 440.518,513.93 440.758,514.41 440.998,514.649 440.998,515.37    440.518,516.57 440.277,517.29 439.558,518.49 439.317,518.971 439.077,520.17 439.077,520.65 439.077,521.37 439.077,521.851    439.317,522.331 439.317,523.051 439.077,523.771 438.838,524.491 437.157,529.291 436.917,530.012 436.917,530.491    437.157,531.212 437.638,532.892 437.877,533.372 438.117,533.852 438.357,534.092 438.838,534.092 438.838,534.572    438.598,535.052 439.077,535.292 439.798,535.052 440.277,535.052 440.758,535.292 441.238,535.292 441.718,535.532    441.958,535.772 442.438,536.012 443.638,537.452 444.118,537.933 444.838,538.652 445.078,539.132 445.078,540.093    445.318,543.213 445.078,543.692 445.078,545.373 444.838,545.853 444.599,546.093 444.358,546.573 443.878,546.573    443.398,546.573 443.158,546.333 442.918,546.093 442.678,545.853 442.438,545.373 442.198,545.133 441.958,544.893    440.998,545.373 440.518,545.373 439.558,544.653 439.077,544.413 438.598,544.173 438.117,544.173 437.638,544.173    437.157,544.173 436.678,544.413 436.197,544.413 435.957,544.413 434.997,544.413 434.757,544.413 434.037,545.133    433.797,545.373 433.316,545.613 432.837,545.613 432.117,545.373 431.396,544.893 430.917,544.653 430.437,544.653    429.956,544.893 429.236,545.133 428.517,545.373 427.796,545.613 427.557,545.853 427.076,546.093 426.356,546.093    426.116,546.093 425.396,546.573 425.156,546.573 424.436,547.053 424.195,547.293 423.956,547.533 423.476,548.253    422.996,548.974 422.756,548.733 422.516,548.493 422.516,548.014 421.796,545.853 421.315,544.413 421.075,542.732    421.075,542.492 420.835,542.253 420.355,542.013 419.875,541.772 419.396,541.772 418.195,541.772 417.715,541.772    417.235,542.013 416.755,542.013 416.035,541.772 415.074,541.532 414.114,541.293 412.674,540.812 411.714,540.572    411.234,540.332 410.514,540.093 410.274,539.853 410.034,539.372 409.794,538.893 408.834,536.972 407.634,534.572    407.394,534.332 406.914,534.332 406.434,534.572 405.953,534.572 405.474,534.572 404.753,534.812 404.273,535.052    403.793,535.052 403.313,535.052 402.833,534.812 402.593,534.092 402.354,533.611 401.873,532.892 401.873,532.651    401.873,532.172 401.633,531.451 401.393,530.251 401.393,529.291 401.153,526.891 401.153,526.651 401.153,526.171    401.393,525.451 401.153,525.211 400.433,524.73 399.713,524.251 399.232,523.53 398.513,522.811 398.032,522.57 397.793,522.57    397.312,522.331 396.832,521.851 396.353,520.891 396.112,520.65 395.393,520.41 394.672,520.17 394.432,520.17 392.992,520.891    391.792,521.61 391.552,521.61 391.071,521.61 390.592,521.37 390.352,521.131 390.111,520.65 390.111,519.69 390.111,518.73    390.352,518.49 390.592,518.25 391.071,517.771 391.071,517.53 391.312,517.05 391.071,516.57 390.352,516.33 390.111,516.33    389.392,516.33 388.911,516.33 388.671,516.33 388.432,515.85 388.432,515.13 388.671,514.89 388.432,514.41 387.951,513.689    387.711,513.21 387.472,512.97 387.231,512.25 387.231,511.77 387.231,511.289 387.231,511.05 387.472,510.329 387.472,510.089    387.472,509.609 387.231,509.129 386.991,508.89 386.511,508.649 386.271,508.169 385.791,507.689 385.311,506.969    384.831,506.009 384.591,504.809 384.591,504.329 384.831,503.849 385.071,503.368 387.472,500.969 388.191,500.248    388.191,499.769 387.951,499.288 387.711,499.048 386.511,498.328 385.791,497.608 385.311,497.368 385.071,497.128    382.671,496.168 380.99,495.208 380.75,494.968 380.271,494.487 380.03,494.248 379.55,494.248 379.07,495.208 379.07,495.688    378.83,496.168 378.83,496.888 378.83,497.608 379.07,497.848 379.07,499.528 379.07,500.248 379.07,500.488 378.35,500.969    377.87,501.208 376.189,502.169 375.47,502.169 374.989,502.169 374.75,501.929 374.27,501.688 372.829,500.729 371.39,499.288    370.429,498.328 370.189,498.088 369.949,497.608 369.709,496.888 369.469,496.408 369.469,495.688 369.469,495.208    369.469,494.487 369.469,494.008 369.469,493.527 369.229,493.048 368.989,492.327 368.509,491.607 368.269,491.367    367.789,491.127 367.309,491.127 366.829,491.367 366.108,491.848 365.148,493.048 364.429,493.527 363.948,493.768    363.229,494.008 362.748,493.768 362.028,493.527 361.548,493.287 361.068,492.808 360.588,492.327 360.107,491.848    359.868,490.888 359.868,490.167 359.868,489.688 359.868,489.207 359.868,488.728 360.348,488.247 360.588,488.007    360.828,487.527 361.068,487.047 361.308,486.566 361.548,486.087 361.788,485.606 361.788,485.127 361.788,484.887    362.028,484.646 362.028,484.167 362.028,483.446 361.788,482.967 361.788,482.727 361.788,482.486 361.548,481.767    361.308,481.526 361.068,481.286 360.828,480.807 360.588,480.566 359.868,480.086 359.388,480.086 358.908,479.846    358.428,479.846 357.708,479.846 357.228,479.846 356.747,480.086 356.268,480.326 355.787,480.566 355.547,480.807    355.067,481.526 354.827,482.007 353.867,483.687 351.947,486.807 351.947,487.047 351.467,487.287 350.986,487.527    350.507,487.527 350.267,487.527 349.786,487.527 349.307,487.287 348.826,487.287 348.347,487.047 347.866,486.807    347.626,486.566 347.387,486.327 347.146,486.087 346.426,485.847 345.466,485.367 344.746,484.887 344.266,484.887    344.025,484.646 343.546,484.646 343.065,484.887 342.586,485.367 342.346,485.606 342.105,486.087 342.105,486.566    341.865,486.807 341.626,487.287 341.626,487.767 341.386,488.247 341.146,489.207 341.146,489.688 341.146,490.167    341.146,491.607 340.905,492.088 340.665,492.327 340.186,492.567 339.945,492.567 339.465,492.567 338.745,492.327    338.505,492.088 338.025,491.848 337.545,491.607 336.585,491.127 335.625,490.647 335.385,490.407 334.904,490.407    334.425,490.167 333.944,490.167 333.465,490.167 333.225,490.167 332.744,490.407 332.505,490.647 332.265,491.127    332.265,491.367 332.024,491.848 332.265,492.088 332.265,492.327 332.265,493.527 332.505,495.208 332.505,495.448    332.265,495.928 332.265,496.168 331.784,496.647 331.305,496.647 331.064,496.647 330.584,496.647 330.344,496.647    329.384,496.408 328.664,496.168 328.184,495.928 327.464,495.688 325.544,494.487 325.063,494.487 324.344,494.487    323.863,494.968 323.384,495.208 322.903,495.448 322.663,495.928 322.184,496.168 321.703,496.408 321.463,496.888    321.223,497.128 320.263,497.368 319.543,497.368 319.062,497.128 318.343,496.888 317.383,496.408 316.662,495.688    315.942,495.208 314.982,493.768 314.022,492.808 313.542,492.088 313.302,491.607 312.342,490.407 312.102,489.447    311.622,487.767 311.382,487.047 311.382,486.087 311.382,485.606 311.622,484.406 311.862,483.927 312.102,483.687    312.582,482.727 312.582,482.246 312.822,481.046 312.822,479.846 312.822,479.126 312.822,478.646 312.582,477.926    311.622,476.246 310.422,473.365 308.981,471.205 308.502,470.965 308.021,470.726 307.302,470.726 306.102,470.726    304.661,470.485 303.701,470.485 302.501,470.485 299.86,470.965 299.62,470.965 299.141,470.965 298.181,470.965 297.46,470.965    296.5,470.965 295.78,470.726 293.859,470.245 292.659,469.765 291.699,469.285 290.499,468.805 290.02,468.565 289.539,468.325    288.819,468.325 287.379,468.325 284.979,467.845 283.778,467.845 282.099,467.604 280.658,467.125 278.018,466.405    274.657,464.725 273.217,463.524 270.817,461.604 269.376,460.645 268.417,459.924 266.736,459.204 264.576,458.724    263.856,458.484 263.376,458.244 262.656,458.004 261.936,458.004 260.976,458.004 258.095,457.523 257.375,457.284    256.175,457.044 254.975,456.804 253.055,456.324 252.575,456.084 252.334,455.844 251.854,455.604 251.375,455.124    250.654,454.403 250.174,453.924 249.214,453.443 248.014,452.724 247.774,452.483 247.054,452.243 246.334,452.003    245.134,452.003 242.493,451.523 240.333,451.283 233.853,450.563 233.132,450.563 232.892,450.803 232.652,451.523    231.212,454.644 228.812,459.924 228.332,461.124 227.372,463.765 227.372,464.484 227.131,464.965 227.131,465.685    227.131,466.165 227.131,466.885 227.372,468.805 227.611,469.285 227.611,469.765 227.611,470.245 227.611,470.965    227.611,471.445 227.131,473.365 227.131,473.846 226.892,474.325 226.892,474.806 226.892,475.046 226.892,475.766    226.892,476.246 226.892,476.966 226.892,479.606 226.651,481.046 226.651,481.767 226.412,482.246 226.412,482.486    226.651,483.206 226.892,483.927 226.892,484.167 226.892,484.646 226.892,485.606 226.892,486.327 226.651,487.527    225.931,490.407 225.211,495.448 224.491,500.488 224.491,501.208 224.491,502.889 224.491,505.289 224.731,507.449    224.491,507.929 224.011,508.649 223.771,509.129 223.051,508.89 222.811,508.649 222.571,508.169 222.091,507.689    221.611,507.449 221.371,507.209 221.131,506.969 220.651,506.969 220.17,506.729 219.931,506.489 219.21,506.489 218.971,506.009    217.771,504.329 217.53,504.329 217.29,504.089 216.81,504.089 216.57,504.089 216.09,504.089 215.85,504.089 215.13,504.568    213.93,505.529 213.69,505.529 212.97,505.769 212.49,505.529 212.01,505.289 211.529,504.809 211.049,504.568 210.569,504.329    209.849,504.089 209.369,503.849 208.409,503.368 206.249,502.648 205.049,502.169 204.329,501.688 204.089,501.448    203.128,500.248 202.648,499.528 201.448,497.608 200.008,494.248 198.328,491.607 197.128,489.207 195.448,486.327    194.248,484.887 192.327,481.767 190.167,478.646 188.727,476.966 188.487,476.726 188.007,476.485 187.767,476.246    187.046,476.246 186.566,476.246 186.327,476.006 185.846,476.006 184.886,474.806 184.166,474.565 183.686,474.325    183.206,474.086 182.486,473.365 181.286,471.445 180.806,470.965 180.806,470.726 180.806,470.245 180.806,470.005    181.046,469.525 181.046,468.805 181.046,468.565 180.566,466.645 179.366,462.805 179.366,462.084 179.125,461.845    178.166,460.645 177.205,459.204 175.765,457.764 175.045,457.284 174.565,457.044 173.605,455.844 172.405,454.644    171.205,453.443 170.245,452.964 167.844,451.283 167.604,450.803 167.604,450.563 167.604,449.843 167.364,449.604    167.124,448.163 167.124,447.442 166.884,446.723 166.644,444.562 166.644,444.322 166.404,442.883 165.684,440.482    164.964,438.562 163.523,435.922 162.323,434.001 161.124,431.841 160.163,430.401 159.683,429.921 158.723,429.201    158.243,428.48 156.803,427.28 155.843,426.561 155.363,426.081 154.402,425.601 152.242,424.881 150.562,424.16 149.362,423.921    148.882,423.681 148.882,423.44 148.402,423.2 148.402,421.76 147.922,417.92 147.922,415.52 147.682,415.279 147.202,414.56    146.961,413.839 146.242,412.64 146.242,412.399 146.001,412.159 145.761,411.199 145.761,410.719 145.761,410.239    145.761,409.759 145.761,409.279 146.001,409.039 146.242,408.318 146.242,408.079 146.722,407.118 147.202,405.438    147.682,405.198 148.162,404.719 148.642,404.479 149.122,404.238 149.602,403.759 149.842,403.278 150.322,402.798    150.802,402.559 151.282,402.318 151.522,402.078 152.002,401.838 152.482,401.598 153.202,401.598 153.683,401.598    154.402,401.598 154.883,401.598 155.363,401.598 155.843,401.598 156.803,400.878 157.523,400.398 158.003,400.158    158.483,399.918 158.963,399.678 159.683,399.438 160.403,399.198 163.284,397.758 165.924,396.317 166.164,396.077    166.644,395.598 167.124,395.357 167.604,395.357 167.604,394.638 167.604,394.397 167.604,393.917 167.364,393.438    167.124,393.197 167.124,392.957 166.884,392.237 166.884,391.997 167.364,391.517 167.844,391.037 167.844,390.797    167.844,390.317 167.844,390.077 167.604,388.637 167.604,388.396 167.604,387.917 167.364,387.437 167.364,386.957    167.124,386.477 166.884,386.236 166.644,386.236 166.164,385.996 165.684,385.996 165.204,385.996 164.484,386.236    164.244,386.236 163.764,386.477 163.523,386.717 163.043,386.717 162.804,386.717 162.323,386.717 161.843,386.236    161.604,385.996 161.363,385.757 160.883,385.517 160.403,385.276 159.923,385.036 159.683,384.796 159.443,384.796    158.963,384.557 158.723,384.316 158.243,384.076 157.763,383.836 157.523,383.597 157.043,382.876 156.563,382.396    156.323,382.156 156.083,381.436 156.083,381.196 155.843,380.716 155.603,379.996 155.603,379.756 155.363,379.275    155.603,378.556 155.603,377.836 155.603,377.596 155.363,377.115 155.363,376.636 155.123,376.155 153.922,375.436    153.202,374.715 152.482,374.235 148.882,371.835 147.441,371.354 146.961,371.354 146.481,372.075 146.001,372.795    144.801,374.715 143.361,376.155 142.641,377.115 141.681,378.556 141.441,379.516 141.441,380.476 141.201,381.196    141.441,381.916 141.921,382.636 142.401,383.597 142.881,384.076 142.881,384.316 142.881,384.796 142.881,385.517    142.641,387.196 142.641,388.877 142.401,389.356 141.921,389.837 141.441,390.557 140.961,391.757 140.001,394.397    139.761,395.357 139.521,396.317 139.281,397.518  "/>
	
		<polyline fill="none" stroke="#A80000" stroke-width="1.2002" stroke-linecap="round" stroke-linejoin="round" stroke-miterlimit="10" points="   139.281,397.518 138.801,401.118 137.84,405.438 136.88,408.559 135.92,411.679 135.44,413.119 134.24,413.839 133.04,414.319    132.56,414.319 132.08,414.079 131.6,413.6 131.36,413.359 130.879,413.359 129.199,413.839 125.839,414.079 124.639,414.079    122.958,413.839 121.999,413.839 120.798,413.839 119.598,413.6 119.118,414.319 118.158,414.319 116.958,414.56 116.238,414.56    114.798,414.8 114.317,414.8 113.598,415.039 112.877,415.76 111.437,417.68 110.717,418.88 110.477,419.12 109.277,419.12    108.317,418.399 107.837,417.92 107.357,417.439 106.876,417.2 105.677,416.72 105.196,416.479 104.477,416.479 103.996,416.479    103.276,416.239 102.796,415.76 101.836,414.56 100.396,412.64 99.676,410.719 99.436,409.759 99.196,408.559 98.956,407.118    98.716,402.798 98.956,400.158 98.716,399.198 98.476,398.958 96.315,397.998 96.075,397.758 95.115,397.758 94.155,397.518    93.195,397.277 92.715,396.798 91.995,396.077 91.515,394.877 91.275,393.917 91.275,393.438 91.275,392.478 91.275,391.757    91.275,391.517 91.035,391.037 90.314,390.317 89.834,389.597 88.875,388.396 88.395,387.196 88.154,386.236 87.915,385.036    87.434,383.836 87.434,382.636 87.194,381.676 87.434,379.996 87.915,377.355 88.154,376.636 88.395,376.155 89.114,375.676    89.595,375.195 91.035,372.075 93.435,367.995 96.555,362.474 99.676,358.634 103.756,352.153 107.357,347.112 110.477,341.592    111.437,339.672 111.677,338.951 111.677,338.231 111.677,337.752 110.957,336.552 110.717,335.591 110.717,334.631    110.957,332.23 110.957,330.551 110.957,329.591 110.717,328.87 110.717,328.631 110.717,327.91 110.717,327.19 110.717,325.51    110.957,320.95 111.197,319.51 111.677,317.35 112.637,314.949 114.558,312.309 117.918,308.708 118.398,307.748 118.638,307.269    118.638,306.548 118.398,306.068 117.678,304.868 116.958,304.628 115.038,303.668 114.558,303.428 113.837,303.428    113.357,303.668 111.677,303.908 110.957,303.908 110.477,303.428 109.757,302.948 107.597,301.987 104.477,300.548    103.756,300.308 103.036,300.308 102.556,300.308 101.596,300.788 97.036,301.748 95.835,301.508 95.355,301.268 94.875,300.308    94.155,298.867 93.915,297.428 93.675,295.987 93.675,292.627 93.675,289.746 94.155,288.307 95.115,286.146 95.115,285.186    95.115,284.466 94.875,283.986 94.395,283.266 94.155,282.306 93.915,280.866 93.195,277.265 92.955,272.945 92.955,270.544    92.955,267.424 92.955,266.464 92.955,265.984 93.195,265.504 93.675,265.024 94.395,264.544 94.395,264.064 94.395,263.104    94.635,261.664 95.115,260.704 95.595,258.783 96.795,256.623 97.516,254.703 98.235,254.943 98.716,253.983 100.156,251.583    101.116,249.663 101.596,248.462 101.836,247.262 101.596,246.542 101.596,244.622 101.596,243.902 101.836,242.942    102.316,241.501 102.796,240.062 103.276,237.421 103.756,234.781 104.236,231.9 104.236,231.181 104.477,230.46 104.477,229.5    104.236,229.02 103.036,226.86 100.396,224.22 97.516,221.58 96.075,220.139 95.355,218.459 94.635,216.779 94.395,213.659    94.395,213.179 94.155,212.458 93.675,212.219 92.955,211.738 91.275,210.778 89.834,210.298 89.114,209.818 88.395,209.098    87.674,207.898 87.194,207.178 86.714,206.698 85.754,206.218 82.394,204.298 78.313,202.377 77.353,201.417 75.673,200.697    70.632,198.297 64.151,195.177 62.951,194.697 62.471,194.217 61.271,193.977 60.791,193.977 59.831,193.977 58.391,194.217    57.911,194.217 57.19,194.457 56.23,194.697 54.55,194.697 53.11,194.697 50.95,194.217 50.71,193.736 50.95,193.256    50.47,193.256 50.47,192.776 50.71,192.296 50.95,192.057 50.71,191.576 49.99,190.616 49.51,190.616 49.27,190.856    49.029,190.856 48.31,190.376 48.31,188.456 48.069,186.536 47.83,185.336 47.109,184.616 45.669,183.656 45.429,183.416    44.949,183.176 44.709,182.936 44.709,182.456 44.709,182.215 44.469,181.735 44.229,181.495 44.229,181.015 44.229,180.775    43.989,180.535 43.749,180.295 43.269,180.055 43.029,179.815 42.789,179.575 42.549,179.335 42.549,179.095 42.549,178.855    42.309,178.615 42.309,178.375 42.309,178.135 42.069,177.895 42.069,177.655 42.069,177.415 42.069,176.935 42.069,176.695    41.829,176.215 41.829,175.975 41.588,175.495 41.108,174.774 39.908,173.095 39.668,172.614 39.188,172.614 38.468,172.375    37.988,172.854 37.508,172.614 37.268,172.375 37.028,171.654 36.548,171.414 35.828,171.174 33.908,171.174 33.667,170.934    33.428,170.694 32.948,170.454 32.708,170.214 32.467,169.974 32.467,169.734 32.228,169.254 32.228,169.014 31.987,168.774    31.987,168.294 31.748,168.054 31.748,167.814 31.748,167.574 31.987,167.094 31.987,166.854 31.987,166.614 32.228,166.134    32.228,165.654 32.228,165.174 31.987,164.934 31.748,164.454 31.748,164.213 31.507,163.974 31.507,163.733 31.507,163.253    31.507,163.014 31.507,162.773 31.507,162.533 31.268,162.293 31.027,161.813 30.547,161.573 30.307,161.333 29.827,161.333    29.587,161.093 29.107,161.093 28.627,160.613 28.627,160.133 28.387,159.413 28.387,158.693 28.387,158.213 28.147,157.973    27.907,157.733 27.427,157.493 27.187,157.733 27.187,157.973 26.707,158.213 26.707,157.733 26.707,157.493 26.707,157.253    26.467,157.013 26.467,156.773 26.467,156.533 26.227,156.293 26.227,156.053 25.987,156.053 25.747,155.812 25.747,155.573    25.507,155.333 25.267,155.093 25.026,154.853 25.026,154.373 25.026,153.893 25.267,153.172 25.267,152.933 25.026,152.452    25.026,151.972 24.546,151.732 24.307,151.492 23.827,151.012 23.346,150.772 23.106,150.532 22.866,150.532 23.106,147.172    22.386,146.932 23.346,145.972 23.586,145.731 23.586,145.492 23.827,145.251 24.066,145.012 24.066,144.531 24.066,144.051    23.827,143.812 23.586,143.571 24.307,142.131 26.947,141.891 27.187,141.891 27.667,141.891 27.907,141.891 28.147,142.131    28.387,142.131 28.867,142.131 29.107,142.131 29.347,141.891 29.587,141.651 29.827,141.651 30.067,141.651 30.307,141.411    30.547,141.171 30.547,140.931 30.547,140.451 30.787,139.971 31.027,139.251 31.268,138.051 32.228,137.811 32.467,135.65    32.467,133.49 32.708,133.49 33.188,133.49 33.428,133.73 33.667,133.73 33.908,133.73 34.388,133.73 34.628,133.73 34.868,133.73    35.348,133.73 35.828,133.73 36.068,133.73 36.548,133.49 37.028,133.25 37.268,133.25 37.508,132.771 37.748,129.41    39.428,128.93 39.908,129.17 40.148,129.41 40.389,129.41 40.628,129.65 40.869,129.41 41.349,129.41 41.349,128.93 41.588,128.93    42.309,128.93 42.789,128.69 43.509,128.69 43.989,128.69 44.469,128.45 46.389,127.73 47.109,127.49 47.349,126.53 47.83,127.25    48.79,126.77 49.75,126.29 50.47,126.05 50.71,125.569 50.95,125.33 51.19,125.089 51.43,124.85 51.91,124.129 52.15,123.409    52.87,122.209 53.35,121.009 53.83,120.049 54.07,119.329 54.31,118.609 54.55,118.129 54.79,117.169 55.03,116.688    55.271,115.969 55.271,115.488 55.51,115.249 55.75,115.008 55.99,114.528 57.19,113.809 57.911,113.328 58.391,113.328    59.351,113.328 60.551,113.088 61.511,113.088 62.231,112.848 62.471,112.848 62.711,112.848 63.191,112.848 63.671,112.848    64.151,112.848 64.631,112.848 64.872,112.848 65.352,112.608 65.592,112.848 66.072,112.848 66.552,113.088 66.792,113.328    67.032,113.568 67.272,113.809 67.512,114.048 67.992,114.048 68.472,114.289 68.712,114.289 68.952,114.528 69.432,114.769    70.392,115.008 71.352,115.008 71.833,115.249 72.072,115.488 72.312,115.729 72.312,116.208 72.312,116.688 72.312,116.929    72.552,117.169 72.552,117.409 72.792,117.649 73.033,117.889 73.272,118.129 73.513,118.369 73.513,118.849 73.513,119.089    73.752,119.329 73.993,119.569 74.473,119.809 75.193,120.049 75.433,120.289 75.433,120.529 75.673,121.009 75.673,121.249    75.913,121.489 76.153,121.489 76.393,121.729 76.633,122.209 76.873,122.689 76.873,122.929 76.873,123.169 77.353,123.409    78.073,123.649 78.553,123.649 78.553,124.129 78.793,124.37 78.793,124.609 78.793,125.089 79.033,125.33 79.033,125.81    79.513,125.81 79.993,126.05 80.233,125.81 80.713,125.569 80.713,125.33 81.193,125.089 81.434,124.85 81.673,124.85    81.914,125.089 82.394,125.569 82.634,125.81 82.634,126.05 82.634,126.53 82.634,126.77 82.634,127.25 82.634,127.49    82.634,127.73 82.874,127.97 83.354,127.97 83.594,128.21 83.834,128.45 84.074,128.69 84.314,128.69 84.554,128.93 85.034,128.93    85.274,128.93 85.754,129.17 85.994,129.41 86.234,129.65 86.474,129.89 86.714,130.13 86.954,130.61 86.954,130.85 86.954,131.33    86.954,131.81 87.434,132.05 87.674,132.05 88.154,132.05 88.634,132.05 88.875,131.81 89.354,131.81 89.595,131.57 90.314,131.81    91.035,131.81 91.275,131.57 91.755,131.57 92.235,131.33 92.475,132.05 92.475,132.29 92.715,132.53 92.715,132.771    92.475,133.01 92.475,133.25 92.475,133.49 92.475,133.73 92.475,133.97 92.475,134.21 92.235,135.17 91.995,136.131    91.995,137.091 91.995,138.291 91.995,139.731 92.235,139.971 92.235,140.211 92.475,140.451 92.715,140.691 92.715,141.171    92.715,141.411 92.955,141.891 92.955,142.131 93.195,142.371 93.435,142.611 93.675,142.611 94.155,142.852 94.635,143.332    95.115,143.571 95.355,143.812 95.835,143.812 96.075,143.571 96.075,143.332 96.075,143.091 96.315,142.852 96.555,142.611    96.795,142.611 97.275,142.611 97.516,142.852 97.755,143.091 97.755,143.332 97.516,143.571 97.516,144.051 97.516,144.292    97.996,144.531 98.235,144.771 98.476,145.012 98.716,145.492 98.956,145.731 98.956,146.212 99.196,146.452 99.436,146.692    99.436,147.172 99.676,147.412 99.916,147.412 101.116,147.412 101.356,147.652 101.596,147.652 101.596,147.892 101.836,148.372    101.596,148.612 101.596,148.852 101.596,149.092 101.596,149.332 101.596,149.572 101.596,149.812 101.596,150.052    101.596,150.292 101.596,150.532 101.836,150.772 101.836,151.252 101.836,151.732 101.836,151.972 101.836,152.452    101.836,152.933 101.836,153.413 101.836,153.652 102.076,154.132 102.316,154.373 102.556,154.612 102.796,154.612    103.756,154.853 103.996,154.853 104.236,154.853 104.477,155.093 104.716,155.093 104.957,155.333 105.196,155.573    105.437,155.812 105.677,156.053 105.677,156.293 105.917,156.293 106.157,156.533 106.396,156.773 106.637,157.013    107.117,157.253 107.357,157.253 107.597,157.493 107.837,157.493 108.077,157.493 108.317,157.733 108.557,157.733    108.797,157.733 109.037,157.733 109.757,157.733 112.157,158.213 115.278,158.933 115.758,158.933 115.998,158.933    116.238,158.693 116.718,158.453 117.918,157.973 118.638,157.493 118.878,157.253 119.118,156.773 119.598,156.053    119.838,155.812 120.078,155.573 120.318,155.333 120.559,155.333 121.519,155.093 122.719,154.612 123.679,154.373    124.639,154.132 125.599,153.893 127.039,153.652 127.759,153.413 128.959,153.413 129.919,151.972 129.919,151.492    130.16,151.252 130.399,151.012 130.64,150.772 130.879,150.532 131.12,150.292 131.6,150.052 131.84,150.052 132.08,149.812    133.52,149.092 133.04,146.932 132.8,146.452 132.8,145.731 132.56,145.251 132.56,144.531 132.32,143.812 132.32,143.332    132.32,142.611 132.32,142.131 132.32,141.411 132.32,140.931 132.32,140.451 132.32,139.971 132.32,139.491 132.32,139.011    132.32,138.531 132.32,138.051 132.32,137.571 132.32,137.091 133.04,133.73 133.52,130.61 133.76,127.73 134,126.05    134.24,125.33 134.48,125.33 136.64,125.569 136.88,125.81 137.36,125.81 137.601,126.05 137.84,126.05 138.32,126.29    138.561,126.53 138.801,126.77 139.041,127.01 139.281,127.25 140.241,127.97 140.961,127.01 141.441,126.05 142.641,124.609    143.121,123.89 143.841,123.409 144.321,123.169 145.281,122.929 147.922,122.209 150.322,121.969 152.482,121.489    154.643,121.249 154.883,121.249 155.363,121.249 155.603,121.249 156.083,121.489 156.323,121.489 156.563,121.729    157.043,121.969 157.283,121.969 157.523,122.209 158.963,123.169 159.203,123.409 159.443,123.409 159.923,123.649    160.163,123.649 160.643,123.649 160.883,123.649 161.363,123.649 161.843,123.649 162.083,123.649 164.964,122.689    165.204,122.449 165.204,122.209 165.444,122.209 166.404,121.729 166.644,121.729 167.124,121.969 167.844,122.209    168.324,122.449 168.564,122.689 169.044,122.929 169.284,123.169 169.284,123.409 169.524,123.89 169.765,124.129 170.004,124.37    170.484,124.609 171.205,125.089 171.685,125.569 172.165,125.81 172.405,126.05 172.645,126.29 172.885,126.53 173.125,126.77    173.365,127.01 173.365,127.25 174.805,126.77 176.005,126.53 179.605,125.569 180.566,125.089 181.526,124.37 181.766,124.129    181.766,123.649 182.006,123.169 182.246,122.449 182.486,121.969 182.726,121.729 182.966,121.489 183.206,121.009    183.446,120.529 183.446,120.289 183.446,119.809 183.206,119.089 182.966,118.849 182.966,118.369 182.966,118.129    183.206,117.889 183.206,117.409 183.206,117.169 183.206,116.929 183.206,115.969 183.206,115.249 182.966,115.008    182.966,114.289 182.966,113.568 182.966,112.848 183.206,112.368 183.206,112.128 183.686,111.408 183.926,111.168    184.166,110.928 184.406,110.928 184.886,110.688 185.126,110.208 185.126,109.728 185.126,109.488 185.366,109.008    185.366,108.768 185.366,108.288 185.366,107.808 185.366,107.568 185.126,107.328 184.646,107.568 184.406,107.568    183.926,107.328 183.686,106.607 183.446,104.688 182.966,102.287 182.486,100.847 182.486,100.127 182.486,99.407 182.966,95.807    182.966,94.126 182.966,93.406 182.726,92.926 182.726,92.686 182.246,92.206 182.006,91.726 181.766,91.486 181.286,91.006    180.566,90.766 179.846,90.286 179.125,90.046 178.886,89.806 178.646,89.566 178.166,88.846 177.925,88.366 177.686,88.125    177.925,87.646 179.366,88.125 180.085,88.125 181.286,88.125 182.006,88.125 183.926,88.366 184.406,88.605 184.166,89.086    185.126,89.086 185.366,89.326 185.606,90.286 186.807,89.806 187.526,90.046 187.767,90.526 187.526,90.766 187.526,91.006    187.287,91.246 186.807,91.726 186.566,92.206 186.327,92.446 186.327,92.686 186.566,92.926 186.566,93.406 187.287,93.646    187.526,93.886 188.007,93.886 188.487,93.886 188.727,93.886 189.207,93.886 189.207,93.646 189.447,93.406 189.927,92.926    190.167,92.686 190.407,92.686 190.647,92.686 191.127,92.686 191.367,92.686 191.607,92.686 192.087,92.686 192.567,92.446    193.047,92.446 193.527,92.206 194.007,92.206 194.248,92.446 194.487,92.686 194.728,92.686 194.728,92.926 194.967,93.406    194.967,93.646 194.728,94.126 194.728,94.606 194.728,94.846 194.487,95.326 194.487,95.566 194.007,96.046 193.768,96.526    193.768,96.767 194.007,97.007 194.007,97.487 193.527,101.807 193.287,103.007 193.047,105.888 192.087,109.728 191.847,111.648    191.607,113.088 190.887,117.409 190.407,119.569 190.407,120.049 192.807,121.009 194.248,121.009 194.967,121.249    196.648,121.729 198.088,121.969 199.768,122.209 200.488,122.449 200.968,122.929 201.928,124.609 202.889,125.33 203.849,125.81    206.489,126.53 209.369,126.77 212.729,127.25 213.93,127.01 219.69,126.29 220.651,125.81 221.371,125.33 222.571,123.169    222.571,121.729 222.331,120.529 222.091,119.569 222.091,118.609 223.531,112.608 223.771,110.448 224.491,105.407    224.731,103.007 225.211,101.087 225.691,99.407 226.412,98.207 227.131,95.326 228.332,88.125 228.572,85.965 228.332,83.085    228.572,81.885 228.812,80.685 229.772,78.524 230.492,76.845 231.452,75.645 232.652,73.724 235.772,69.164 237.453,69.644    241.773,71.324 243.454,72.284 243.934,72.284 245.134,72.524 246.574,72.524 248.494,72.284 252.814,71.564 259.295,69.404    261.936,68.684 266.256,66.523 268.177,65.803 269.137,65.563 269.857,65.563 270.817,65.323 271.537,65.323 272.497,65.083    273.457,64.843 274.178,64.604 274.897,64.604 275.377,64.604 276.098,64.604 276.577,64.843 276.817,64.843 277.058,65.323    277.538,65.803 278.018,66.764 278.978,69.164 279.458,69.644 280.178,70.364 280.658,71.084 280.898,71.564 280.898,71.804    280.658,72.524 283.299,73.724 291.459,76.604 293.14,72.764 296.26,70.604 300.58,67.483 302.501,65.563 303.941,63.643    304.661,61.243 306.102,58.603 306.341,56.683 307.062,55.002 308.981,51.402 310.182,49.722 310.182,48.042 313.062,44.681    313.542,44.201 314.262,43.961 314.742,39.4 313.062,37 312.582,34.36 312.102,32.92 313.542,30.28 314.022,28.839 314.022,27.399    314.502,24.999 314.742,22.599 314.262,21.399  "/>
	
		<polyline fill="none" stroke="#A80000" stroke-width="1.2002" stroke-linecap="round" stroke-linejoin="round" stroke-miterlimit="10" points="   314.262,21.399 314.022,19.958 313.782,19.479 314.022,19.239 314.022,18.758 314.742,18.039 316.902,17.078 318.343,16.838    319.062,16.838 319.543,16.838 320.263,17.078 320.983,17.559 321.463,17.559 322.184,17.559 322.903,16.838 324.823,15.158  "/>
	
		<polyline fill="none" stroke="#A80000" stroke-width="1.2002" stroke-linecap="round" stroke-linejoin="round" stroke-miterlimit="10" points="   134.96,252.303 138.081,252.542 140.241,252.542 142.161,252.303 143.841,251.823 144.801,251.583 146.001,251.343    146.242,250.862 146.481,250.143 146.722,249.902 148.402,249.902 152.242,250.623 156.563,251.583 158.243,251.583    158.723,251.583 159.203,251.583 159.443,251.583 159.443,251.343 160.403,248.222 162.323,242.222 162.563,241.262    162.804,241.021 163.284,240.781 167.124,237.661 167.844,236.941 168.564,235.501 171.205,230.7 172.405,227.82 168.084,222.06    165.684,220.379 162.804,217.739 160.643,216.059 158.963,214.859 157.763,213.898 156.803,213.659 152.482,212.219    148.162,210.778 145.761,209.818 143.841,209.578 142.881,209.578 141.441,210.298 138.801,211.258 134,213.418 127.279,216.059    126.079,217.019 125.359,217.739 123.919,221.1 120.318,226.62 118.878,229.02 118.638,229.74 118.158,230.94 117.918,233.341    118.158,238.381 118.158,239.582 117.918,240.062 118.158,240.781 118.398,241.501 120.078,242.942 124.159,247.022    127.519,249.663 129.919,251.103 130.879,251.583 132.08,252.062 134.96,252.303  "/>
</g>
<switch><text transform="matrix(1 0 0 1 286.0605 413.3955)" font-family="'ArialMT'" font-size="12" id="trsvg2-mag" systemLanguage="mag"><tspan id="trsvg1-mag">१</tspan></text><text transform="matrix(1 0 0 1 286.0605 413.3955)" font-family="'ArialMT'" font-size="12" id="trsvg2"><tspan id="trsvg1">1</tspan></text></switch>
</svg>
