<?xml version="1.0" encoding="utf-8"?>
<!-- Generator: Adobe Illustrator 15.0.3, SVG Export Plug-In . SVG Version: 6.00 Build 0)  -->
<!DOCTYPE svg PUBLIC "-//W3C//DTD SVG 1.1//EN" "http://www.w3.org/Graphics/SVG/1.1/DTD/svg11.dtd">
<svg xmlns="http://www.w3.org/2000/svg" xmlns:xlink="http://www.w3.org/1999/xlink" version="1.1" id="Ebene_1" x="0px" y="0px" width="428px" height="145px" viewBox="0 0 428 145" enable-background="new 0 0 428 145" xml:space="preserve">
<g>
	<path fill="#FFFFFF" d="M21.493,26.188l0.239,0.24h0.24l0.24,0.24v-0.24l0.24,0.24h0.239h0.24l0.24,0.24v0.24h0.24l0.239,0.24h0.24   v0.24h0.24h0.24h0.239h0.24v-0.24h0.24h0.24h0.239h0.24h0.24h0.24h0.24h0.479h0.24h0.24l0.239-0.24h0.24h0.24h0.24h0.239l0.24,0.24   l0.24,0.24v0.24v0.24v0.24v0.24l0.24,0.24h0.239h0.24h0.24h0.24l0.239,0.24h0.24h0.24v0.24h0.24l0.239,0.24l0.24,0.24l0.24,0.24   l0.24,0.24l0.24,0.24h0.239v-0.24v-0.24v-0.24l0.24-0.48v-0.24l0.24-0.24v-0.24l0.24-0.24h0.239h0.24h0.24l0.24-0.24v-0.24h0.239   h0.24h0.24l0.24-0.24l0.239-0.24v-0.24h0.24h0.24l0.24-0.24h0.239v-0.24v-0.24v0.24h0.721l0.24,0.48h0.239v0.24l0.24,0.24h-0.24   h-0.239l-0.24,0.24h-0.24l-0.24,0.24h-0.24h-0.239l-0.24,0.24h-0.24l-0.479,0.48h-0.24v0.24l-0.48,0.24v0.24l-0.239,0.24v0.24   l-0.24,0.24l-0.24,0.24l-0.24,0.48v0.24l0.24,0.24h0.24l0.479,0.48h0.24l0.24,0.24h0.24v-0.24l0.239,0.24l0.24-0.24v0.24h-0.24   v0.24v0.24h-0.239l-0.24,0.24l-0.24,0.24h-0.24h-0.239v0.24v-0.24h-0.24v0.24h-0.24h-0.24v-0.24h-0.239v0.24h-0.24h-0.24v0.24   h-0.24h-0.239v0.24h-0.24h-0.24v0.24h-0.24v0.24h-0.24v0.24h-0.239v0.24h-0.24v-0.24v-0.24h-0.24h-0.24h-0.239l-0.24-0.24h0.24   l-0.24-0.24v-0.24h-0.24h-0.24h-0.239h-0.24h-0.24v0.24h-0.24v-0.24h-0.239h-0.24v-0.24h-0.24l-0.24,0.24h-0.239l-0.24,0.24h-0.24   h-0.24v0.24h-0.239h-0.24v-0.24h-0.24v-0.24h-0.24v-0.24h-0.24v0.24l-0.239-0.24h-0.24h-0.24h-0.24l-0.239-0.24h-0.24v-0.24h-0.24   h-0.24v-0.24v-0.24h-0.239l-0.24-0.24h-0.24l-0.24-0.24h-0.239h-0.24h-0.24h-0.24h-0.239h-0.24h-0.24h-0.24h-0.239h-0.24h-0.24   v0.24h-0.24h-0.239v0.24h-0.24v0.24h-0.24v0.24l-0.24,0.24v0.24v0.24v0.24h0.24h0.24h-0.24v0.24h-0.24h-0.24v0.24h-0.239h-0.24   v-0.24v-0.24v-0.24h-0.24h-0.24v0.24h0.24l-0.24,0.24l-0.239-0.24h-0.24h-0.24v0.24h-0.24h-0.239h-0.24h-0.24h-0.24h-0.239v-0.24   h-0.24v-0.24l0.24-0.24v-0.24v-0.24h-0.24v-0.24h-0.24v-0.24h-0.24l-0.239-0.24l-0.48-0.24h-0.24h-0.239h-0.24v-0.24h-0.24h-0.24   h-0.24h-0.239h-0.48l-0.24-0.24h-0.239h-0.24v0.24h-0.24h-0.24h-0.239v-0.24h-0.48v-0.24l0.24-0.24v-0.24v-0.24l0.24-0.48v-0.48   l0.239-0.24l0.24-0.24l0.24-0.24v-0.24v-0.24l0.24-0.24v-0.24l0.239-0.24h0.24v-0.24h0.24l0.24-0.24h0.239h0.24l0.24-0.24h0.24   h0.479h0.24h0.24h0.24h0.239h0.24h0.24h0.24h0.239l0.24-0.24h0.24h0.24h0.239l0.24-0.24h0.24v-0.24h0.24h0.239h0.24h0.24h0.24   h0.239h0.24v-0.24l0.24-0.24l0.24-0.24h0.24v-0.24h0.239h0.24h0.24v-0.24h0.24l0.239,0.24v0.24h0.24l0.24,0.24h0.24v0.24V26.188z    M410.82,113.557h0.24h0.24h0.239h0.239l0.24,0.24h0.24h0.239v0.24h0.24h0.239h0.24h0.239l0.48-0.24h0.239h0.239v0.24h0.24v0.238   h0.24v0.24v0.24h-0.24v0.24v0.24v0.238v0.24v0.24v0.24v0.24v0.238l0.24,0.24h0.239v0.24h0.239l0.24,0.24l0.24,0.238v0.24h0.24   l-0.24,0.24l-0.24,0.479h-0.24h-0.239v0.239l-0.239,0.24h-0.24l-0.24,0.24v-0.24h-0.239h-0.239l-0.24-0.24h-0.24l-0.239-0.239   l-0.24-0.239h-0.239v-0.24l-0.24-0.24v-0.24h-0.239v-0.238h-0.24l-0.24,0.238v0.24h-0.239v0.24l-0.239,0.24h-0.24v0.239h-0.24   v0.239l-0.24,0.24v0.479v0.239h-0.238v0.24l-0.24,0.24l-0.24,0.239v0.479h-0.24h-0.238h-0.24l-0.24,0.24v0.239v0.24h-0.24   l-0.239,0.24v0.239h-0.239v0.239v0.24l-0.24,0.24v0.239h0.24l0.479,0.239h0.24v0.24h0.24h0.24h0.238v-0.24v0.24h0.24h0.24h0.24   v0.24v0.239h0.238v0.239h0.24h0.24v-0.239h0.24h0.239v-0.239v-0.24h0.239l0.24,0.24h0.24h0.239h0.24v-0.24l0.239-0.24v-0.239h0.24   h0.239l0.24,0.239h0.24h0.239h0.239h0.24h0.24v-0.239v-0.239h0.239h0.239h0.24h0.24l0.24,0.239h0.238l0.24,0.239l0.24,0.48v0.239   l0.24,0.239h0.239l0.239,0.24l-0.239,0.24l-0.239,0.239v0.24l-0.24,0.239h0.48l-0.24,0.24v0.239v0.24v0.239h-0.24h-0.24v0.24h-0.24   v0.239h-0.238v0.24h-0.24h-0.24v0.24v-0.24h-0.24v0.24h-0.239v0.239h-0.239h-0.24h-0.24l-0.239-0.239h-0.239l-0.24,0.239h-0.24   v0.239h-0.239h-0.24v0.24v0.721v0.24v0.239v0.24h0.24l0.239,0.239l0.24,0.24v0.239l-0.24,0.24l0.24,0.239l0.24,0.24h0.239v0.239   h0.239h0.24l0.24,0.24l0.239,0.24l0.239,0.239l-0.239,0.239v0.24h-0.239h-0.24v0.24h-0.24l-0.239,0.239v0.239v0.24h-0.239h-0.24   h-0.24h-0.239h-0.24h-0.239h-0.24h-0.239l-0.24,0.24h-0.24l-0.239,0.239H411.3h-0.24l-0.24-0.239h-0.239h-0.239v-0.24h-0.24h-0.24   h-0.239h-0.239l-0.24-0.24h-0.24v-0.239v-0.239v-0.24h-0.239h-0.24h-0.239v0.24h-0.24h-0.239h-0.24l-0.24,0.239v0.239l-0.72-0.239   l-0.24-0.239h-0.479l-0.479-0.24h-0.24h-0.239v-0.24h-0.239v0.24h-0.24h-0.24v0.24h-0.24h-0.238l-0.24-0.24h-0.24h-0.24v0.24   h-0.239v0.239h-0.239v0.239h-0.24v0.24h-0.24v0.24h-0.239h-0.24v0.239h-0.239h-0.24h-0.239l-0.24-0.239h-0.239h-0.24v-0.24v-0.24   v-0.239l0.24-0.479l0.239-0.96l0.721-1.439l0.239-0.24l0.24-0.721v-0.24v-0.479l0.239-0.721v-1.2v-0.479v-0.479l0.24-0.72   l0.479-0.48v-0.479h-0.239v-0.48l-0.24-0.238l0.24-0.48v-1.2l-0.24-0.239v-0.479v-0.961l0.479-0.72l0.239-0.479v-0.479v-0.24   l0.24-0.479l0.24-0.721l0.72-0.72l0.24-0.721l0.48-0.24l0.238-0.239l0.24-0.479h0.24l0.24-0.24l0.479-0.239l0.96-0.479l0.48-0.24   l0.72-0.479h0.24h0.239v0.24l0.24,0.239h0.24h0.239v0.24h0.239h0.24h0.24l0.239,0.239h0.236V113.557z"/>
	
		<path fill="#FFFFFF" stroke="#6E6E6E" stroke-width="0.25" stroke-linecap="round" stroke-linejoin="round" stroke-miterlimit="10" d="   M21.493,26.188l0.239,0.24h0.24l0.24,0.24v-0.24l0.24,0.24h0.239h0.24l0.24,0.24v0.24h0.24l0.239,0.24h0.24v0.24h0.24h0.24h0.239   h0.24v-0.24h0.24h0.24h0.239h0.24h0.24h0.24h0.24h0.479h0.24h0.24l0.239-0.24h0.24h0.24h0.24h0.239l0.24,0.24l0.24,0.24v0.24v0.24   v0.24v0.24l0.24,0.24h0.239h0.24h0.24h0.24l0.239,0.24h0.24h0.24v0.24h0.24l0.239,0.24l0.24,0.24l0.24,0.24l0.24,0.24l0.24,0.24   h0.239v-0.24v-0.24v-0.24l0.24-0.48v-0.24l0.24-0.24v-0.24l0.24-0.24h0.239h0.24h0.24l0.24-0.24v-0.24h0.239h0.24h0.24l0.24-0.24   l0.239-0.24v-0.24h0.24h0.24l0.24-0.24h0.239v-0.24v-0.24v0.24h0.721l0.24,0.48h0.239v0.24l0.24,0.24h-0.24h-0.239l-0.24,0.24   h-0.24l-0.24,0.24h-0.24h-0.239l-0.24,0.24h-0.24l-0.479,0.48h-0.24v0.24l-0.48,0.24v0.24l-0.239,0.24v0.24l-0.24,0.24l-0.24,0.24   l-0.24,0.48v0.24l0.24,0.24h0.24l0.479,0.48h0.24l0.24,0.24h0.24v-0.24l0.239,0.24l0.24-0.24v0.24h-0.24v0.24v0.24h-0.239   l-0.24,0.24l-0.24,0.24h-0.24h-0.239v0.24v-0.24h-0.24v0.24h-0.24h-0.24v-0.24h-0.239v0.24h-0.24h-0.24v0.24h-0.24h-0.239v0.24   h-0.24h-0.24v0.24h-0.24v0.24h-0.24v0.24h-0.239v0.24h-0.24v-0.24v-0.24h-0.24h-0.24h-0.239l-0.24-0.24h0.24l-0.24-0.24v-0.24   h-0.24h-0.24h-0.239h-0.24h-0.24v0.24h-0.24v-0.24h-0.239h-0.24v-0.24h-0.24l-0.24,0.24h-0.239l-0.24,0.24h-0.24h-0.24v0.24h-0.239   h-0.24v-0.24h-0.24v-0.24h-0.24v-0.24h-0.24v0.24l-0.239-0.24h-0.24h-0.24h-0.24l-0.239-0.24h-0.24v-0.24h-0.24h-0.24v-0.24v-0.24   h-0.239l-0.24-0.24h-0.24l-0.24-0.24h-0.239h-0.24h-0.24h-0.24h-0.239h-0.24h-0.24h-0.24h-0.239h-0.24h-0.24v0.24h-0.24h-0.239   v0.24h-0.24v0.24h-0.24v0.24l-0.24,0.24v0.24v0.24v0.24h0.24h0.24h-0.24v0.24h-0.24h-0.24v0.24h-0.239h-0.24v-0.24v-0.24v-0.24   h-0.24h-0.24v0.24h0.24l-0.24,0.24l-0.239-0.24h-0.24h-0.24v0.24h-0.24h-0.239h-0.24h-0.24h-0.24h-0.239v-0.24h-0.24v-0.24   l0.24-0.24v-0.24v-0.24h-0.24v-0.24h-0.24v-0.24h-0.24l-0.239-0.24l-0.48-0.24h-0.24h-0.239h-0.24v-0.24h-0.24h-0.24h-0.24h-0.239   h-0.48l-0.24-0.24h-0.239h-0.24v0.24h-0.24h-0.24h-0.239v-0.24h-0.48v-0.24l0.24-0.24v-0.24v-0.24l0.24-0.48v-0.48l0.239-0.24   l0.24-0.24l0.24-0.24v-0.24v-0.24l0.24-0.24v-0.24l0.239-0.24h0.24v-0.24h0.24l0.24-0.24h0.239h0.24l0.24-0.24h0.24h0.479h0.24   h0.24h0.24h0.239h0.24h0.24h0.24h0.239l0.24-0.24h0.24h0.24h0.239l0.24-0.24h0.24v-0.24h0.24h0.239h0.24h0.24h0.24h0.239h0.24   v-0.24l0.24-0.24l0.24-0.24h0.24v-0.24h0.239h0.24h0.24v-0.24h0.24l0.239,0.24v0.24h0.24l0.24,0.24h0.24v0.24V26.188z    M410.82,113.557h0.24h0.24h0.239h0.239l0.24,0.24h0.24h0.239v0.24h0.24h0.239h0.24h0.239l0.48-0.24h0.239h0.239v0.24h0.24v0.238   h0.24v0.24v0.24h-0.24v0.24v0.24v0.238v0.24v0.24v0.24v0.24v0.238l0.24,0.24h0.239v0.24h0.239l0.24,0.24l0.24,0.238v0.24h0.24   l-0.24,0.24l-0.24,0.479h-0.24h-0.239v0.239l-0.239,0.24h-0.24l-0.24,0.24v-0.24h-0.239h-0.239l-0.24-0.24h-0.24l-0.239-0.239   l-0.24-0.239h-0.239v-0.24l-0.24-0.24v-0.24h-0.239v-0.238h-0.24l-0.24,0.238v0.24h-0.239v0.24l-0.239,0.24h-0.24v0.239h-0.24   v0.239l-0.24,0.24v0.479v0.239h-0.238v0.24l-0.24,0.24l-0.24,0.239v0.479h-0.24h-0.238h-0.24l-0.24,0.24v0.239v0.24h-0.24   l-0.239,0.24v0.239h-0.239v0.239v0.24l-0.24,0.24v0.239h0.24l0.479,0.239h0.24v0.24h0.24h0.24h0.238v-0.24v0.24h0.24h0.24h0.24   v0.24v0.239h0.238v0.239h0.24h0.24v-0.239h0.24h0.239v-0.239v-0.24h0.239l0.24,0.24h0.24h0.239h0.24v-0.24l0.239-0.24v-0.239h0.24   h0.239l0.24,0.239h0.24h0.239h0.239h0.24h0.24v-0.239v-0.239h0.239h0.239h0.24h0.24l0.24,0.239h0.238l0.24,0.239l0.24,0.48v0.239   l0.24,0.239h0.239l0.239,0.24l-0.239,0.24l-0.239,0.239v0.24l-0.24,0.239h0.48l-0.24,0.24v0.239v0.24v0.239h-0.24h-0.24v0.24h-0.24   v0.239h-0.238v0.24h-0.24h-0.24v0.24v-0.24h-0.24v0.24h-0.239v0.239h-0.239h-0.24h-0.24l-0.239-0.239h-0.239l-0.24,0.239h-0.24   v0.239h-0.239h-0.24v0.24v0.721v0.24v0.239v0.24h0.24l0.239,0.239l0.24,0.24v0.239l-0.24,0.24l0.24,0.239l0.24,0.24h0.239v0.239   h0.239h0.24l0.24,0.24l0.239,0.24l0.239,0.239l-0.239,0.239v0.24h-0.239h-0.24v0.24h-0.24l-0.239,0.239v0.239v0.24h-0.239h-0.24   h-0.24h-0.239h-0.24h-0.239h-0.24h-0.239l-0.24,0.24h-0.24l-0.239,0.239H411.3h-0.24l-0.24-0.239h-0.239h-0.239v-0.24h-0.24h-0.24   h-0.239h-0.239l-0.24-0.24h-0.24v-0.239v-0.239v-0.24h-0.239h-0.24h-0.239v0.24h-0.24h-0.239h-0.24l-0.24,0.239v0.239l-0.72-0.239   l-0.24-0.239h-0.479l-0.479-0.24h-0.24h-0.239v-0.24h-0.239v0.24h-0.24h-0.24v0.24h-0.24h-0.238l-0.24-0.24h-0.24h-0.24v0.24   h-0.239v0.239h-0.239v0.239h-0.24v0.24h-0.24v0.24h-0.239h-0.24v0.239h-0.239h-0.24h-0.239l-0.24-0.239h-0.239h-0.24v-0.24v-0.24   v-0.239l0.24-0.479l0.239-0.96l0.721-1.439l0.239-0.24l0.24-0.721v-0.24v-0.479l0.239-0.721v-1.2v-0.479v-0.479l0.24-0.72   l0.479-0.48v-0.479h-0.239v-0.48l-0.24-0.238l0.24-0.48v-1.2l-0.24-0.239v-0.479v-0.961l0.479-0.72l0.239-0.479v-0.479v-0.24   l0.24-0.479l0.24-0.721l0.72-0.72l0.24-0.721l0.48-0.24l0.238-0.239l0.24-0.479h0.24l0.24-0.24l0.479-0.239l0.96-0.479l0.48-0.24   l0.72-0.479h0.24h0.239v0.24l0.24,0.239h0.24h0.239v0.24h0.239h0.24h0.24l0.239,0.239h0.236V113.557z"/>
</g>
<g>
	
		<path fill="none" stroke="#005CE6" stroke-width="0.9601" stroke-linecap="round" stroke-linejoin="round" stroke-miterlimit="10" d="   M21.493,26.188l0.239,0.24h0.24l0.24,0.24v-0.24l0.24,0.24h0.239h0.24l0.24,0.24v0.24h0.24l0.239,0.24h0.24v0.24h0.24h0.24h0.239   h0.24v-0.24h0.24h0.24h0.239h0.24h0.24h0.24h0.24h0.479h0.24h0.24l0.239-0.24h0.24h0.24h0.24h0.239l0.24,0.24l0.24,0.24v0.24v0.24   v0.24v0.24l0.24,0.24h0.239h0.24h0.24h0.24l0.239,0.24h0.24h0.24v0.24h0.24l0.239,0.24l0.24,0.24l0.24,0.24l0.24,0.24l0.24,0.24   h0.239v-0.24v-0.24v-0.24l0.24-0.48v-0.24l0.24-0.24v-0.24l0.24-0.24h0.239h0.24h0.24l0.24-0.24v-0.24h0.239h0.24h0.24l0.24-0.24   l0.239-0.24v-0.24h0.24h0.24l0.24-0.24h0.239v-0.24v-0.24v0.24h0.721l0.24,0.48h0.239v0.24l0.24,0.24h-0.24h-0.239l-0.24,0.24   h-0.24l-0.24,0.24h-0.24h-0.239l-0.24,0.24h-0.24l-0.479,0.48h-0.24v0.24l-0.48,0.24v0.24l-0.239,0.24v0.24l-0.24,0.24l-0.24,0.24   l-0.24,0.48v0.24l0.24,0.24h0.24l0.479,0.48h0.24l0.24,0.24h0.24v-0.24l0.239,0.24l0.24-0.24v0.24h-0.24v0.24v0.24h-0.239   l-0.24,0.24l-0.24,0.24h-0.24h-0.239v0.24v-0.24h-0.24v0.24h-0.24h-0.24v-0.24h-0.239v0.24h-0.24h-0.24v0.24h-0.24h-0.239v0.24   h-0.24h-0.24v0.24h-0.24v0.24h-0.24v0.24h-0.239v0.24h-0.24v-0.24v-0.24h-0.24h-0.24h-0.239l-0.24-0.24h0.24l-0.24-0.24v-0.24   h-0.24h-0.24h-0.239h-0.24h-0.24v0.24h-0.24v-0.24h-0.239h-0.24v-0.24h-0.24l-0.24,0.24h-0.239l-0.24,0.24h-0.24h-0.24v0.24h-0.239   h-0.24v-0.24h-0.24v-0.24h-0.24v-0.24h-0.24v0.24l-0.239-0.24h-0.24h-0.24h-0.24l-0.239-0.24h-0.24v-0.24h-0.24h-0.24v-0.24v-0.24   h-0.239l-0.24-0.24h-0.24l-0.24-0.24h-0.239h-0.24h-0.24h-0.24h-0.239h-0.24h-0.24h-0.24h-0.239h-0.24h-0.24v0.24h-0.24h-0.239   v0.24h-0.24v0.24h-0.24v0.24l-0.24,0.24v0.24v0.24v0.24h0.24h0.24h-0.24v0.24h-0.24h-0.24v0.24h-0.239h-0.24v-0.24v-0.24v-0.24   h-0.24h-0.24v0.24h0.24l-0.24,0.24l-0.239-0.24h-0.24h-0.24v0.24h-0.24h-0.239h-0.24h-0.24h-0.24h-0.239v-0.24h-0.24v-0.24   l0.24-0.24v-0.24v-0.24h-0.24v-0.24h-0.24v-0.24h-0.24l-0.239-0.24l-0.48-0.24h-0.24h-0.239h-0.24v-0.24h-0.24h-0.24h-0.24h-0.239   h-0.48l-0.24-0.24h-0.239h-0.24v0.24h-0.24h-0.24h-0.239v-0.24h-0.48v-0.24l0.24-0.24v-0.24v-0.24l0.24-0.48v-0.48l0.239-0.24   l0.24-0.24l0.24-0.24v-0.24v-0.24l0.24-0.24v-0.24l0.239-0.24h0.24v-0.24h0.24l0.24-0.24h0.239h0.24l0.24-0.24h0.24h0.479h0.24   h0.24h0.24h0.239h0.24h0.24h0.24h0.239l0.24-0.24h0.24h0.24h0.239l0.24-0.24h0.24v-0.24h0.24h0.239h0.24h0.24h0.24h0.239h0.24   v-0.24l0.24-0.24l0.24-0.24h0.24v-0.24h0.239h0.24h0.24v-0.24h0.24l0.239,0.24v0.24h0.24l0.24,0.24h0.24v0.24V26.188    M410.82,113.557h0.24h0.24h0.239h0.239l0.24,0.24h0.24h0.239v0.24h0.24h0.239h0.24h0.239l0.48-0.24h0.239h0.239v0.24h0.24v0.238   h0.24v0.24v0.24h-0.24v0.24v0.24v0.238v0.24v0.24v0.24v0.24v0.238l0.24,0.24h0.239v0.24h0.239l0.24,0.24l0.24,0.238v0.24h0.24   l-0.24,0.24l-0.24,0.479h-0.24h-0.239v0.239l-0.239,0.24h-0.24l-0.24,0.24v-0.24h-0.239h-0.239l-0.24-0.24h-0.24l-0.239-0.239   l-0.24-0.239h-0.239v-0.24l-0.24-0.24v-0.24h-0.239v-0.238h-0.24l-0.24,0.238v0.24h-0.239v0.24l-0.239,0.24h-0.24v0.239h-0.24   v0.239l-0.24,0.24v0.479v0.239h-0.238v0.24l-0.24,0.24l-0.24,0.239v0.479h-0.24h-0.238h-0.24l-0.24,0.24v0.239v0.24h-0.24   l-0.239,0.24v0.239h-0.239v0.239v0.24l-0.24,0.24v0.239h0.24l0.479,0.239h0.24v0.24h0.24h0.24h0.238v-0.24v0.24h0.24h0.24h0.24   v0.24v0.239h0.238v0.239h0.24h0.24v-0.239h0.24h0.239v-0.239v-0.24h0.239l0.24,0.24h0.24h0.239h0.24v-0.24l0.239-0.24v-0.239h0.24   h0.239l0.24,0.239h0.24h0.239h0.239h0.24h0.24v-0.239v-0.239h0.239h0.239h0.24h0.24l0.24,0.239h0.238l0.24,0.239l0.24,0.48v0.239   l0.24,0.239h0.239l0.239,0.24l-0.239,0.24l-0.239,0.239v0.24l-0.24,0.239h0.48l-0.24,0.24v0.239v0.24v0.239h-0.24h-0.24v0.24h-0.24   v0.239h-0.238v0.24h-0.24h-0.24v0.24v-0.24h-0.24v0.24h-0.239v0.239h-0.239h-0.24h-0.24l-0.239-0.239h-0.239l-0.24,0.239h-0.24   v0.239h-0.239h-0.24v0.24v0.721v0.24v0.239v0.24h0.24l0.239,0.239l0.24,0.24v0.239l-0.24,0.24l0.24,0.239l0.24,0.24h0.239v0.239   h0.239h0.24l0.24,0.24l0.239,0.24l0.239,0.239l-0.239,0.239v0.24h-0.239h-0.24v0.24h-0.24l-0.239,0.239v0.239v0.24h-0.239h-0.24   h-0.24h-0.239h-0.24h-0.239h-0.24h-0.239l-0.24,0.24h-0.24l-0.239,0.239H411.3h-0.24l-0.24-0.239h-0.239h-0.239v-0.24h-0.24h-0.24   h-0.239h-0.239l-0.24-0.24h-0.24v-0.239v-0.239v-0.24h-0.239h-0.24h-0.239v0.24h-0.24h-0.239h-0.24l-0.24,0.239v0.239l-0.72-0.239   l-0.24-0.239h-0.479l-0.479-0.24h-0.24h-0.239v-0.24h-0.239v0.24h-0.24h-0.24v0.24h-0.24h-0.238l-0.24-0.24h-0.24h-0.24v0.24   h-0.239v0.239h-0.239v0.239h-0.24v0.24h-0.24v0.24h-0.239h-0.24v0.239h-0.239h-0.24h-0.239l-0.24-0.239h-0.239h-0.24v-0.24v-0.24   v-0.239l0.24-0.479l0.239-0.96l0.721-1.439l0.239-0.24l0.24-0.721v-0.24v-0.479l0.239-0.721v-1.2v-0.479v-0.479l0.24-0.72   l0.479-0.48v-0.479h-0.239v-0.48l-0.24-0.238l0.24-0.48v-1.2l-0.24-0.239v-0.479v-0.961l0.479-0.72l0.239-0.479v-0.479v-0.24   l0.24-0.479l0.24-0.721l0.72-0.72l0.24-0.721l0.48-0.24l0.238-0.239l0.24-0.479h0.24l0.24-0.24l0.479-0.239l0.96-0.479l0.48-0.24   l0.72-0.479h0.24h0.239v0.24l0.24,0.239h0.24h0.239v0.24h0.239h0.24h0.24l0.239,0.239h0.236"/>
</g>
<g>
	
		<path fill="none" stroke="#A80000" stroke-width="1.2002" stroke-linecap="round" stroke-linejoin="round" stroke-miterlimit="10" d="   M21.493,26.188l0.239,0.24h0.24l0.24,0.24v-0.24l0.24,0.24h0.239h0.24l0.24,0.24v0.24h0.24l0.239,0.24h0.24v0.24h0.24h0.24h0.239   h0.24v-0.24h0.24h0.24h0.239h0.24h0.24h0.24h0.24h0.479h0.24h0.24l0.239-0.24h0.24h0.24h0.24h0.239l0.24,0.24l0.24,0.24v0.24v0.24   v0.24v0.24l0.24,0.24h0.239h0.24h0.24h0.24l0.239,0.24h0.24h0.24v0.24h0.24l0.239,0.24l0.24,0.24l0.24,0.24l0.24,0.24l0.24,0.24   h0.239v-0.24v-0.24v-0.24l0.24-0.48v-0.24l0.24-0.24v-0.24l0.24-0.24h0.239h0.24h0.24l0.24-0.24v-0.24h0.239h0.24h0.24l0.24-0.24   l0.239-0.24v-0.24h0.24h0.24l0.24-0.24h0.239v-0.24v-0.24v0.24h0.721l0.24,0.48h0.239v0.24l0.24,0.24h-0.24h-0.239l-0.24,0.24   h-0.24l-0.24,0.24h-0.24h-0.239l-0.24,0.24h-0.24l-0.479,0.48h-0.24v0.24l-0.48,0.24v0.24l-0.239,0.24v0.24l-0.24,0.24l-0.24,0.24   l-0.24,0.48v0.24l0.24,0.24h0.24l0.479,0.48h0.24l0.24,0.24h0.24v-0.24l0.239,0.24l0.24-0.24v0.24h-0.24v0.24v0.24h-0.239   l-0.24,0.24l-0.24,0.24h-0.24h-0.239v0.24v-0.24h-0.24v0.24h-0.24h-0.24v-0.24h-0.239v0.24h-0.24h-0.24v0.24h-0.24h-0.239v0.24   h-0.24h-0.24v0.24h-0.24v0.24h-0.24v0.24h-0.239v0.24h-0.24v-0.24v-0.24h-0.24h-0.24h-0.239l-0.24-0.24h0.24l-0.24-0.24v-0.24   h-0.24h-0.24h-0.239h-0.24h-0.24v0.24h-0.24v-0.24h-0.239h-0.24v-0.24h-0.24l-0.24,0.24h-0.239l-0.24,0.24h-0.24h-0.24v0.24h-0.239   h-0.24v-0.24h-0.24v-0.24h-0.24v-0.24h-0.24v0.24l-0.239-0.24h-0.24h-0.24h-0.24l-0.239-0.24h-0.24v-0.24h-0.24h-0.24v-0.24v-0.24   h-0.239l-0.24-0.24h-0.24l-0.24-0.24h-0.239h-0.24h-0.24h-0.24h-0.239h-0.24h-0.24h-0.24h-0.239h-0.24h-0.24v0.24h-0.24h-0.239   v0.24h-0.24v0.24h-0.24v0.24l-0.24,0.24v0.24v0.24v0.24h0.24h0.24h-0.24v0.24h-0.24h-0.24v0.24h-0.239h-0.24v-0.24v-0.24v-0.24   h-0.24h-0.24v0.24h0.24l-0.24,0.24l-0.239-0.24h-0.24h-0.24v0.24h-0.24h-0.239h-0.24h-0.24h-0.24h-0.239v-0.24h-0.24v-0.24   l0.24-0.24v-0.24v-0.24h-0.24v-0.24h-0.24v-0.24h-0.24l-0.239-0.24l-0.48-0.24h-0.24h-0.239h-0.24v-0.24h-0.24h-0.24h-0.24h-0.239   h-0.48l-0.24-0.24h-0.239h-0.24v0.24h-0.24h-0.24h-0.239v-0.24h-0.48v-0.24l0.24-0.24v-0.24v-0.24l0.24-0.48v-0.48l0.239-0.24   l0.24-0.24l0.24-0.24v-0.24v-0.24l0.24-0.24v-0.24l0.239-0.24h0.24v-0.24h0.24l0.24-0.24h0.239h0.24l0.24-0.24h0.24h0.479h0.24   h0.24h0.24h0.239h0.24h0.24h0.24h0.239l0.24-0.24h0.24h0.24h0.239l0.24-0.24h0.24v-0.24h0.24h0.239h0.24h0.24h0.24h0.239h0.24   v-0.24l0.24-0.24l0.24-0.24h0.24v-0.24h0.239h0.24h0.24v-0.24h0.24l0.239,0.24v0.24h0.24l0.24,0.24h0.24v0.24V26.188    M410.82,113.557h0.24h0.24h0.239h0.239l0.24,0.24h0.24h0.239v0.24h0.24h0.239h0.24h0.239l0.48-0.24h0.239h0.239v0.24h0.24v0.238   h0.24v0.24v0.24h-0.24v0.24v0.24v0.238v0.24v0.24v0.24v0.24v0.238l0.24,0.24h0.239v0.24h0.239l0.24,0.24l0.24,0.238v0.24h0.24   l-0.24,0.24l-0.24,0.479h-0.24h-0.239v0.239l-0.239,0.24h-0.24l-0.24,0.24v-0.24h-0.239h-0.239l-0.24-0.24h-0.24l-0.239-0.239   l-0.24-0.239h-0.239v-0.24l-0.24-0.24v-0.24h-0.239v-0.238h-0.24l-0.24,0.238v0.24h-0.239v0.24l-0.239,0.24h-0.24v0.239h-0.24   v0.239l-0.24,0.24v0.479v0.239h-0.238v0.24l-0.24,0.24l-0.24,0.239v0.479h-0.24h-0.238h-0.24l-0.24,0.24v0.239v0.24h-0.24   l-0.239,0.24v0.239h-0.239v0.239v0.24l-0.24,0.24v0.239h0.24l0.479,0.239h0.24v0.24h0.24h0.24h0.238v-0.24v0.24h0.24h0.24h0.24   v0.24v0.239h0.238v0.239h0.24h0.24v-0.239h0.24h0.239v-0.239v-0.24h0.239l0.24,0.24h0.24h0.239h0.24v-0.24l0.239-0.24v-0.239h0.24   h0.239l0.24,0.239h0.24h0.239h0.239h0.24h0.24v-0.239v-0.239h0.239h0.239h0.24h0.24l0.24,0.239h0.238l0.24,0.239l0.24,0.48v0.239   l0.24,0.239h0.239l0.239,0.24l-0.239,0.24l-0.239,0.239v0.24l-0.24,0.239h0.48l-0.24,0.24v0.239v0.24v0.239h-0.24h-0.24v0.24h-0.24   v0.239h-0.238v0.24h-0.24h-0.24v0.24v-0.24h-0.24v0.24h-0.239v0.239h-0.239h-0.24h-0.24l-0.239-0.239h-0.239l-0.24,0.239h-0.24   v0.239h-0.239h-0.24v0.24v0.721v0.24v0.239v0.24h0.24l0.239,0.239l0.24,0.24v0.239l-0.24,0.24l0.24,0.239l0.24,0.24h0.239v0.239   h0.239h0.24l0.24,0.24l0.239,0.24l0.239,0.239l-0.239,0.239v0.24h-0.239h-0.24v0.24h-0.24l-0.239,0.239v0.239v0.24h-0.239h-0.24   h-0.24h-0.239h-0.24h-0.239h-0.24h-0.239l-0.24,0.24h-0.24l-0.239,0.239H411.3h-0.24l-0.24-0.239h-0.239h-0.239v-0.24h-0.24h-0.24   h-0.239h-0.239l-0.24-0.24h-0.24v-0.239v-0.239v-0.24h-0.239h-0.24h-0.239v0.24h-0.24h-0.239h-0.24l-0.24,0.239v0.239l-0.72-0.239   l-0.24-0.239h-0.479l-0.479-0.24h-0.24h-0.239v-0.24h-0.239v0.24h-0.24h-0.24v0.24h-0.24h-0.238l-0.24-0.24h-0.24h-0.24v0.24   h-0.239v0.239h-0.239v0.239h-0.24v0.24h-0.24v0.24h-0.239h-0.24v0.239h-0.239h-0.24h-0.239l-0.24-0.239h-0.239h-0.24v-0.24v-0.24   v-0.239l0.24-0.479l0.239-0.96l0.721-1.439l0.239-0.24l0.24-0.721v-0.24v-0.479l0.239-0.721v-1.2v-0.479v-0.479l0.24-0.72   l0.479-0.48v-0.479h-0.239v-0.48l-0.24-0.238l0.24-0.48v-1.2l-0.24-0.239v-0.479v-0.961l0.479-0.72l0.239-0.479v-0.479v-0.24   l0.24-0.479l0.24-0.721l0.72-0.72l0.24-0.721l0.48-0.24l0.238-0.239l0.24-0.479h0.24l0.24-0.24l0.479-0.239l0.96-0.479l0.48-0.24   l0.72-0.479h0.24h0.239v0.24l0.24,0.239h0.24h0.239v0.24h0.239h0.24h0.24l0.239,0.239h0.236"/>
</g>
<switch><text transform="matrix(1 0 0 1 20.0046 17.4219)" font-family="'ArialMT'" font-size="12" id="trsvg3-mag" systemLanguage="mag"><tspan id="trsvg1-mag">१</tspan></text><text transform="matrix(1 0 0 1 20.0046 17.4219)" font-family="'ArialMT'" font-size="12" id="trsvg3"><tspan id="trsvg1">1</tspan></text></switch>
<switch><text transform="matrix(1 0 0 1 403.0042 105.4219)" font-family="'ArialMT'" font-size="12" id="trsvg4-mag" systemLanguage="mag"><tspan id="trsvg2-mag">१</tspan></text><text transform="matrix(1 0 0 1 403.0042 105.4219)" font-family="'ArialMT'" font-size="12" id="trsvg4"><tspan id="trsvg2">1</tspan></text></switch>
</svg>
