<?xml version="1.0" encoding="utf-8"?>
<!-- Generator: Adobe Illustrator 15.0.2, SVG Export Plug-In . SVG Version: 6.00 Build 0)  -->
<!DOCTYPE svg PUBLIC "-//W3C//DTD SVG 1.1//EN" "http://www.w3.org/Graphics/SVG/1.1/DTD/svg11.dtd" [
<!ENTITY ns_extend "http://ns.adobe.com/Extensibility/1.0/">
<!ENTITY ns_ai "http://ns.adobe.com/AdobeIllustrator/10.0/">
<!ENTITY ns_graphs "http://ns.adobe.com/Graphs/1.0/">
<!ENTITY ns_vars "http://ns.adobe.com/Variables/1.0/">
<!ENTITY ns_imrep "http://ns.adobe.com/ImageReplacement/1.0/">
<!ENTITY ns_sfw "http://ns.adobe.com/SaveForWeb/1.0/">
<!ENTITY ns_custom "http://ns.adobe.com/GenericCustomNamespace/1.0/">
<!ENTITY ns_adobe_xpath "http://ns.adobe.com/XPath/1.0/">
]>
<svg xmlns:x="&ns_extend;" xmlns:i="&ns_ai;" xmlns:graph="&ns_graphs;" xmlns="http://www.w3.org/2000/svg" xmlns:xlink="http://www.w3.org/1999/xlink" version="1.1" id="Ebene_1" x="0px" y="0px" width="241.333px" height="538px" viewBox="0 0 241.333 538" enable-background="new 0 0 241.333 538" xml:space="preserve">
<metadata>
	<sfw xmlns="&ns_sfw;">
		<slices/>
		<sliceSourceBounds y="128.739" x="189.023" height="517.014" width="227.068" bottomLeftOrigin="true"/>
	</sfw>
</metadata>
<g>
	<path fill-rule="evenodd" clip-rule="evenodd" fill="#7CCAEB" d="M98.008,13.581l-0.24,0.24v0.24l-0.24,0.24h-0.24h-0.24v-0.24   v-0.24h0.24h0.24v-0.24l0.24-0.48v-0.24l0.24-0.24v-0.24l0.24-0.24v-0.24v-0.24h0.24v-0.24l0.24-0.24l0.24,0.24v0.24v0.48v0.48   h-0.24v0.24l-0.24,0.48h-0.24L98.008,13.581z M20.958,21.502h-0.24h-0.24v-0.24h-0.24v-0.24h0.24h0.24v0.24h0.24V21.502z    M139.292,48.625h-0.239v-0.24l0.239-0.24h-0.239v-0.24v-0.24l-0.24-0.24v-0.24v-0.24v-0.24v-0.24v-0.24v-0.24l-0.24-0.24v-0.24   v-0.24v-0.24h-0.24h-0.24v-0.24v-0.24h-0.239v-0.24h0.239h0.24h0.24l0.24,0.24l0.24,0.24v0.24h0.239v0.24v0.24l0.24,0.24v0.24v0.24   v0.24v0.24v0.24v0.24v0.24v0.24l0.24,0.24v0.24l-0.24,0.24L139.292,48.625z M100.408,88.709v0.24V88.709v-0.24h0.24v-0.24v-0.24   v-0.24v-0.24v-0.24l0.24-0.24v-0.24v-0.24h0.24v-0.24v-0.24h0.24v-0.24v-0.24h0.24v-0.24v-0.24l0.24-0.24v-0.24v-0.24h0.24v-0.24   v-0.24h0.24v-0.24v-0.24v-0.24h0.24v-0.24v-0.24l0.24-0.24v-0.24v-0.24l0.24-0.24v-0.24v-0.24l0.24-0.24v-0.24v-0.24h0.24v-0.24   v-0.24v-0.24h0.24v-0.24l0.24-0.24v-0.24l0.24-0.24v-0.24l0.24-0.24v-0.24l0.24-0.24v-0.24h0.24h0.24v0.24v0.24v0.24l-0.24,0.24   v0.24l-0.24,0.24v0.24l-0.24,0.24v0.24l-0.24,0.24v0.24v0.24h-0.24v0.24l-0.24,0.24v0.24v0.24l-0.24,0.24v0.24v0.24l-0.24,0.24   v0.24v0.24l-0.24,0.24v0.24v0.24l-0.24,0.24v0.24v0.24h-0.24l-0.24,0.24v0.24h-0.24v0.24l-0.24,0.24l-0.24,0.24v0.24v0.24h-0.24   v0.24v0.24l-0.24,0.24v0.24v0.24l-0.24,0.24v0.24l-0.24,0.24v0.24v0.24v0.24H100.408z M93.688,98.55h-0.24l-0.24-0.24v-0.24v-0.24   v-0.24v-0.24v-0.24v-0.24l0.24-0.24l0.24-0.24l0.24-0.24l0.24-0.24h0.24h0.24v-0.24h0.24v-0.24h0.24h0.24h0.24h0.24v0.24v0.24v0.24   l-0.24,0.24v0.24l-0.24,0.48h-0.24l-0.24,0.24l-0.24,0.48l-0.48,0.24l-0.24,0.24L93.688,98.55z M35.6,118.232h-0.24v-0.24v-0.24   h0.24v0.24V118.232z M35.6,118.472h-0.24v0.24v-0.24h-0.24h0.24H35.6z M35.12,118.952h-0.24H35.12v-0.24h0.24L35.12,118.952z    M34.16,118.952l-0.24,0.24h-0.24l-0.24,0.24l-0.24,0.24h-0.24v0.24h-0.24h-0.24v-0.24v-0.24l0.24-0.24v-0.24h0.24h0.24h0.24h0.24   h0.24H34.16h0.24H34.16z M28.639,119.192h0.24h0.24h0.24v0.24h-0.24h-0.24v-0.24v0.24l-0.24,0.24l0.24,0.24v0.24v0.24h0.24v0.24   h-0.24v0.24h-0.24h-0.24h-0.24v-0.24h-0.24v-0.24l0.24-0.24v-0.24v-0.24l0.24-0.24v-0.24H28.639z M15.438,128.553h0.24h0.24v0.24   h-0.24v0.24l-0.24,0.24v0.24l-0.24,0.24v0.24h-0.24v0.24v0.24h-0.24v0.24l-0.24,0.24l-0.24,0.24l-0.24,0.24v0.24h-0.24v0.24h-0.24   v0.24v0.24h-0.24v0.24h-0.24v0.24l-0.24,0.24v0.24h-0.24v0.24l-0.24,0.24v0.24l-0.24,0.24l-0.24,0.24v0.24l-0.24,0.24v0.24v0.24   h-0.24v0.24h-0.24v0.24l-0.24,0.24l-0.24,0.24l-0.24,0.24l-0.24,0.24h-0.24l0.24-0.24l0.24-0.24l0.24-0.24v-0.24h0.24v-0.24   l0.24-0.24l0.24-0.24v-0.24l0.24-0.24l0.24-0.24v-0.24l0.24-0.24v-0.24l0.24-0.24v-0.24h0.24v-0.24l0.24-0.24v-0.24l0.24-0.24   v-0.24v-0.24l0.24-0.24v-0.24v-0.24h0.24v-0.24v-0.24v-0.24h0.24v-0.24v-0.24v-0.24h0.24v-0.24v-0.24h0.24v-0.24h0.24l0.24-0.24   l0.24-0.24v-0.24h0.24L15.438,128.553z M9.677,137.434v0.24v0.24h-0.24h-0.24h-0.24v-0.24h0.24l0.24-0.24H9.677z M230.024,151.355   h0.24v0.24h0.24h0.24h0.239h0.24h0.24h0.24h0.239h0.24h0.24h0.24h0.24h0.239h0.24l0.24,0.24h0.24h0.24h0.239h0.24h0.24v0.24v0.24   l-0.24,0.24h-0.24h-0.239h-0.24l-0.24,0.24h-0.24h-0.24l-0.479,0.24h-0.24l-0.24,0.24h-0.479h-0.24l-0.24,0.24h-0.24h-0.239h-0.24   h-0.24v-0.24h-0.24h-0.24h-0.239l-0.48-0.24l-0.24-0.24v-0.24l-0.24-0.24v-0.24v-0.24l0.24-0.24v-0.24h0.24h0.24h0.24h0.239   H230.024z M77.125,177.518h0.24h0.24v0.24h0.24v0.24l0.24,0.24v0.24v0.24v0.24v0.24l-0.24,0.24v0.24l-0.24,0.24h-0.24l-0.24,0.24   h-0.24h-0.24h-0.24v0.24h-0.24h-0.24h-0.24v0.24h-0.24l-0.24,0.24l-0.24,0.24h-0.24l-0.24,0.24l-0.24,0.24h-0.24v0.24h-0.24v0.24   h-0.24v0.24h-0.24v0.24h-0.24h-0.24v-0.24v-0.24h0.24v-0.24h0.24h0.24h0.24v-0.24h0.24v-0.24h0.24v-0.24l0.24-0.24v-0.24h0.24   v-0.24l0.24-0.24l0.24-0.24v-0.24h0.24v-0.24l0.24-0.24l0.24-0.24v-0.24l0.24-0.24v-0.24h0.24v-0.24v-0.24l0.24-0.24v-0.24h0.24   L77.125,177.518z M26.719,241.125v0.24V241.125h-0.24h-0.24h-0.24v-0.24v-0.239h0.24v-0.24l-0.24-0.24v-0.24v-0.24h0.24v0.24   l0.24,0.24v0.24v0.24h0.24v0.239V241.125z M223.063,250.005v0.24v0.24v0.24v0.239v0.24h0.24v0.24v0.24v0.239v0.24v0.24v0.24v0.24   h-0.24v0.239v0.24l-0.24,0.24v0.24h-0.239v-0.24h0.239v-0.24v-0.24l0.24-0.239v-0.24v-0.24v-0.24v-0.24v-0.239v-0.24v-0.24   l-0.24-0.24v-0.239v-0.24v-0.24h-0.239v-0.24v0.24v-0.24v-0.24h0.239v0.24H223.063z M18.558,253.846v-0.24l0.24-0.24v-0.24   l0.24-0.239h0.24v-0.24h0.24v-0.48h0.24l-0.24,0.24v0.24v0.24v0.239h-0.24v0.24l-0.24,0.24l-0.24,0.24H18.558z M220.423,262.007   v0.479v0.24v0.24v0.239v0.24h-0.24v0.24v0.24v0.24l-0.24,0.239h-0.24h-0.24h-0.239v-0.239h-0.24v-0.24l0.24-0.24h-0.24v-0.24v-0.24   v-0.239h-0.24v-0.24v-0.24h-0.24v-0.24v-0.239l0.24,0.239h0.24h0.24h0.239v-0.239l0.24-0.24v-0.24h0.24v-0.24v-0.24l0.24-0.239   v-0.24v-0.24l0.24-0.24v-0.24l0.239-0.239v-0.24v-0.24l0.24-0.24v-0.24v-0.239l0.24-0.24v-0.24v-0.24v0.24v0.24v0.24l-0.24,0.479   v0.24v0.24l-0.24,0.24v0.239v0.24v0.24l-0.239,0.24v0.24v0.239v0.24v0.24v0.24V262.007z M217.542,261.767v0.24h-0.24l-0.24-0.24   h0.24l0.24-0.24V261.767z M218.502,262.007l-0.24,0.239v-0.239H218.502z M218.262,262.487h-0.239v-0.24h0.239V262.487z    M217.783,262.487h0.24H217.783z M217.783,262.487v0.24V262.487z M217.783,262.727v-0.24V262.727z M115.53,525.794v0.239   l-0.24,0.24h-0.24v0.24l-0.48,0.24v0.24h-0.24h-0.24h-0.24h-0.72h-0.48l-0.48-0.24l-0.72-0.24h-0.48v-0.24h-0.24h-0.24v-0.24h-0.24   v-0.239v-0.24v-0.24v-0.24h0.24v0.24h0.24v0.24v0.24v-0.24h-0.24v-0.24h-0.24l0.24,0.24v0.24h0.24h0.24h0.24l0.48,0.239l0.72-0.239   h0.24h0.24h0.24h0.24h0.48h0.24l0.48-0.24l0.24-0.24l0.24-0.24l0.24-0.239l0.48-0.24h0.24v-0.48l0.24-0.24l0.24-0.239l0.24-0.24   l0.24-0.24l0.24-0.24v-0.24l0.241-0.239v-0.24v-0.24l0.239-0.24v-0.239l0.24-0.24v-0.24v-0.24l0.24-0.24v-0.239l0.24-0.48   l0.479-0.48l0.24-0.239v-0.24l0.24-0.24h0.24v-0.24v0.24l-0.24,0.24h-0.24v0.479l-0.24,0.24l-0.72,0.96v0.24l-0.48,0.721v0.239   v0.24v0.24v0.24l-0.239,0.239v0.24v0.24v0.48v0.239v0.24l-0.241,0.24l-0.48,0.48l-0.24,0.239l-0.48,0.24l-0.24,0.24L115.53,525.794   z M109.769,521.234v-0.24V521.234z M109.049,524.834h0.24v0.239h-0.24V524.834z"/>
	
		<path fill="none" stroke="#6E6E6E" stroke-width="0.4801" stroke-linecap="round" stroke-linejoin="round" stroke-miterlimit="10" d="   M98.008,13.581l-0.24,0.24v0.24l-0.24,0.24h-0.24h-0.24v-0.24v-0.24h0.24h0.24v-0.24l0.24-0.48v-0.24l0.24-0.24v-0.24l0.24-0.24   v-0.24v-0.24h0.24v-0.24l0.24-0.24l0.24,0.24v0.24v0.48v0.48h-0.24v0.24l-0.24,0.48h-0.24L98.008,13.581z M20.958,21.502h-0.24   h-0.24v-0.24h-0.24v-0.24h0.24h0.24v0.24h0.24V21.502z M139.292,48.625h-0.239v-0.24l0.239-0.24h-0.239v-0.24v-0.24l-0.24-0.24   v-0.24v-0.24v-0.24v-0.24v-0.24v-0.24l-0.24-0.24v-0.24v-0.24v-0.24h-0.24h-0.24v-0.24v-0.24h-0.239v-0.24h0.239h0.24h0.24   l0.24,0.24l0.24,0.24v0.24h0.239v0.24v0.24l0.24,0.24v0.24v0.24v0.24v0.24v0.24v0.24v0.24v0.24l0.24,0.24v0.24l-0.24,0.24   L139.292,48.625z M100.408,88.709v0.24V88.709v-0.24h0.24v-0.24v-0.24v-0.24v-0.24v-0.24l0.24-0.24v-0.24v-0.24h0.24v-0.24v-0.24   h0.24v-0.24v-0.24h0.24v-0.24v-0.24l0.24-0.24v-0.24v-0.24h0.24v-0.24v-0.24h0.24v-0.24v-0.24v-0.24h0.24v-0.24v-0.24l0.24-0.24   v-0.24v-0.24l0.24-0.24v-0.24v-0.24l0.24-0.24v-0.24v-0.24h0.24v-0.24v-0.24v-0.24h0.24v-0.24l0.24-0.24v-0.24l0.24-0.24v-0.24   l0.24-0.24v-0.24l0.24-0.24v-0.24h0.24h0.24v0.24v0.24v0.24l-0.24,0.24v0.24l-0.24,0.24v0.24l-0.24,0.24v0.24l-0.24,0.24v0.24v0.24   h-0.24v0.24l-0.24,0.24v0.24v0.24l-0.24,0.24v0.24v0.24l-0.24,0.24v0.24v0.24l-0.24,0.24v0.24v0.24l-0.24,0.24v0.24v0.24h-0.24   l-0.24,0.24v0.24h-0.24v0.24l-0.24,0.24l-0.24,0.24v0.24v0.24h-0.24v0.24v0.24l-0.24,0.24v0.24v0.24l-0.24,0.24v0.24l-0.24,0.24   v0.24v0.24v0.24H100.408z M93.688,98.55h-0.24l-0.24-0.24v-0.24v-0.24v-0.24v-0.24v-0.24v-0.24l0.24-0.24l0.24-0.24l0.24-0.24   l0.24-0.24h0.24h0.24v-0.24h0.24v-0.24h0.24h0.24h0.24h0.24v0.24v0.24v0.24l-0.24,0.24v0.24l-0.24,0.48h-0.24l-0.24,0.24   l-0.24,0.48l-0.48,0.24l-0.24,0.24L93.688,98.55z M35.6,118.232h-0.24v-0.24v-0.24h0.24v0.24V118.232z M35.6,118.472h-0.24v0.24   v-0.24h-0.24h0.24H35.6z M35.12,118.952h-0.24H35.12v-0.24h0.24L35.12,118.952z M34.16,118.952l-0.24,0.24h-0.24l-0.24,0.24   l-0.24,0.24h-0.24v0.24h-0.24h-0.24v-0.24v-0.24l0.24-0.24v-0.24h0.24h0.24h0.24h0.24h0.24H34.16h0.24H34.16z M28.639,119.192h0.24   h0.24h0.24v0.24h-0.24h-0.24v-0.24v0.24l-0.24,0.24l0.24,0.24v0.24v0.24h0.24v0.24h-0.24v0.24h-0.24h-0.24h-0.24v-0.24h-0.24v-0.24   l0.24-0.24v-0.24v-0.24l0.24-0.24v-0.24H28.639z M15.438,128.553h0.24h0.24v0.24h-0.24v0.24l-0.24,0.24v0.24l-0.24,0.24v0.24h-0.24   v0.24v0.24h-0.24v0.24l-0.24,0.24l-0.24,0.24l-0.24,0.24v0.24h-0.24v0.24h-0.24v0.24v0.24h-0.24v0.24h-0.24v0.24l-0.24,0.24v0.24   h-0.24v0.24l-0.24,0.24v0.24l-0.24,0.24l-0.24,0.24v0.24l-0.24,0.24v0.24v0.24h-0.24v0.24h-0.24v0.24l-0.24,0.24l-0.24,0.24   l-0.24,0.24l-0.24,0.24h-0.24l0.24-0.24l0.24-0.24l0.24-0.24v-0.24h0.24v-0.24l0.24-0.24l0.24-0.24v-0.24l0.24-0.24l0.24-0.24   v-0.24l0.24-0.24v-0.24l0.24-0.24v-0.24h0.24v-0.24l0.24-0.24v-0.24l0.24-0.24v-0.24v-0.24l0.24-0.24v-0.24v-0.24h0.24v-0.24v-0.24   v-0.24h0.24v-0.24v-0.24v-0.24h0.24v-0.24v-0.24h0.24v-0.24h0.24l0.24-0.24l0.24-0.24v-0.24h0.24L15.438,128.553z M9.677,137.434   v0.24v0.24h-0.24h-0.24h-0.24v-0.24h0.24l0.24-0.24H9.677z M230.024,151.355h0.24v0.24h0.24h0.24h0.239h0.24h0.24h0.24h0.239h0.24   h0.24h0.24h0.24h0.239h0.24l0.24,0.24h0.24h0.24h0.239h0.24h0.24v0.24v0.24l-0.24,0.24h-0.24h-0.239h-0.24l-0.24,0.24h-0.24h-0.24   l-0.479,0.24h-0.24l-0.24,0.24h-0.479h-0.24l-0.24,0.24h-0.24h-0.239h-0.24h-0.24v-0.24h-0.24h-0.24h-0.239l-0.48-0.24l-0.24-0.24   v-0.24l-0.24-0.24v-0.24v-0.24l0.24-0.24v-0.24h0.24h0.24h0.24h0.239H230.024z M77.125,177.518h0.24h0.24v0.24h0.24v0.24l0.24,0.24   v0.24v0.24v0.24v0.24l-0.24,0.24v0.24l-0.24,0.24h-0.24l-0.24,0.24h-0.24h-0.24h-0.24v0.24h-0.24h-0.24h-0.24v0.24h-0.24   l-0.24,0.24l-0.24,0.24h-0.24l-0.24,0.24l-0.24,0.24h-0.24v0.24h-0.24v0.24h-0.24v0.24h-0.24v0.24h-0.24h-0.24v-0.24v-0.24h0.24   v-0.24h0.24h0.24h0.24v-0.24h0.24v-0.24h0.24v-0.24l0.24-0.24v-0.24h0.24v-0.24l0.24-0.24l0.24-0.24v-0.24h0.24v-0.24l0.24-0.24   l0.24-0.24v-0.24l0.24-0.24v-0.24h0.24v-0.24v-0.24l0.24-0.24v-0.24h0.24L77.125,177.518z M26.719,241.125v0.24V241.125h-0.24   h-0.24h-0.24v-0.24v-0.239h0.24v-0.24l-0.24-0.24v-0.24v-0.24h0.24v0.24l0.24,0.24v0.24v0.24h0.24v0.239V241.125z M223.063,250.005   v0.24v0.24v0.24v0.239v0.24h0.24v0.24v0.24v0.239v0.24v0.24v0.24v0.24h-0.24v0.239v0.24l-0.24,0.24v0.24h-0.239v-0.24h0.239v-0.24   v-0.24l0.24-0.239v-0.24v-0.24v-0.24v-0.24v-0.239v-0.24v-0.24l-0.24-0.24v-0.239v-0.24v-0.24h-0.239v-0.24v0.24v-0.24v-0.24h0.239   v0.24H223.063z M18.558,253.846v-0.24l0.24-0.24v-0.24l0.24-0.239h0.24v-0.24h0.24v-0.48h0.24l-0.24,0.24v0.24v0.24v0.239h-0.24   v0.24l-0.24,0.24l-0.24,0.24H18.558z M220.423,262.007v0.479v0.24v0.24v0.239v0.24h-0.24v0.24v0.24v0.24l-0.24,0.239h-0.24h-0.24   h-0.239v-0.239h-0.24v-0.24l0.24-0.24h-0.24v-0.24v-0.24v-0.239h-0.24v-0.24v-0.24h-0.24v-0.24v-0.239l0.24,0.239h0.24h0.24h0.239   v-0.239l0.24-0.24v-0.24h0.24v-0.24v-0.24l0.24-0.239v-0.24v-0.24l0.24-0.24v-0.24l0.239-0.239v-0.24v-0.24l0.24-0.24v-0.24v-0.239   l0.24-0.24v-0.24v-0.24v0.24v0.24v0.24l-0.24,0.479v0.24v0.24l-0.24,0.24v0.239v0.24v0.24l-0.239,0.24v0.24v0.239v0.24v0.24v0.24   V262.007z M217.542,261.767v0.24h-0.24l-0.24-0.24h0.24l0.24-0.24V261.767z M218.502,262.007l-0.24,0.239v-0.239H218.502z    M218.262,262.487h-0.239v-0.24h0.239V262.487z M217.783,262.487h0.24H217.783z M217.783,262.487v0.24V262.487z M217.783,262.727   v-0.24V262.727z M115.53,525.794v0.239l-0.24,0.24h-0.24v0.24l-0.48,0.24v0.24h-0.24h-0.24h-0.24h-0.72h-0.48l-0.48-0.24   l-0.72-0.24h-0.48v-0.24h-0.24h-0.24v-0.24h-0.24v-0.239v-0.24v-0.24v-0.24h0.24v0.24h0.24v0.24v0.24v-0.24h-0.24v-0.24h-0.24   l0.24,0.24v0.24h0.24h0.24h0.24l0.48,0.239l0.72-0.239h0.24h0.24h0.24h0.24h0.48h0.24l0.48-0.24l0.24-0.24l0.24-0.24l0.24-0.239   l0.48-0.24h0.24v-0.48l0.24-0.24l0.24-0.239l0.24-0.24l0.24-0.24l0.24-0.24v-0.24l0.241-0.239v-0.24v-0.24l0.239-0.24v-0.239   l0.24-0.24v-0.24v-0.24l0.24-0.24v-0.239l0.24-0.48l0.479-0.48l0.24-0.239v-0.24l0.24-0.24h0.24v-0.24v0.24l-0.24,0.24h-0.24v0.479   l-0.24,0.24l-0.72,0.96v0.24l-0.48,0.721v0.239v0.24v0.24v0.24l-0.239,0.239v0.24v0.24v0.48v0.239v0.24l-0.241,0.24l-0.48,0.48   l-0.24,0.239l-0.48,0.24l-0.24,0.24L115.53,525.794z M109.769,521.234v-0.24V521.234z M109.049,524.834h0.24v0.239h-0.24V524.834z"/>
</g>
<g>
	
		<path fill="none" stroke="#005CE6" stroke-width="0.9601" stroke-linecap="round" stroke-linejoin="round" stroke-miterlimit="10" d="   M98.008,13.581l-0.24,0.24v0.24l-0.24,0.24h-0.24h-0.24v-0.24v-0.24h0.24h0.24v-0.24l0.24-0.48v-0.24l0.24-0.24v-0.24l0.24-0.24   v-0.24v-0.24h0.24v-0.24l0.24-0.24l0.24,0.24v0.24v0.48v0.48h-0.24v0.24l-0.24,0.48h-0.24L98.008,13.581 M20.958,21.502h-0.24   h-0.24v-0.24h-0.24v-0.24h0.24h0.24v0.24h0.24V21.502 M139.292,48.625h-0.239v-0.24l0.239-0.24h-0.239v-0.24v-0.24l-0.24-0.24   v-0.24v-0.24v-0.24v-0.24v-0.24v-0.24l-0.24-0.24v-0.24v-0.24v-0.24h-0.24h-0.24v-0.24v-0.24h-0.239v-0.24h0.239h0.24h0.24   l0.24,0.24l0.24,0.24v0.24h0.239v0.24v0.24l0.24,0.24v0.24v0.24v0.24v0.24v0.24v0.24v0.24v0.24l0.24,0.24v0.24l-0.24,0.24   L139.292,48.625 M100.408,88.709v0.24V88.709v-0.24h0.24v-0.24v-0.24v-0.24v-0.24v-0.24l0.24-0.24v-0.24v-0.24h0.24v-0.24v-0.24   h0.24v-0.24v-0.24h0.24v-0.24v-0.24l0.24-0.24v-0.24v-0.24h0.24v-0.24v-0.24h0.24v-0.24v-0.24v-0.24h0.24v-0.24v-0.24l0.24-0.24   v-0.24v-0.24l0.24-0.24v-0.24v-0.24l0.24-0.24v-0.24v-0.24h0.24v-0.24v-0.24v-0.24h0.24v-0.24l0.24-0.24v-0.24l0.24-0.24v-0.24   l0.24-0.24v-0.24l0.24-0.24v-0.24h0.24h0.24v0.24v0.24v0.24l-0.24,0.24v0.24l-0.24,0.24v0.24l-0.24,0.24v0.24l-0.24,0.24v0.24v0.24   h-0.24v0.24l-0.24,0.24v0.24v0.24l-0.24,0.24v0.24v0.24l-0.24,0.24v0.24v0.24l-0.24,0.24v0.24v0.24l-0.24,0.24v0.24v0.24h-0.24   l-0.24,0.24v0.24h-0.24v0.24l-0.24,0.24l-0.24,0.24v0.24v0.24h-0.24v0.24v0.24l-0.24,0.24v0.24v0.24l-0.24,0.24v0.24l-0.24,0.24   v0.24v0.24v0.24H100.408 M93.688,98.55h-0.24l-0.24-0.24v-0.24v-0.24v-0.24v-0.24v-0.24v-0.24l0.24-0.24l0.24-0.24l0.24-0.24   l0.24-0.24h0.24h0.24v-0.24h0.24v-0.24h0.24h0.24h0.24h0.24v0.24v0.24v0.24l-0.24,0.24v0.24l-0.24,0.48h-0.24l-0.24,0.24   l-0.24,0.48l-0.48,0.24l-0.24,0.24L93.688,98.55 M35.6,118.232h-0.24v-0.24v-0.24h0.24v0.24V118.232 M35.6,118.472h-0.24v0.24   v-0.24h-0.24h0.24H35.6 M35.12,118.952h-0.24H35.12v-0.24h0.24L35.12,118.952 M34.16,118.952l-0.24,0.24h-0.24l-0.24,0.24   l-0.24,0.24h-0.24v0.24h-0.24h-0.24v-0.24v-0.24l0.24-0.24v-0.24h0.24h0.24h0.24h0.24h0.24H34.16h0.24H34.16 M28.639,119.192h0.24   h0.24h0.24v0.24h-0.24h-0.24v-0.24v0.24l-0.24,0.24l0.24,0.24v0.24v0.24h0.24v0.24h-0.24v0.24h-0.24h-0.24h-0.24v-0.24h-0.24v-0.24   l0.24-0.24v-0.24v-0.24l0.24-0.24v-0.24H28.639 M15.438,128.553h0.24h0.24v0.24h-0.24v0.24l-0.24,0.24v0.24l-0.24,0.24v0.24h-0.24   v0.24v0.24h-0.24v0.24l-0.24,0.24l-0.24,0.24l-0.24,0.24v0.24h-0.24v0.24h-0.24v0.24v0.24h-0.24v0.24h-0.24v0.24l-0.24,0.24v0.24   h-0.24v0.24l-0.24,0.24v0.24l-0.24,0.24l-0.24,0.24v0.24l-0.24,0.24v0.24v0.24h-0.24v0.24h-0.24v0.24l-0.24,0.24l-0.24,0.24   l-0.24,0.24l-0.24,0.24h-0.24l0.24-0.24l0.24-0.24l0.24-0.24v-0.24h0.24v-0.24l0.24-0.24l0.24-0.24v-0.24l0.24-0.24l0.24-0.24   v-0.24l0.24-0.24v-0.24l0.24-0.24v-0.24h0.24v-0.24l0.24-0.24v-0.24l0.24-0.24v-0.24v-0.24l0.24-0.24v-0.24v-0.24h0.24v-0.24v-0.24   v-0.24h0.24v-0.24v-0.24v-0.24h0.24v-0.24v-0.24h0.24v-0.24h0.24l0.24-0.24l0.24-0.24v-0.24h0.24L15.438,128.553 M9.677,137.434   v0.24v0.24h-0.24h-0.24h-0.24v-0.24h0.24l0.24-0.24H9.677 M230.024,151.355h0.24v0.24h0.24h0.24h0.239h0.24h0.24h0.24h0.239h0.24   h0.24h0.24h0.24h0.239h0.24l0.24,0.24h0.24h0.24h0.239h0.24h0.24v0.24v0.24l-0.24,0.24h-0.24h-0.239h-0.24l-0.24,0.24h-0.24h-0.24   l-0.479,0.24h-0.24l-0.24,0.24h-0.479h-0.24l-0.24,0.24h-0.24h-0.239h-0.24h-0.24v-0.24h-0.24h-0.24h-0.239l-0.48-0.24l-0.24-0.24   v-0.24l-0.24-0.24v-0.24v-0.24l0.24-0.24v-0.24h0.24h0.24h0.24h0.239H230.024 M77.125,177.518h0.24h0.24v0.24h0.24v0.24l0.24,0.24   v0.24v0.24v0.24v0.24l-0.24,0.24v0.24l-0.24,0.24h-0.24l-0.24,0.24h-0.24h-0.24h-0.24v0.24h-0.24h-0.24h-0.24v0.24h-0.24   l-0.24,0.24l-0.24,0.24h-0.24l-0.24,0.24l-0.24,0.24h-0.24v0.24h-0.24v0.24h-0.24v0.24h-0.24v0.24h-0.24h-0.24v-0.24v-0.24h0.24   v-0.24h0.24h0.24h0.24v-0.24h0.24v-0.24h0.24v-0.24l0.24-0.24v-0.24h0.24v-0.24l0.24-0.24l0.24-0.24v-0.24h0.24v-0.24l0.24-0.24   l0.24-0.24v-0.24l0.24-0.24v-0.24h0.24v-0.24v-0.24l0.24-0.24v-0.24h0.24L77.125,177.518 M26.719,241.125v0.24V241.125h-0.24h-0.24   h-0.24v-0.24v-0.239h0.24v-0.24l-0.24-0.24v-0.24v-0.24h0.24v0.24l0.24,0.24v0.24v0.24h0.24v0.239V241.125 M223.063,250.005v0.24   v0.24v0.24v0.239v0.24h0.24v0.24v0.24v0.239v0.24v0.24v0.24v0.24h-0.24v0.239v0.24l-0.24,0.24v0.24h-0.239v-0.24h0.239v-0.24v-0.24   l0.24-0.239v-0.24v-0.24v-0.24v-0.24v-0.239v-0.24v-0.24l-0.24-0.24v-0.239v-0.24v-0.24h-0.239v-0.24v0.24v-0.24v-0.24h0.239v0.24   H223.063 M18.558,253.846v-0.24l0.24-0.24v-0.24l0.24-0.239h0.24v-0.24h0.24v-0.48h0.24l-0.24,0.24v0.24v0.24v0.239h-0.24v0.24   l-0.24,0.24l-0.24,0.24H18.558 M220.423,262.007v0.479v0.24v0.24v0.239v0.24h-0.24v0.24v0.24v0.24l-0.24,0.239h-0.24h-0.24h-0.239   v-0.239h-0.24v-0.24l0.24-0.24h-0.24v-0.24v-0.24v-0.239h-0.24v-0.24v-0.24h-0.24v-0.24v-0.239l0.24,0.239h0.24h0.24h0.239v-0.239   l0.24-0.24v-0.24h0.24v-0.24v-0.24l0.24-0.239v-0.24v-0.24l0.24-0.24v-0.24l0.239-0.239v-0.24v-0.24l0.24-0.24v-0.24v-0.239   l0.24-0.24v-0.24v-0.24v0.24v0.24v0.24l-0.24,0.479v0.24v0.24l-0.24,0.24v0.239v0.24v0.24l-0.239,0.24v0.24v0.239v0.24v0.24v0.24   V262.007 M217.542,261.767v0.24h-0.24l-0.24-0.24h0.24l0.24-0.24V261.767 M218.502,262.007l-0.24,0.239v-0.239H218.502    M218.262,262.487h-0.239v-0.24h0.239V262.487 M217.783,262.487h0.24H217.783 M217.783,262.487v0.24V262.487 M217.783,262.727   v-0.24V262.727 M115.53,525.794v0.239l-0.24,0.24h-0.24v0.24l-0.48,0.24v0.24h-0.24h-0.24h-0.24h-0.72h-0.48l-0.48-0.24l-0.72-0.24   h-0.48v-0.24h-0.24h-0.24v-0.24h-0.24v-0.239v-0.24v-0.24v-0.24h0.24v0.24h0.24v0.24v0.24v-0.24h-0.24v-0.24h-0.24l0.24,0.24v0.24   h0.24h0.24h0.24l0.48,0.239l0.72-0.239h0.24h0.24h0.24h0.24h0.48h0.24l0.48-0.24l0.24-0.24l0.24-0.24l0.24-0.239l0.48-0.24h0.24   v-0.48l0.24-0.24l0.24-0.239l0.24-0.24l0.24-0.24l0.24-0.24v-0.24l0.241-0.239v-0.24v-0.24l0.239-0.24v-0.239l0.24-0.24v-0.24   v-0.24l0.24-0.24v-0.239l0.24-0.48l0.479-0.48l0.24-0.239v-0.24l0.24-0.24h0.24v-0.24v0.24l-0.24,0.24h-0.24v0.479l-0.24,0.24   l-0.72,0.96v0.24l-0.48,0.721v0.239v0.24v0.24v0.24l-0.239,0.239v0.24v0.24v0.48v0.239v0.24l-0.241,0.24l-0.48,0.48l-0.24,0.239   l-0.48,0.24l-0.24,0.24L115.53,525.794 M109.769,521.234v-0.24V521.234 M109.049,524.834h0.24v0.239h-0.24V524.834"/>
</g>
<g>
	
		<path fill="none" stroke="#A80000" stroke-width="1.2002" stroke-linecap="round" stroke-linejoin="round" stroke-miterlimit="10" d="   M98.008,13.581l-0.24,0.24v0.24l-0.24,0.24h-0.24h-0.24v-0.24v-0.24h0.24h0.24v-0.24l0.24-0.48v-0.24l0.24-0.24v-0.24l0.24-0.24   v-0.24v-0.24h0.24v-0.24l0.24-0.24l0.24,0.24v0.24v0.48v0.48h-0.24v0.24l-0.24,0.48h-0.24L98.008,13.581 M20.958,21.502h-0.24   h-0.24v-0.24h-0.24v-0.24h0.24h0.24v0.24h0.24V21.502 M139.292,48.625h-0.239v-0.24l0.239-0.24h-0.239v-0.24v-0.24l-0.24-0.24   v-0.24v-0.24v-0.24v-0.24v-0.24v-0.24l-0.24-0.24v-0.24v-0.24v-0.24h-0.24h-0.24v-0.24v-0.24h-0.239v-0.24h0.239h0.24h0.24   l0.24,0.24l0.24,0.24v0.24h0.239v0.24v0.24l0.24,0.24v0.24v0.24v0.24v0.24v0.24v0.24v0.24v0.24l0.24,0.24v0.24l-0.24,0.24   L139.292,48.625 M100.408,88.709v0.24V88.709v-0.24h0.24v-0.24v-0.24v-0.24v-0.24v-0.24l0.24-0.24v-0.24v-0.24h0.24v-0.24v-0.24   h0.24v-0.24v-0.24h0.24v-0.24v-0.24l0.24-0.24v-0.24v-0.24h0.24v-0.24v-0.24h0.24v-0.24v-0.24v-0.24h0.24v-0.24v-0.24l0.24-0.24   v-0.24v-0.24l0.24-0.24v-0.24v-0.24l0.24-0.24v-0.24v-0.24h0.24v-0.24v-0.24v-0.24h0.24v-0.24l0.24-0.24v-0.24l0.24-0.24v-0.24   l0.24-0.24v-0.24l0.24-0.24v-0.24h0.24h0.24v0.24v0.24v0.24l-0.24,0.24v0.24l-0.24,0.24v0.24l-0.24,0.24v0.24l-0.24,0.24v0.24v0.24   h-0.24v0.24l-0.24,0.24v0.24v0.24l-0.24,0.24v0.24v0.24l-0.24,0.24v0.24v0.24l-0.24,0.24v0.24v0.24l-0.24,0.24v0.24v0.24h-0.24   l-0.24,0.24v0.24h-0.24v0.24l-0.24,0.24l-0.24,0.24v0.24v0.24h-0.24v0.24v0.24l-0.24,0.24v0.24v0.24l-0.24,0.24v0.24l-0.24,0.24   v0.24v0.24v0.24H100.408 M93.688,98.55h-0.24l-0.24-0.24v-0.24v-0.24v-0.24v-0.24v-0.24v-0.24l0.24-0.24l0.24-0.24l0.24-0.24   l0.24-0.24h0.24h0.24v-0.24h0.24v-0.24h0.24h0.24h0.24h0.24v0.24v0.24v0.24l-0.24,0.24v0.24l-0.24,0.48h-0.24l-0.24,0.24   l-0.24,0.48l-0.48,0.24l-0.24,0.24L93.688,98.55 M35.6,118.232h-0.24v-0.24v-0.24h0.24v0.24V118.232 M35.6,118.472h-0.24v0.24   v-0.24h-0.24h0.24H35.6 M35.12,118.952h-0.24H35.12v-0.24h0.24L35.12,118.952 M34.16,118.952l-0.24,0.24h-0.24l-0.24,0.24   l-0.24,0.24h-0.24v0.24h-0.24h-0.24v-0.24v-0.24l0.24-0.24v-0.24h0.24h0.24h0.24h0.24h0.24H34.16h0.24H34.16 M28.639,119.192h0.24   h0.24h0.24v0.24h-0.24h-0.24v-0.24v0.24l-0.24,0.24l0.24,0.24v0.24v0.24h0.24v0.24h-0.24v0.24h-0.24h-0.24h-0.24v-0.24h-0.24v-0.24   l0.24-0.24v-0.24v-0.24l0.24-0.24v-0.24H28.639 M15.438,128.553h0.24h0.24v0.24h-0.24v0.24l-0.24,0.24v0.24l-0.24,0.24v0.24h-0.24   v0.24v0.24h-0.24v0.24l-0.24,0.24l-0.24,0.24l-0.24,0.24v0.24h-0.24v0.24h-0.24v0.24v0.24h-0.24v0.24h-0.24v0.24l-0.24,0.24v0.24   h-0.24v0.24l-0.24,0.24v0.24l-0.24,0.24l-0.24,0.24v0.24l-0.24,0.24v0.24v0.24h-0.24v0.24h-0.24v0.24l-0.24,0.24l-0.24,0.24   l-0.24,0.24l-0.24,0.24h-0.24l0.24-0.24l0.24-0.24l0.24-0.24v-0.24h0.24v-0.24l0.24-0.24l0.24-0.24v-0.24l0.24-0.24l0.24-0.24   v-0.24l0.24-0.24v-0.24l0.24-0.24v-0.24h0.24v-0.24l0.24-0.24v-0.24l0.24-0.24v-0.24v-0.24l0.24-0.24v-0.24v-0.24h0.24v-0.24v-0.24   v-0.24h0.24v-0.24v-0.24v-0.24h0.24v-0.24v-0.24h0.24v-0.24h0.24l0.24-0.24l0.24-0.24v-0.24h0.24L15.438,128.553 M9.677,137.434   v0.24v0.24h-0.24h-0.24h-0.24v-0.24h0.24l0.24-0.24H9.677 M230.024,151.355h0.24v0.24h0.24h0.24h0.239h0.24h0.24h0.24h0.239h0.24   h0.24h0.24h0.24h0.239h0.24l0.24,0.24h0.24h0.24h0.239h0.24h0.24v0.24v0.24l-0.24,0.24h-0.24h-0.239h-0.24l-0.24,0.24h-0.24h-0.24   l-0.479,0.24h-0.24l-0.24,0.24h-0.479h-0.24l-0.24,0.24h-0.24h-0.239h-0.24h-0.24v-0.24h-0.24h-0.24h-0.239l-0.48-0.24l-0.24-0.24   v-0.24l-0.24-0.24v-0.24v-0.24l0.24-0.24v-0.24h0.24h0.24h0.24h0.239H230.024 M77.125,177.518h0.24h0.24v0.24h0.24v0.24l0.24,0.24   v0.24v0.24v0.24v0.24l-0.24,0.24v0.24l-0.24,0.24h-0.24l-0.24,0.24h-0.24h-0.24h-0.24v0.24h-0.24h-0.24h-0.24v0.24h-0.24   l-0.24,0.24l-0.24,0.24h-0.24l-0.24,0.24l-0.24,0.24h-0.24v0.24h-0.24v0.24h-0.24v0.24h-0.24v0.24h-0.24h-0.24v-0.24v-0.24h0.24   v-0.24h0.24h0.24h0.24v-0.24h0.24v-0.24h0.24v-0.24l0.24-0.24v-0.24h0.24v-0.24l0.24-0.24l0.24-0.24v-0.24h0.24v-0.24l0.24-0.24   l0.24-0.24v-0.24l0.24-0.24v-0.24h0.24v-0.24v-0.24l0.24-0.24v-0.24h0.24L77.125,177.518 M26.719,241.125v0.24V241.125h-0.24h-0.24   h-0.24v-0.24v-0.239h0.24v-0.24l-0.24-0.24v-0.24v-0.24h0.24v0.24l0.24,0.24v0.24v0.24h0.24v0.239V241.125 M223.063,250.005v0.24   v0.24v0.24v0.239v0.24h0.24v0.24v0.24v0.239v0.24v0.24v0.24v0.24h-0.24v0.239v0.24l-0.24,0.24v0.24h-0.239v-0.24h0.239v-0.24v-0.24   l0.24-0.239v-0.24v-0.24v-0.24v-0.24v-0.239v-0.24v-0.24l-0.24-0.24v-0.239v-0.24v-0.24h-0.239v-0.24v0.24v-0.24v-0.24h0.239v0.24   H223.063 M18.558,253.846v-0.24l0.24-0.24v-0.24l0.24-0.239h0.24v-0.24h0.24v-0.48h0.24l-0.24,0.24v0.24v0.24v0.239h-0.24v0.24   l-0.24,0.24l-0.24,0.24H18.558 M220.423,262.007v0.479v0.24v0.24v0.239v0.24h-0.24v0.24v0.24v0.24l-0.24,0.239h-0.24h-0.24h-0.239   v-0.239h-0.24v-0.24l0.24-0.24h-0.24v-0.24v-0.24v-0.239h-0.24v-0.24v-0.24h-0.24v-0.24v-0.239l0.24,0.239h0.24h0.24h0.239v-0.239   l0.24-0.24v-0.24h0.24v-0.24v-0.24l0.24-0.239v-0.24v-0.24l0.24-0.24v-0.24l0.239-0.239v-0.24v-0.24l0.24-0.24v-0.24v-0.239   l0.24-0.24v-0.24v-0.24v0.24v0.24v0.24l-0.24,0.479v0.24v0.24l-0.24,0.24v0.239v0.24v0.24l-0.239,0.24v0.24v0.239v0.24v0.24v0.24   V262.007 M217.542,261.767v0.24h-0.24l-0.24-0.24h0.24l0.24-0.24V261.767 M218.502,262.007l-0.24,0.239v-0.239H218.502    M218.262,262.487h-0.239v-0.24h0.239V262.487 M217.783,262.487h0.24H217.783 M217.783,262.487v0.24V262.487 M217.783,262.727   v-0.24V262.727 M115.53,525.794v0.239l-0.24,0.24h-0.24v0.24l-0.48,0.24v0.24h-0.24h-0.24h-0.24h-0.72h-0.48l-0.48-0.24l-0.72-0.24   h-0.48v-0.24h-0.24h-0.24v-0.24h-0.24v-0.239v-0.24v-0.24v-0.24h0.24v0.24h0.24v0.24v0.24v-0.24h-0.24v-0.24h-0.24l0.24,0.24v0.24   h0.24h0.24h0.24l0.48,0.239l0.72-0.239h0.24h0.24h0.24h0.24h0.48h0.24l0.48-0.24l0.24-0.24l0.24-0.24l0.24-0.239l0.48-0.24h0.24   v-0.48l0.24-0.24l0.24-0.239l0.24-0.24l0.24-0.24l0.24-0.24v-0.24l0.241-0.239v-0.24v-0.24l0.239-0.24v-0.239l0.24-0.24v-0.24   v-0.24l0.24-0.24v-0.239l0.24-0.48l0.479-0.48l0.24-0.239v-0.24l0.24-0.24h0.24v-0.24v0.24l-0.24,0.24h-0.24v0.479l-0.24,0.24   l-0.72,0.96v0.24l-0.48,0.721v0.239v0.24v0.24v0.24l-0.239,0.239v0.24v0.24v0.48v0.239v0.24l-0.241,0.24l-0.48,0.48l-0.24,0.239   l-0.48,0.24l-0.24,0.24L115.53,525.794 M109.769,521.234v-0.24V521.234 M109.049,524.834h0.24v0.239h-0.24V524.834"/>
</g>
<g>
	<switch><text transform="matrix(1 0 0 1 74.7251 180.6382)" fill="#FF5500" font-family="'ESRIDefaultMarker'" font-size="5.0405" id="trsvg2-mag" systemLanguage="mag"><tspan id="trsvg1-mag">"</tspan></text><text transform="matrix(1 0 0 1 74.7251 180.6382)" fill="#FF5500" font-family="'ESRIDefaultMarker'" font-size="5.0405" id="trsvg2"><tspan id="trsvg1">"</tspan></text></switch>
</g>
</svg>
