<?xml version="1.0" encoding="utf-8"?>
<!-- Generator: Adobe Illustrator 15.0.3, SVG Export Plug-In . SVG Version: 6.00 Build 0)  -->
<!DOCTYPE svg PUBLIC "-//W3C//DTD SVG 1.1//EN" "http://www.w3.org/Graphics/SVG/1.1/DTD/svg11.dtd">
<svg xmlns="http://www.w3.org/2000/svg" xmlns:xlink="http://www.w3.org/1999/xlink" version="1.1" id="Ebene_1" x="0px" y="0px" width="632px" height="679px" viewBox="0 0 632 679" enable-background="new 0 0 632 679" xml:space="preserve">
<polygon id="Fläche" fill="#FFFFFF" points="402.141,36.38 411.334,42.533 416.446,52.74 420.552,52.74 425.662,48.63   468.568,49.651 477.782,56.81 480.847,62.962 491.073,67.031 503.312,82.33 517.615,87.461 521.724,100.732 521.724,125.231   517.615,139.549 531.948,140.57 538.067,147.729 539.087,157.951 546.253,164.062 544.198,177.332 549.313,184.492 545.233,187.54   544.198,200.851 528.89,208.991 532.95,220.233 528.89,229.42 527.842,240.662 529.896,247.822 532.95,246.8 535.008,253.933   529.896,261.091 529.896,270.279 519.669,273.341 518.659,276.431 524.781,283.549 520.717,290.708 524.781,299.91 512.53,314.201   504.357,313.18 498.198,327.471 502.306,330.56 499.241,336.671 501.271,339.761 498.198,344.852 488.013,350.99 490.025,357.102   483.906,360.15 476.74,359.129 472.657,363.24 478.793,369.352 480.847,382.648 491.073,384.689 484.909,402.029 484.909,418.391   480.847,422.459 485.96,427.592 484.909,433.703 493.085,434.709 490.025,440.861 496.185,450.049 500.251,450.049 498.198,455.152   499.241,460.27 507.413,463.318 509.443,469.471 513.551,470.492 518.659,476.588 523.775,473.541 532.95,471.498 533.96,482.74   545.233,487.832 546.253,499.061 553.419,505.199 568.718,508.262 561.592,523.6 564.651,531.74 558.49,541.961 556.479,540.941   544.198,549.121 536.015,547.078 514.558,548.1 512.53,551.162 497.191,557.301 497.191,574.639 489.019,589.979 490.025,595.07   488.013,598.158 474.715,600.201 469.601,608.381 471.627,615.5 462.435,621.65 457.323,625.721 449.15,624.701 445.084,621.65   443.03,610.41 442.011,609.389 434.845,602.229 424.615,599.18 416.446,603.25 411.334,610.41 410.323,610.41 394.975,607.359   386.802,597.139 369.448,594.049 368.403,592.021 366.378,595.07 364.323,592.021 344.921,596.09 343.87,597.139 337.753,597.139   332.642,601.223 331.635,601.223 331.635,602.229 324.469,603.25 330.615,607.359 328.562,612.449 331.635,614.479 331.635,617.541   323.448,618.59 311.169,628.811 310.159,632.881 302.993,631.859 302.993,634.922 296.878,633.9 292.799,637.971 291.765,637.971   286.652,653.309 280.519,657.379 270.294,660.469 235.577,649.199 225.353,650.26 218.187,645.129 218.187,644.107 217.166,644.107   213.06,641.061 202.834,645.129 203.881,641.061 198.768,631.859 190.595,629.832 187.536,631.859 180.356,630.838 176.29,627.748   150.726,635.928 145.612,635.928 137.427,626.74 134.367,628.811 129.254,626.74 115.968,627.748 104.73,639.018 98.606,641.061   89.421,637.971 87.37,633.9 63.852,627.748 58.737,620.629 57.729,608.381 51.604,603.25 49.554,592.021 51.604,589.979   52.614,589.979 52.614,586.932 44.438,577.73 37.272,577.73 28.088,573.619 20.921,574.639 13.788,578.75 17.86,565.48   24.017,555.258 25.026,533.809 32.192,529.711 30.141,523.6 37.272,510.289 47.5,504.191 41.377,491.928 35.254,487.832   31.149,481.721 34.211,461.291 40.367,453.109 50.562,449.041 51.604,443.91 46.491,440.861 49.554,435.73 45.448,431.66   46.491,428.611 33.201,416.348 32.192,405.119 42.387,395.918 40.367,390.801 45.448,385.71 41.377,380.58 47.5,374.468   47.5,368.33 53.657,363.24 51.604,359.129 55.677,348.921 75.089,335.651 78.184,315.221 92.483,302.971 99.616,286.639   95.544,278.458 99.616,270.279 100.659,258.029 102.711,256.001 108.834,254.981 113.948,251.891 117.011,234.55 126.194,224.33   120.075,219.211 119.062,213.101 110.888,206.962 121.082,203.9 123.136,199.79 129.254,196.741 129.254,193.692 125.188,185.512   115.968,184.492 105.773,176.312 87.37,169.179 90.431,164.062 78.184,147.729 89.421,135.452 84.308,127.299 93.493,118.112   99.616,122.182 105.773,122.182 119.062,131.382 131.308,132.39 132.354,120.14 135.415,118.112 142.54,121.161 150.726,114.001   158.898,132.39 165.059,129.341 168.118,123.203 174.237,124.21 180.356,117.091 194.661,117.091 199.774,109.932 207.946,112.981   211.02,106.87 221.245,102.773 235.577,102.773 242.703,109.932 249.869,109.932 257.009,106.87 259.062,96.662 269.287,91.531   291.765,86.441 298.933,71.101 308.11,63.969 317.325,71.101 323.448,70.081 325.503,75.211 328.562,73.169 337.753,76.232   342.865,73.169 341.86,68.052 345.927,51.719 343.87,46.602 352.046,41.511 362.281,45.582 367.397,42.533 374.563,42.533   375.569,36.38 384.745,36.38 383.74,24.131 378.63,22.089 378.63,17.993 390.906,20.061 "/>
<polygon id="Rand" fill="none" stroke="#000000" stroke-width="1.2" stroke-linejoin="round" stroke-miterlimit="10" points="  402.141,36.38 411.334,42.533 416.446,52.74 420.552,52.74 425.662,48.63 468.568,49.651 477.782,56.81 480.847,62.962   491.073,67.031 503.312,82.33 517.615,87.461 521.724,100.732 521.724,125.231 517.615,139.549 531.948,140.57 538.067,147.729   539.087,157.951 546.253,164.062 544.198,177.332 549.313,184.492 545.233,187.54 544.198,200.851 528.89,208.991 532.95,220.233   528.89,229.42 527.842,240.662 529.896,247.822 532.95,246.8 535.008,253.933 529.896,261.091 529.896,270.279 519.669,273.341   518.659,276.431 524.781,283.549 520.717,290.708 524.781,299.91 512.53,314.201 504.357,313.18 498.198,327.471 502.306,330.56   499.241,336.671 501.271,339.761 498.198,344.852 488.013,350.99 490.025,357.102 483.906,360.15 476.74,359.129 472.657,363.24   478.793,369.352 480.847,382.648 491.073,384.689 484.909,402.029 484.909,418.391 480.847,422.459 485.96,427.592 484.909,433.703   493.085,434.709 490.025,440.861 496.185,450.049 500.251,450.049 498.198,455.152 499.241,460.27 507.413,463.318 509.443,469.471   513.551,470.492 518.659,476.588 523.775,473.541 532.95,471.498 533.96,482.74 545.233,487.832 546.253,499.061 553.419,505.199   568.718,508.262 561.592,523.6 564.651,531.74 558.49,541.961 556.479,540.941 544.198,549.121 536.015,547.078 514.558,548.1   512.53,551.162 497.191,557.301 497.191,574.639 489.019,589.979 490.025,595.07 488.013,598.158 474.715,600.201 469.601,608.381   471.627,615.5 462.435,621.65 457.323,625.721 449.15,624.701 445.084,621.65 443.03,610.41 442.011,609.389 434.845,602.229   424.615,599.18 416.446,603.25 411.334,610.41 410.323,610.41 394.975,607.359 386.802,597.139 369.448,594.049 368.403,592.021   366.378,595.07 364.323,592.021 344.921,596.09 343.87,597.139 337.753,597.139 332.642,601.223 331.635,601.223 331.635,602.229   324.469,603.25 330.615,607.359 328.562,612.449 331.635,614.479 331.635,617.541 323.448,618.59 311.169,628.811 310.159,632.881   302.993,631.859 302.993,634.922 296.878,633.9 292.799,637.971 291.765,637.971 286.652,653.309 280.519,657.379 270.294,660.469   235.577,649.199 225.353,650.26 218.187,645.129 218.187,644.107 217.166,644.107 213.06,641.061 202.834,645.129 203.881,641.061   198.768,631.859 190.595,629.832 187.536,631.859 180.356,630.838 176.29,627.748 150.726,635.928 145.612,635.928 137.427,626.74   134.367,628.811 129.254,626.74 115.968,627.748 104.73,639.018 98.606,641.061 89.421,637.971 87.37,633.9 63.852,627.748   58.737,620.629 57.729,608.381 51.604,603.25 49.554,592.021 51.604,589.979 52.614,589.979 52.614,586.932 44.438,577.73   37.272,577.73 28.088,573.619 20.921,574.639 13.788,578.75 17.86,565.48 24.017,555.258 25.026,533.809 32.192,529.711   30.141,523.6 37.272,510.289 47.5,504.191 41.377,491.928 35.254,487.832 31.149,481.721 34.211,461.291 40.367,453.109   50.562,449.041 51.604,443.91 46.491,440.861 49.554,435.73 45.448,431.66 46.491,428.611 33.201,416.348 32.192,405.119   42.387,395.918 40.367,390.801 45.448,385.71 41.377,380.58 47.5,374.468 47.5,368.33 53.657,363.24 51.604,359.129 55.677,348.921   75.089,335.651 78.184,315.221 92.483,302.971 99.616,286.639 95.544,278.458 99.616,270.279 100.659,258.029 102.711,256.001   108.834,254.981 113.948,251.891 117.011,234.55 126.194,224.33 120.075,219.211 119.062,213.101 110.888,206.962 121.082,203.9   123.136,199.79 129.254,196.741 129.254,193.692 125.188,185.512 115.968,184.492 105.773,176.312 87.37,169.179 90.431,164.062   78.184,147.729 89.421,135.452 84.308,127.299 93.493,118.112 99.616,122.182 105.773,122.182 119.062,131.382 131.308,132.39   132.354,120.14 135.415,118.112 142.54,121.161 150.726,114.001 158.898,132.39 165.059,129.341 168.118,123.203 174.237,124.21   180.356,117.091 194.661,117.091 199.774,109.932 207.946,112.981 211.02,106.87 221.245,102.773 235.577,102.773 242.703,109.932   249.869,109.932 257.009,106.87 259.062,96.662 269.287,91.531 291.765,86.441 298.933,71.101 308.11,63.969 317.325,71.101   323.448,70.081 325.503,75.211 328.562,73.169 337.753,76.232 342.865,73.169 341.86,68.052 345.927,51.719 343.87,46.602   352.046,41.511 362.281,45.582 367.397,42.533 374.563,42.533 375.569,36.38 384.745,36.38 383.74,24.131 378.63,22.089   378.63,17.993 390.906,20.061 "/>
<switch><text transform="matrix(0.9991 0 0 1 278.4377 356.7529)" font-family="'ArialMT'" font-size="12" id="trsvg2-mag" systemLanguage="mag"><tspan id="trsvg1-mag">१</tspan></text><text transform="matrix(0.9991 0 0 1 278.4377 356.7529)" font-family="'ArialMT'" font-size="12" id="trsvg2"><tspan id="trsvg1">1</tspan></text></switch>
</svg>
